<?xml version="1.0" encoding="utf-8"?>
<!-- Generator: Adobe Illustrator 26.5.0, SVG Export Plug-In . SVG Version: 6.00 Build 0)  -->
<svg version="1.1" id="Ebene_1" xmlns="http://www.w3.org/2000/svg" xmlns:xlink="http://www.w3.org/1999/xlink" x="0px" y="0px"
	 viewBox="0 0 510 382" style="enable-background:new 0 0 510 382;" xml:space="preserve">
<style type="text/css">
	.st0{enable-background:new    ;}
	.st1{fill:#FA9917;}
</style>
<g class="st0">
	<path class="st1" d="M45.2,10.3c1.2,0.5,2,0.7,2.3,0.7h0.3c0.1,0,0.2-0.1,0.2-0.3l0.5,0.3h0.5c0.2,0,0.3-0.1,0.3-0.3
		c1.2,0.5,2,0.7,2.3,0.7c0.3,0,0.5-0.2,0.5-0.5c0.3,0,1.5,0.2,3.5,0.5c0.6-0.3,2.7-0.7,6.3-1.2c6.3,0.6,9.7,1.4,10.3,2.3
		c1.2,0,2,0.4,2.3,1.2c0.3,0,1.3,0.5,3,1.4c0.6,0.3,1.1,0.5,1.4,0.5c2.5,0,5.8-0.8,10-2.4c1.1,0,2.2,0.2,3.2,0.5l1.4-0.2h1.4
		c1.2,0.9,2.2,1.3,3,1.4v-0.3c3.7,0.9,5.6,1.7,5.6,2.4c2.3,1,4.2,3.4,5.8,7c0.5,1.5,0.7,2.4,0.7,2.8v3c0,0.2-0.1,0.3-0.2,0.3
		l0.2,0.5c-0.6,1.8-1.1,4.6-1.4,8.4c-0.3,0-0.5,1.5-0.7,4.4l0.3,1.6h-0.3l1.6,6.7l-0.3,1.4l0.3,1.4l-0.3,1.1c0,0.8,0.2,1.2,0.5,1.2
		l-1,5.8l0.3,0.5l-0.9,1.4c-1.7,2.3-3.1,3.5-3.9,3.5l-1.2,0.5c-0.5,0-1.8-0.3-3.7-0.9v0.3l-3.5-1.4l-0.9-0.5c-1.2,0.4-2,0.9-2.3,1.4
		c-0.3-0.2-0.5-0.3-0.7-0.3c-0.4,0-2.1,0.8-5.1,2.3C85.6,69.3,85,69.1,85,69l-0.5,0.3c-3.2-1-5.8-2-7.7-3l-1.1-0.3
		c-0.8,0.2-1.6,0.3-2.4,0.3h-0.5c0,0.2-0.4,0.5-1.2,0.9l-0.5-0.3c-0.3,0.2-0.6,0.3-0.9,0.3c0-0.2-0.1-0.3-0.2-0.3
		c-0.3,0.4-1.6,1-4,1.6L65.9,69l-0.5-0.2h-1.2c0,0.4-0.5,0.9-1.4,1.6c0,0.2-0.9,1.3-2.6,3.2l-0.3,1.2c0,0.1,0.1,0.6,0.3,1.4
		c0.2,0,1-0.9,2.3-2.6l2.1-1.8l7.9-2.1c0.1,0,0.2,0.1,0.2,0.2l1.2-0.2l3.2,0.2l0.5-0.2c3.9,1.2,6.2,1.8,6.7,1.8
		c1.1,0.2,1.8,0.3,1.9,0.3c0-0.2,0.1-0.3,0.2-0.3v0.3c1.7-0.4,2.6-0.7,2.6-0.9l5.3-1.6c0-0.5,1.5-0.7,4.5-0.7l5.3,1.2h0.5
		c0,0.5,1.1,1.2,3.3,2.1c3,1.5,4.8,3,5.1,4.4c0.5,0,1,2.2,1.6,6.5c-0.5,1.9-1,4-1.4,6.3c-0.5,1.1-1,2.5-1.4,4.4
		c-0.2,0-0.7,1.3-1.4,3.9c0,0.6,0.4,3.4,1.1,8.4c0,0.1,0.1,0.8,0.3,1.8c-0.3,1.2-0.5,2.7-0.5,4.4v2.4c-1.5,10.1-2.9,15.1-4.2,15.1
		c0,0.4-0.6,1.1-1.8,2.1v0.9h-1.4c-1,0.5-2.3,3.1-4,7.9c-1,1.2-2.3,1.9-3.9,2.1c0,0.3-1.2,1.1-3.7,2.6c0,0.3-0.8,0.7-2.4,1.2
		c0,0.4-1.3,1.5-3.9,3.2c0,0.3-0.9,1.4-2.6,3.3c0,0.6-1.3,2.2-3.9,4.9c-0.3,0-0.9,0.6-1.6,1.9c-1.4,0.8-2.2,1.1-2.3,1.1
		c0-0.1-0.1-0.2-0.3-0.2v0.2l-0.5-0.2h-0.9c-0.2,0-0.3,0.1-0.3,0.2c-1.5-0.6-2.9-1-4.2-1.1c-0.2-0.2-1.6-1.1-4.2-2.6
		c-0.6-0.8-1.2-1.2-1.6-1.2c0,0.1-0.1,0.2-0.2,0.2c-0.1-0.8-0.6-1.1-1.4-1.1c0,0.1-0.1,0.2-0.2,0.2v-0.5h-0.9c-0.7,0-1.5,2-2.6,6
		c-0.3,0.1-0.9,1.2-1.9,3.3l-1.6,2.1c-0.3,0.5-0.5,1-0.5,1.4c0.2,0,0.3,0.1,0.3,0.2c-1.5,1.7-2.7,2.6-3.5,2.6h-2.4
		c-3.7-1-5.5-1.8-5.5-2.6c-1.3,0-2.8-2.4-4.5-7.2c-1.3-4.2-2.3-6.3-3-6.3c-0.5,0-1.6-0.9-3.2-2.6c-0.4,0-1.7-1.5-3.7-4.4
		c-0.7-0.9-1.5-3.1-2.3-6.8c0-0.8-0.9-1.5-2.8-2.3c-1.9-2.2-3.4-3.6-4.4-4.4c-0.1-0.8-0.3-1.2-0.7-1.2h-0.9l-0.5,0.2
		c0-0.2-1.6-0.9-4.7-1.8c-0.6,0-2.3-1.7-4.9-5.1l-2.1-7c0-0.9-0.2-2.3-0.7-4.4v-1.9c0.3-3.5,0.5-5.3,0.5-5.6v-2.6
		c-0.2-1.6-1-4.3-2.3-8.1c0-3.6,0.7-7.1,2.1-10.5c1.1-3.9,1.6-6.9,1.6-9.1c-0.8,0-1.8-3.8-3-11.4H4l-0.2-0.5v-0.5
		c0-0.8,0.4-2.6,1.1-5.3c0-0.8,0.4-3.3,1.2-7.7v-2.8c-1.7-1.9-2.6-4.7-2.6-8.4v-0.2c0.2-0.3,0.3-0.6,0.3-0.9H3.5
		C4.3,37.6,5,34.9,5.6,31c1.6-3.4,3.4-6,5.3-7.9c1.3-1,4.2-2.7,8.6-4.9v0.3c4.6-1.2,7.4-1.8,8.2-1.8v0.2c5-0.7,7.5-1.6,7.5-2.8
		c3.7-2,6.2-3,7.4-3v0.2C44.4,10.8,45.2,10.5,45.2,10.3z M58.7,18.5v-0.3c-0.1,0-0.2,0.1-0.2,0.3l-1.6-0.3h-0.5l-2.8,0.5
		c-0.4,0-1.1-0.2-2.3-0.5c-0.3,0.2-0.5,0.3-0.7,0.3c0-0.2-0.1-0.3-0.2-0.3c-0.1,0.3-0.5,0.7-1.2,1c0-0.6-1.2-1-3.7-1.2
		c0,0.1-0.1,0.2-0.2,0.2V18c-2.5,0.3-4.9,1.3-7.2,3c-0.9,1.5-1.8,2.3-2.8,2.3L32.4,25c-0.1,0-0.2-0.1-0.2-0.2L31.7,25h-1.6
		c-0.3,0-0.5-0.2-0.5-0.5c-0.3,0-0.9,0.2-1.6,0.5c-0.8-0.1-1.2-0.3-1.2-0.5l-0.5,0.3l-0.5-0.3v0.3c-0.3-0.2-0.5-0.3-0.7-0.3
		c-0.1,0-0.4,0.1-0.7,0.3l-1.4-0.3h-0.9c-5,2.5-7.4,4.2-7.4,5.1c0,0.5-1,1.4-3,2.8l-2.1,7.2c0,1.5,0.6,3.2,1.8,4.9h0.5
		c3.2-1.8,4.9-3.3,4.9-4.7V39c-0.3-0.5-0.5-0.9-0.5-1.2l0.9-0.7h1.6c0.8,0,1.3,1.3,1.4,3.9c0.2,0,0.3,0.1,0.3,0.3L20,42.2
		c0.2,0.3,0.3,0.6,0.3,0.9c-0.5,0-1.1,1-1.8,3c-1.1,1.6-2,2.4-2.8,2.6v1.4c0,0.4,0.1,0.7,0.3,0.7c-0.6,6.4-1.4,10.5-2.6,12.6
		c-0.2,0.4-0.4,1.7-0.7,3.7h0.3l-0.3,0.5v0.9c0,4.3,0.7,6.9,2.1,7.7c1.3,3.5,2.1,6,2.3,7.4c0,0.8-0.4,1.3-1.1,1.6
		c0-0.8-0.5-1.2-1.6-1.2c-1.1,3.3-1.6,5.1-1.6,5.6c-0.3,0.4-0.7,2.6-1.4,6.6c0.1,0.9,1,2.1,2.6,3.7c0.8,1.7,1.2,3,1.2,3.9
		c0,1.1,0.2,2,0.5,2.6c-0.2,0.3-0.3,0.6-0.3,0.9l0.5,0.7v0.7c0,0.6-0.2,1.3-0.5,1.8h0.3c0,0.4-0.5,1.3-1.6,2.8l-0.3,2.3
		c0.5,5.1,1.3,7.7,2.4,7.7c1.3,1.2,2.2,1.8,2.6,1.8c0.4-0.7,0.7-2,0.7-3.7c-0.4-0.8-0.7-1.4-0.7-1.8v-0.2c0.4-0.8,0.9-1.3,1.4-1.4
		v0.3l0.5-0.3h0.5c1.5,0.7,2.3,2.5,2.3,5.4l-0.2,1.6c1.6,2.3,2.8,3.5,3.5,3.5c0-0.2,0.1-0.3,0.3-0.3c0.3,0.6,0.8,0.9,1.4,0.9
		c0-0.1,0.1-0.2,0.2-0.2c0,0.4,0.2,0.7,0.5,0.7l0.5-0.2c2.1,0.9,3.8,2.3,5.1,4.2c0.9,0.7,1.4,1.7,1.6,3l-0.2,0.9
		c0.3,2.5,1.2,5.1,2.6,7.9c1.1,1.3,2.1,2.2,3.2,2.6h0.9c0.9-0.6,1.8-2.3,2.6-4.9l-0.2-1.2v-1.4c0.6,0,0.9-0.2,0.9-0.7
		c2.2,0,3.2,0.6,3.2,1.8l0.3,1.4c-0.3,2.3-0.5,3.8-0.5,4.7c0.3,0,0.5,0.2,0.5,0.5c-0.3,0-0.6,0.3-0.7,0.9l0.3,0.5v2.1l-1.8,6.3
		l0.2,1.4v0.5c0,0.1-0.1,0.2-0.2,0.2c0,0.1,0.3,0.8,0.9,1.9h0.7c0-0.4,0.6-1.5,1.9-3.3c0.4-1.7,0.7-3.3,0.7-4.9
		c0-0.9-0.2-1.7-0.5-2.6c0.7-5,1.4-7.5,2.1-7.5c0.2-0.5,1.4-1.3,3.5-2.3c0-0.1,0.4-0.4,1.2-0.9l0.5,0.2l0.5-0.2l0.5,0.2
		c2.8-0.3,4.2-0.6,4.2-0.9c-1.5-0.8-2.3-1.4-2.3-1.6l0.2-0.5c-0.1,0-0.2-0.1-0.2-0.2c0.3-0.3,1.1-0.5,2.3-0.7
		c3.7,1.3,5.6,2.6,5.6,3.9c0.2,0.1,0.5,0.9,0.9,2.4l-0.2,0.5v0.7c0,0.2,0.1,0.3,0.2,0.3c-0.1,0.3-0.3,1-0.5,2.3
		c0.1,2.2,0.3,3.3,0.5,3.3l-0.2,0.5c0.1,0.5,0.8,1.2,2.1,1.8v0.3c3.1,0,5.4-2.4,6.8-7.2l0.3-2.8c0-0.1-0.1-1.1-0.3-3
		c0.4,0,0.7-0.5,0.9-1.4c0.1,0,0.4-0.4,0.9-1.1l0.5,0.2h0.7c0.6-0.3,0.9-0.5,0.9-0.7l0.5,0.2h0.9l0.5-0.2c0.4,1.3,1.1,2.4,1.8,3.2
		c3.7-1.9,6.2-3.8,7.4-5.8l1.9-5.1c-0.2-0.8-0.3-1.3-0.3-1.4c0.1-1.1,0.3-1.6,0.5-1.6c0-0.6-0.9-1.2-2.6-1.6c0-0.3-0.7-0.9-2.1-1.8
		c-0.6-1.2-0.9-2-0.9-2.4v-0.5c0-0.1,0.1-0.2,0.3-0.2c-0.4-1.3-0.6-1.9-0.7-1.9c0.2-0.8,0.5-1.1,0.9-1.1c0.8,0.2,1.2,0.7,1.2,1.6
		v0.7c0.3,0,0.5,0.2,0.5,0.5h0.5v-0.5h0.3v0.5l0.7-0.5h0.3v0.5c0,0.2-0.1,0.3-0.3,0.3c0.2,0.3,0.3,0.6,0.3,0.9h0.5V120h0.2l0.5,0.2
		c0-0.1,0.1-0.2,0.3-0.2c0,0.3,0.2,0.5,0.5,0.5h0.3c0-0.9,0.3-1.5,0.9-1.9c0-0.3,0.1-0.6,0.2-0.9c-0.1-0.3-0.2-0.5-0.2-0.7
		c0.3-0.2,0.5-0.3,0.7-0.3l-0.2-1.4l0.2-2.1l-0.2-1.2c0.1,0,0.2-0.1,0.2-0.2c-0.1,0-0.6-0.9-1.4-2.6c-0.1,0-0.2-0.1-0.2-0.3
		c0-0.2,0.3-0.5,0.9-0.9c1.8,0.1,2.8,1,2.8,2.8c1.9,1.7,2.8,3.7,2.8,5.8h0.2c0-0.2,0.1-0.4,0.3-0.7c0-0.1-0.1-0.4-0.3-0.7
		c0.3-2.3,0.5-3.4,0.7-3.5c-0.2-1-0.4-1.8-0.7-2.4l0.5-5.8h-0.2c0-0.2,0.1-0.3,0.2-0.3l-0.2-1.1V102l0.2-1.6h-0.2l-0.5,0.3
		c-1.3-1.1-2-1.6-2.1-1.6v-1.6c0.8-2.8,2.4-6.8,4.9-11.8l0.7-4c-0.5-2.9-1.3-4.4-2.4-4.4c-0.1-0.3-0.4-0.6-1.1-0.9l-0.9,0.3
		c-0.9-0.3-2.4-0.6-4.5-1v0.3c-0.1,0-0.2-0.1-0.2-0.3c-2.6,0.2-3.9,0.7-3.9,1.6L92,76.9c-0.6,0.4-0.9,0.7-0.9,0.9h-0.7
		c-0.8,0-1.2,0.3-1.2,0.9l-0.5-0.3h-0.3c-0.3,0.5-1.7,1-3.9,1.4c-0.1,0.3-0.2,0.5-0.2,0.7l-0.7-0.5l-3.5,0.9l-1.4-0.2h-1.4
		c-0.3,0-0.5-0.4-0.5-1.2c1.2-0.8,1.9-1.2,2.1-1.2v-0.2l-2.3-1.6c-0.2,0-0.3,0.1-0.3,0.3c-0.1,0-1.2-0.2-3.2-0.7
		c-0.5,0.3-1,0.5-1.4,0.5h-0.2c-0.3,0-0.7-0.1-0.9-0.2c-2.2,1.3-3.3,2.7-3.3,4.4c-0.3,0-0.6,1.7-0.9,5.1c0.2,0.3,0.3,0.6,0.3,0.9
		l-0.5,0.2c0,3,0.5,4.5,1.4,4.5h0.7c0-0.2,0.1-0.3,0.3-0.3c0,0.2,0.2,0.5,0.7,0.7h0.7l3-2.6h1.4c0.4,0.3,0.8,0.5,1.2,0.5v0.2
		c0,0.2-0.1,0.3-0.2,0.3c0.1,0.3,0.2,0.5,0.2,0.7c-0.4,1.2-0.8,1.8-1.4,1.8c0,0.4-1,1.4-3,3c0,0.6-0.2,1.2-0.7,1.8v0.3
		c0,0.1,0.1,0.2,0.3,0.2c-1.3,2.3-1.9,4.1-1.9,5.4c0.2,0.8,1.3,1.9,3.5,3.2l1.4,1.6v0.3c0,1.2-0.3,1.9-0.9,2.1h-1.2
		c-0.5-0.5-1.5-1-3-1.4c0-0.9-1.6-1.6-4.9-2.1l-0.5,0.3c-0.5-0.3-0.9-0.5-1.1-0.5v0.2c-0.3-0.1-0.5-0.2-0.7-0.2
		c-0.9,0-2.7,0.5-5.3,1.4l-0.5-0.2c-0.3,0.1-0.5,0.2-0.7,0.2c-0.8-0.5-1.7-1-2.8-1.4v-0.9c1-0.3,1.7-0.5,2.3-0.5
		c-0.9-0.9-1.4-2.3-1.4-4.2h0.2c-0.3-1.7-1.4-4-3-6.8c-0.4-0.9-0.9-2.3-1.4-4.2c-0.2,0-0.8-0.9-1.8-2.8c-0.3,0-0.7-0.5-1.2-1.6
		c0-1.1,1.3-3.8,3.9-8.4c0-0.3,0.6-2.6,1.8-6.8h-0.2l0.2-0.5v-0.5L51,69.4V69c0.1-0.3,0.2-0.5,0.5-0.5c0-0.4-0.6-2.2-1.8-5.6h0.3
		c0.4-0.4,1.1-0.7,2.1-0.7c1.7,3,2.5,4.8,2.5,5.3h0.3c2.3-2,3.5-3.7,3.7-5.1c1.1-0.6,1.6-1.3,1.6-2.1h0.5c0.9,0,2-0.5,3.2-1.6
		c0.1,0,0.6-0.1,1.4-0.3v0.3l1.4-0.7c0.6,0,1.2,0.5,1.6,1.4l0.7,0.5c0.2,0,0.3-0.1,0.3-0.2c0.4,0.1,0.7,0.3,0.7,0.5
		c0.6,0,1.9-1.1,3.7-3.3c1-0.4,1.9-1,2.6-1.6l0.2,0.5l1.2-0.2h0.7c1.7,0,2.6,1.2,2.8,3.7v0.9c1,1.4,2,2.1,3,2.1
		c4.3-1.2,6.5-2.3,6.5-3.3l0.7-2.3c-0.9-2.8-1.4-4.7-1.4-5.8v-2.6l-0.3-1.2c1.4-0.3,2.1-0.5,2.1-0.7c1,0.4,1.5,0.8,1.6,1.2v0.7
		l-0.3,1.2h0.3l-0.3,0.5v0.3c0.7,4.3,1.5,6.5,2.4,6.5c0.3,2,0.9,3,1.6,3c2.5-0.8,3.7-1.8,3.7-3c-1.2-5-1.8-8.3-1.8-10v-1.1
		c0-0.2,0.1-0.3,0.2-0.3c0-0.1-0.1-0.2-0.2-0.2c0.1-1.9,0.4-3.6,0.7-4.9h-0.2c0.1-1.7,0.3-2.6,0.5-2.6c0-0.1-0.1-0.2-0.3-0.2
		c0.6-2.6,0.9-4.3,0.9-4.9v-3c-0.8-5.7-2-8.6-3.7-8.6c-1.2-0.4-2.6-0.7-4.2-0.9c-1.7,0.4-3.7,0.8-5.8,0.9c0,0.2-0.2,0.3-0.5,0.3
		v-0.3c-1.7,0.6-3.7,1.2-5.8,1.6v-0.2c-0.4,0.1-1.5,0.4-3.3,0.7c-1.7-0.2-3.4-0.8-4.9-1.6c-3.1-1.8-4.8-2.8-5.1-2.8
		c-1.7-0.3-2.6-0.5-2.6-0.7L64.3,18h-0.5l-1.6-0.3V18c-0.1,0-0.2-0.1-0.2-0.3C61.5,17.7,60.4,18,58.7,18.5z M22.6,70.6
		c0.8,0,1.3,1.7,1.6,5.1c0.3,0,0.5,0.4,0.5,1.2h-0.2l0.5,1.4l-0.7,1.2v1.6c0.3,1.1,0.5,1.8,0.5,1.9c-0.1,0.6-0.4,0.9-0.9,0.9v0.7
		h0.5v0.9c-0.8,2.8-1.2,4.8-1.4,6c0,2.6,0.7,3.9,2.1,3.9l4.4-2.6c0-0.5,0.4-0.9,1.2-1.2c1.1,1.1,1.6,2.6,1.6,4.5
		c-1.2,2.3-1.9,3.5-2.1,3.5c-1.7,1-2.6,1.5-2.6,1.6c0-0.4-0.3-0.6-0.9-0.7l-1,0.2c-3.4-1.2-5.1-2.4-5.1-3.5
		c-0.8-1.1-1.3-2.8-1.6-4.9c0.1-0.6,0.2-1.2,0.2-1.8c0-0.2-0.1-0.3-0.2-0.3c1.7-6.6,2.8-10.3,3.2-11.2L21.9,78v-3
		c0-0.2-0.2-1.4-0.5-3.7v-0.5L22.6,70.6z M64.5,35.4H65v2.4c0,0.1,0.1,0.2,0.2,0.2c-0.1,0.3-0.2,0.5-0.2,0.7c0,0.7,0.3,1.5,0.9,2.3
		c0.5,1.4,0.7,2.2,0.7,2.4h-0.3c0.2,1.9,0.6,3.7,1.4,5.6c0,0.7,0.1,1.1,0.3,1.4l-0.3,1.4v0.5l0.3,0.5c-0.5,0.7-1.1,1.3-1.9,1.9
		c0,1.4-1.3,2.2-3.9,2.6c-0.5-0.3-0.9-0.5-1.1-0.5v0.2c-1.7-0.5-3-1.2-3.7-2.1c-0.9-0.8-1.4-1.7-1.4-2.8l0.2-0.5l-0.5-1.4
		c0.6-1.9,1.2-2.8,1.6-2.8h0.5c0.2,0,0.6,0.6,1.2,1.8l-0.3,0.5l1.4,2.6c2.7-0.6,4-1.7,4-3.2c0.1,0,0.2-0.1,0.2-0.3l-0.9-6l0.3-0.5
		c-0.3-1.4-0.5-2.7-0.5-3.9l0.3-2.1h0.3l0.5,0.3C64.1,35.8,64.2,35.4,64.5,35.4z M99,121.6v1.9l0.2,2.3h0.3c1-0.6,1.9-3,2.6-7.2
		C102,118.6,101,119.7,99,121.6z"/>
	<path class="st1" d="M181,10.8c1.4,0.2,2.2,0.4,2.6,0.7h1.2c0.2,0,0.3-0.1,0.3-0.3c0.9,0.6,2,1,3.2,1.2l0.5-0.3
		c1.2,0.6,1.9,0.9,2.1,0.9c0-0.1,0.1-0.2,0.3-0.2c0,0.1,0.1,0.2,0.2,0.2c0-0.1,0.1-0.2,0.3-0.2c0,0.2,0.2,0.4,0.7,0.7h0.3
		c0.1,0,0.2-0.1,0.2-0.3c0.2,0,0.3,0.1,0.3,0.3c3.6-0.3,5.3-0.6,5.3-0.7c0.3,0.1,1.1,0.3,2.4,0.5v-0.3l0.5,0.3l0.5-0.3
		c0,0.3,1,0.8,3,1.4c1.4,1,2.6,2.2,3.7,3.7c0.9,1.2,2.9,3,6,5.6c0.6,0.9,1.2,1.6,1.8,2.1c0,2.2,0.8,5.3,2.3,9.5
		c0.3,1.6,0.5,2.7,0.5,3.3c-0.1,0.8-0.2,1.3-0.2,1.4l0.2,1.4l-0.2,0.5l0.2,0.5c0,2.5-0.8,4.5-2.5,6c0,0.2-0.5,1.3-1.4,3.2
		c2,4.6,3,7.7,3,9.3h0.3l-0.3,0.5v2.3c0,0.2,0.1,0.3,0.3,0.3l-0.3,0.5c0.1,1.1,0.2,1.6,0.5,1.6c-0.1,0.3-0.2,0.5-0.2,0.7
		c0,5.3,1.3,9.4,3.9,12.4c0,0.4,1,1.8,3,4.2c2.6,4.4,3.9,7.2,3.9,8.6c0,1.4,0.1,2.5,0.3,3.5l-0.5,3.2c0.6,1.1,1,1.6,1.1,1.6
		c0.5,0,1,1.6,1.6,4.9c0.7,0.3,1.4,2,2.1,5.1c0.9,0.9,2.4,4.7,4.4,11.4c1.4,5.1,2.1,8,2.1,8.6c0,2.6-1,4.9-3,6.8
		c-0.8,0-1.6,1.8-2.3,5.3c-1,1.7-2,3.1-3,4.2c-1.2,0.8-2,1.1-2.4,1.1c-0.9,0.4-1.4,0.7-1.4,1l-0.9,0.7l-0.5-0.2l-1.6,1.4v0.7
		c0.5,0.4,0.9,1.5,1.2,3c0,0.2,0.5,1.4,1.4,3.5l-0.5,3l0.2,1.4c-0.3,1-0.5,1.6-0.5,1.8h0.3l-0.9,2.1l0.2,1.2l-2.1,3.5
		c-3.2,1.5-5.7,2.3-7.4,2.3c0-0.3-0.2-0.5-0.7-0.7c-0.3,0.1-0.5,0.2-0.7,0.2c-3.4-1.3-5.1-2.7-5.1-4.2c-1.1-1.4-1.6-2.5-1.6-3.5
		c0.2-0.3,0.3-0.5,0.3-0.7H209l0.3-0.5v-2.6c0-2.6-0.5-3.9-1.6-3.9c0-0.2-0.6-0.5-1.8-1v-0.2h-1.2c-0.2,0-0.3-0.1-0.3-0.3
		c-0.8,0.3-1.3,0.5-1.6,0.5c0-0.2-1.6-1.2-4.9-3.2c-1.4-1.6-2.3-3.5-2.6-5.6c-0.2-0.9-0.5-2.5-0.9-4.9v-3.3c0-1.2-1.2-2.9-3.7-5.1
		c-0.8-1-1.3-2.3-1.6-3.7h-0.7c-1.4,0-3.3,1-5.6,3c-0.3,1.4-0.5,2.3-0.5,2.6c0,0.1,0.1,0.8,0.3,1.9l-0.3,0.5
		c0.2,0.3,0.3,0.6,0.3,0.9c-1.2,1.5-2.3,2.5-3.5,2.8c0,1.8-0.9,4-2.8,6.6c-0.6,1.5-2,2.9-3.9,4.2c-0.3-0.1-0.5-0.2-0.7-0.2
		c0,0.3-1.5,0.5-4.4,0.5l-1.8-1.4H165c-0.3,1.4-0.5,2.4-0.5,3v0.2c0,0.7,0.2,1.3,0.5,1.8h-0.2c0.6,1,1,2.8,1.1,5.6l-2.3,5.1
		c-0.8,0.6-1.5,1.4-2.1,2.6c-0.8,0.5-1.4,0.7-1.8,0.7h-0.3c-3.1,0-5.3-0.9-6.5-2.8c-0.8,0-1.9-3.5-3.3-10.5c0-0.2,0.1-1,0.3-2.3
		c0-0.5-0.1-1-0.3-1.6c0.2-1.5,0.3-2.9,0.3-4.2v-4.4c0-0.3-0.2-0.5-0.5-0.5h-0.3c-1.1,1-2.6,1.7-4.7,2.1c0,0.1-0.1,0.2-0.2,0.2
		c-1.3,0-3.2-0.9-5.8-2.6c-0.5,0-1.4-0.5-2.8-1.4c-1.7-0.7-3.2-2.3-4.4-4.9c-1.4-3.2-2.1-6.4-2.1-9.8c0-0.6-0.7-1.4-2.1-2.3
		c-1.2-1.6-2-3.7-2.6-6c0-2.9,0.7-6.8,2.1-11.6c1.7-1.9,2.7-3.4,3-4.5c0.6,0,1.7-4.7,3.2-14.2c3.1-7.9,6-14.9,8.9-20.9
		c-0.2,0-0.3-0.1-0.3-0.3c0.7,0,1.2-2.6,1.4-7.7c0.1,0,0.3-1.1,0.7-3.2l-0.2-0.5l0.2-1c-0.1-0.4-0.3-0.7-0.5-0.7l0.3-1.2
		c0-0.7-0.2-1.4-0.5-2.1h0.2l-0.7-3.2v-3.5c0-0.2-0.1-0.3-0.3-0.3c0.2-1.7,0.3-2.6,0.5-2.6l-0.2-0.5c0-0.2,0.1-0.4,0.2-0.7
		c-0.1-0.8-0.2-1.5-0.2-2.1h0.2c0-0.2-0.1-0.3-0.2-0.3c0-1.6,0.6-3.9,1.8-6.8c0-0.2,1.2-3.1,3.7-8.8c2.2-2.1,3.9-4.4,5.1-7l5.8-3.5
		v0.5h0.3l0.7-0.5h1.6c0-0.4,0.3-0.6,0.9-0.7v0.7c0.2,0,0.4-0.1,0.7-0.2l1.1,0.2l0.3-0.5c2.5,0.4,4.7,0.8,6.5,1.2
		c0.7-0.5,2.7-1.1,6-1.8l0.3-0.5l0.5,0.2c1-0.4,1.7-0.7,2.1-0.7c0.3,0.1,0.6,0.2,0.9,0.2L181,10.8z M174.8,17.8l0.7,0.5l0.5-0.2
		c2.7,1.3,4,2.6,4,3.7c-0.4,1.6-0.9,2.4-1.4,2.4c-0.8,0-2-0.8-3.7-2.4c-3.1-1.7-4.9-2.6-5.6-2.6c-0.7-0.4-2.7-0.8-6-0.9
		c0-0.1-0.2-0.2-0.5-0.2l-0.5,0.2l-1.4-0.2c0,0.1-0.1,0.2-0.2,0.2v-0.2c-1.1,0-2.6,1.1-4.4,3.2c-1,0.4-1.8,1.2-2.4,2.6l-2.1,6
		c-0.9,1.9-1.7,4.1-2.3,6.5h0.2l-0.5,1.2c0.2,0,0.3,0.1,0.3,0.3c-1,0-1.7,2.8-2.1,8.4c0.1,0.6,0.3,0.9,0.5,0.9l-0.2,0.5v1
		c1.8,0,3.3-1.8,4.4-5.4c0.1,0,0.3-1.1,0.5-3.2c-0.2,0-0.3-0.1-0.3-0.3c0.5,0,0.9-0.9,1.2-2.8h0.3c0.3,0,0.5,0.2,0.5,0.5V39
		c1.1,0,1.6,1,1.6,3c0.2,0.9,0.3,1.7,0.3,2.6c0,0.1-0.1,0.4-0.3,1l0.3,0.5c0,1.8-1.2,3.5-3.7,5.1c0,0.8-0.6,2.4-1.8,4.6
		c0,0.6-0.2,1.2-0.7,1.6h0.3c-0.2,0.8-0.3,1.2-0.5,1.2l0.2,0.5c-0.3,1.1-0.5,2.7-0.7,4.9h-0.3l0.3,0.5v0.3c0,0.1-0.1,0.2-0.3,0.2
		l0.3,0.5c-0.4,2.5-0.9,4.1-1.4,4.9c0.1,0.3,0.2,0.5,0.2,0.7c-0.6,0-1.3,1.4-2.1,4.2l-1.8,2.8c-1.6,2.7-2.4,4.3-2.4,4.9
		c-1.7,4.3-3,8.8-3.7,13.5v0.3l0.5,0.2c-0.2,0.9-0.3,1.5-0.3,1.9c0,1.2,0.1,2.3,0.3,3.2c-0.2,1-0.3,2.1-0.3,3.3
		c0.5,1.1,0.7,1.8,0.7,2.1v1.4h-1.2c-0.3,0-0.5-0.2-0.5-0.7h-1.2c-0.9-0.4-1.4-1.2-1.4-2.3H134c0,0.5-0.9,2.2-2.6,5.1
		c0,0.4-0.3,1-0.9,1.8c-0.6,2.2-0.9,3.5-0.9,3.9c0.9,4.7,1.8,7,2.8,7c0.2,0.6,0.5,0.9,0.7,0.9c0-0.2,0.1-0.3,0.3-0.3
		c1.1,1.6,1.9,3.9,2.5,6.8c-0.1,0.3-0.2,0.5-0.2,0.7c0.1,0.3,0.2,0.5,0.2,0.7h-0.2c0.7,3.1,1.5,4.7,2.6,4.7c0.2,0.3,1,0.8,2.6,1.4
		c1.7-0.4,2.6-0.8,2.6-1.1v-1.2c0-0.2-0.1-0.3-0.3-0.3l0.7-3.9V131c-0.7,0-1.3-0.3-1.8-0.9l-0.5,0.2c0-0.3-0.5-0.8-1.6-1.6v-0.7
		c0.4-0.8,1.2-1.2,2.3-1.2c3.2,1.4,4.9,2.5,4.9,3.5c0.2,0,0.4,0.9,0.5,2.6l-0.3,1.2c0.7,0.7,1.6,1.1,2.6,1.2v-0.5h0.7l0.7,0.5h1.2
		c0.1,0.6,0.6,0.9,1.6,0.9h0.2l0.5-0.3c0,0.4,0.5,1.1,1.4,1.9c0.6,1.8,1.1,3.5,1.4,5.1c-0.2,1.2-0.4,2-0.7,2.5l0.3,0.5
		c0,0.2-0.2,0.7-0.5,1.4c0.1,0.3,0.2,0.6,0.2,0.9c-0.2,0-0.6,1.6-1.2,4.7c-0.2,0-0.5,1.1-0.9,3.2c0,1.8,0.6,4.3,1.9,7.2
		c0.8,0.3,1.3,0.5,1.6,0.5c0.6-0.7,1-1.6,1.2-2.6c0.5-0.1,0.7-0.6,0.7-1.6c0-2.8-0.2-4.6-0.7-5.6c0-0.1,0.1-0.2,0.3-0.2
		c-0.3-1.2-0.5-2.5-0.5-3.9v-0.5c1.4-5,2.8-7.5,4.2-7.5v-0.2h0.9c1.2,0,2,0.5,2.4,1.4c0.6,0.5,1.4,1.1,2.6,1.6
		c0.6-0.3,0.9-0.8,0.9-1.6v-0.2l-0.5-0.7c1.3-1.8,2.3-3.9,3-6.3c0.7,0,1.6-2.5,2.8-7.4l-0.5-0.3l0.3-0.5v-0.9c0-0.9-0.9-2.9-2.8-6.1
		c-1.7,0-2.9-0.9-3.7-2.8c0.3-0.2,1-0.3,2.1-0.5c0.3,0.1,0.5,0.2,0.7,0.2c1.2-0.8,2.4-1.7,3.5-2.8c0,0.1,0.1,0.2,0.3,0.2
		c0-0.2,0.5-0.5,1.6-0.7c0.3,0.4,0.6,1.2,0.9,2.3h0.2v0.3c-0.9,1.1-1.4,2.1-1.6,3c0.9,0.2,1.5,0.5,2.1,0.9h0.3
		c0-0.3,0.5-0.7,1.4-1.2c0.5-3.2,1.1-4.9,1.6-4.9c0-0.3,0.4-0.5,1.2-0.5c0.7,0.1,1.1,0.5,1.4,1.1l-0.3,2.8c0.8,1.4,1.5,2.1,2.1,2.1
		c0.7,0,1.2,0.1,1.4,0.2v-0.2l1.4,0.5c2-0.8,3-2,3-3.7c-0.4,0-1-1-1.9-3l-2.1-4.7c0.6-0.4,1.5-0.7,2.6-0.7c1.8,1.7,3,3.7,3.7,5.8
		c0.9,0.6,1.7,2.4,2.4,5.4v2.1c0,0.4-0.1,0.7-0.3,1l0.3,0.5c-0.2,0.3-0.3,0.6-0.3,0.9c0.2,0.3,0.3,0.5,0.3,0.7
		c-0.5,0-0.7,0.5-0.7,1.6v0.5c0,0.4,0.1,0.7,0.2,0.9c-0.1,0.3-0.2,0.6-0.2,1c0,1.2,0.5,2.1,1.6,2.6c0.1,0,0.4,0.3,0.7,0.9l0.5-0.3
		h0.3c0,0.3,0.4,0.7,1.2,1.2v0.7c0,0.1-0.1,0.2-0.3,0.2l0.5,1.4h-0.2c0.2,0.3,0.3,1.1,0.5,2.4l-0.5,0.2l0.2,1.2v1.2
		c0,0.3-0.1,0.6-0.2,0.9c0.9,4.5,1.9,6.7,3.2,6.7c0,0.2,0.5,0.6,1.4,1.2c0,0.2,0.9,0.3,2.6,0.5l1-0.9v-4.2c0.5-1.2,1.2-2.1,2.1-2.8
		c0-0.4,0.6-1.1,1.9-2.1c0-1.1,0.9-2.2,2.6-3.5c0.6,0,1.2,0.5,1.8,1.4c-0.1,0.3-0.2,0.6-0.2,0.9h0.2l-0.9,2.1
		c0.1,0.3,0.2,0.6,0.2,0.9v0.3l-0.2,0.5c0.1,0,0.2,0.1,0.2,0.3h-0.2c0.1,0.6,0.3,0.9,0.5,0.9l-0.3,0.5v0.2c0,0.5,0.1,0.7,0.3,0.7
		l-0.9,7.7l0.2,0.5c0,0.1-0.1,0.2-0.2,0.2l0.2,1.2c-0.3,5.2-0.7,8.3-1.1,9.3c0,2.3,1.1,3.6,3.2,3.9h0.3c0.5,0,1.4-1.5,2.6-4.4
		c0.5,0,0.9-0.9,1.1-2.6v-1.9c0-2.1-0.5-3.5-1.4-4.4l-1.8-5.3h0.2c-0.8-3.1-1.1-4.9-1.1-5.6h0.2l-0.2-0.5v-1.9
		c0-0.4,0.2-1.1,0.5-2.1h0.5c0.1,0,0.2,0.1,0.2,0.3l0.5-0.3h0.5c1.1,0,1.6,1.1,1.6,3.3v0.3c0.6-0.4,1.6-0.7,2.8-1
		c0-0.6,0.2-0.9,0.5-0.9l0.7,0.5h1.1c1.3-2.1,1.9-3.4,1.9-3.9v-0.2c0-0.5-0.2-1.1-0.5-1.9c0.2,0,0.3-0.1,0.3-0.2
		c-0.3,0-0.8-0.8-1.4-2.4c0.1-0.6,1-1.2,2.6-1.8l0.2-0.5c1.1,0.2,2,0.7,2.8,1.4c0.4-0.5,0.6-1.2,0.7-2.1l-0.2-0.9l0.2-1.2
		c-0.1-0.3-0.2-0.6-0.2-0.9c0.1,0,0.4-0.3,0.7-0.9l-0.2-0.5v-0.3c0-0.1,0.1-0.2,0.2-0.2c0-2.4-1.9-6.5-5.8-12.6
		c-2.6-6.8-4.5-10.3-5.8-10.3c-0.8-0.5-1.4-0.7-1.8-0.7h-0.9c0-0.4-0.3-0.7-0.9-0.9c-0.6-0.8-1-1.2-1.2-1.2c0,0.2-0.1,0.3-0.2,0.3
		c0-0.5-0.4-1.2-1.2-2.3l-0.3-2.8c0-0.5,0.5-0.8,1.6-0.9c0.5,0,1.6,1.5,3.3,4.4c0.6,0.2,1.2,0.3,1.6,0.3c0.4-1.1,0.7-1.6,1-1.6
		l-0.3-0.9l0.3-1.2h-0.3l0.3-0.5v-2.1c-0.4-1.9-1.4-4.3-3-7c-1.5-1.2-2.8-3.1-4-5.8c-2.9-5-4.4-9-4.4-12.1c-0.1,0-0.2-0.1-0.2-0.2
		l0.2-1.4v-0.3c0-0.2-0.1-0.3-0.2-0.3l0.2-0.5v-0.7c0-0.2-0.1-0.3-0.2-0.3c0.1-0.3,0.2-0.5,0.2-0.7c-0.3-0.5-0.5-1-0.5-1.4
		c0.3,0,0.5-0.2,0.5-0.5v-1.1c0-0.8-1-3.8-3-9.1c-0.1,0-0.2-0.1-0.2-0.2v-0.3l0.2-0.5c-0.2,0-1-1.8-2.3-5.3
		c-0.5-0.6-0.7-1.2-0.7-1.8c-0.1,0-0.5-0.9-1.2-2.6c0.8-0.9,1.2-1.5,1.2-1.6c1.1,0,2.3,0.9,3.7,2.6c0.3,0.4,0.6,0.7,0.7,0.7h0.3
		c0.6,0,1.2-0.3,1.6-0.9l-0.3-0.5c0.3-0.5,0.5-1.2,0.5-2.1c-0.1-0.5-0.2-0.9-0.2-0.9l0.2-0.5l-1.6-6.3c-0.2,0-0.7-1-1.6-3
		c-0.8-1.1-1.4-1.6-1.9-1.6c-0.7-1-1.1-1.4-1.4-1.4l-0.5,0.3c-2.5-0.8-4.3-2.1-5.3-3.9l-1.4-1.6l-2.1-0.3c-2,0.6-3,1.2-3,1.6
		c-0.8-0.1-1.1-0.3-1.1-0.5c-0.2,0.2-1.4,0.3-3.7,0.5c-2.6-1.4-4.7-2.4-6.3-2.8c0-0.2-0.4-0.4-1.1-0.7l-1.4,0.3l-1.1-0.3v0.3
		c-0.3-0.2-0.5-0.3-0.7-0.3C175.6,17.2,174.8,17.5,174.8,17.8z M156.4,85.1h0.3c0.2,0.2,0.6,1.1,1.1,2.8c0.2,0,0.3,0.1,0.3,0.2h-0.3
		c0.6,2.6,1.2,4.1,1.9,4.5c0.9,1.4,1.4,2.6,1.4,3.5c0,0.4-0.2,1.1-0.5,1.8l0.2,0.5c0,0.9-0.7,1.8-2.1,2.8c-0.3,0.8-0.7,1.1-1.1,1.1
		c-1.7,0.4-2.6,0.6-2.6,0.7l-0.5-0.2c-0.2,0-0.3,0.1-0.3,0.2c-1.7-0.4-2.9-1.1-3.5-2.3c-0.3-1.1-0.5-2-0.5-2.6l0.5-0.3h0.7
		c0.6,0,1.2,0.4,1.8,1.2c0.3,0.1,0.6,0.2,0.9,0.2h0.5c0.5-0.1,1.1-1,1.9-2.6l-0.3-0.5c0-0.1,0.1-0.6,0.3-1.4c-1-4.6-1.4-7.4-1.4-8.4
		C155.8,85.5,156.2,85.1,156.4,85.1z M174.5,52.7c0.9,0,1.6,1.6,2.4,4.9h0.5v0.9c0,1-0.2,2.5-0.7,4.7c0,0.5,0.5,1.6,1.6,3.5
		c0,0.4,0.6,1.1,1.8,1.8c0.1,0.3,0.2,0.5,0.5,0.5c0.3,0,1-0.7,2.1-2.1h0.3v-0.7c0-0.4,0.1-0.7,0.2-0.9c-0.1-0.5-0.4-2-0.7-4.7
		c1.8-1.7,2.9-2.6,3.2-2.6c0,0.9,0.2,1.9,0.7,3.2h-0.3c0.3,0.8,0.5,1.3,0.5,1.6l-0.2,0.5l1.1,3.3c0,0.1,0.2,0.2,0.7,0.2v0.3
		l-0.2,0.5c0.6,0.3,1.1,0.5,1.6,0.5c3.6-3,5.4-4.6,5.4-4.7v-1.6c0-1,0.4-1.8,1.1-2.3c1.2,0,2,1.2,2.4,3.7l-0.3,0.5l0.3,0.5l-0.3,0.5
		c0.2,0.5,0.3,0.7,0.5,0.7l-0.5,1.8l0.3,1.4v1.4c0,0.7-0.2,1.3-0.5,1.9c0,0.1,0.1,0.2,0.2,0.2l-0.7,3v3c0,0.7,0.5,1.4,1.4,1.9
		c0.3-0.2,1-0.3,2.1-0.5c0,0.2,0.1,0.3,0.2,0.3c0-0.3,0.5-1.2,1.4-2.6v-0.5c0.8,0,1.3,1,1.6,3h0.3c0,1.3-1.2,2.6-3.7,3.9
		c0,0.4-0.6,0.6-1.8,0.7c-2.5,0-4-1.9-4.7-5.8c-0.1,0-0.3-0.7-0.7-2.1c0.1,0,0.4-0.3,0.7-0.9c-0.1-1.1-0.3-1.6-0.5-1.6l0.3-0.5V73
		c-0.8,0.5-1.2,1.2-1.2,2.1h-0.3l0.3,0.5c-0.6,0.5-0.9,2.1-0.9,4.9c0.9,1.2,1.4,2.2,1.4,3.2c-1.2,1.1-2.1,1.6-2.6,1.6v0.3l-0.5-0.3
		h-0.3c-1.1,0-2.1,1.1-3,3.3c-0.4,0-1,0.5-1.8,1.6c-0.5,0.5-1.2,0.9-2.1,1.2l-0.5-0.2l-0.5,0.2v-0.2c-0.3,0.1-0.5,0.2-0.7,0.2
		c-1.7-0.2-3.2-0.9-4.4-2.3v-0.5l-0.7,0.5l-0.7-0.5l-0.5,0.2v-0.2l-0.5,0.2h-0.3c-0.3,0-0.5-0.2-0.5-0.7l-0.5,0.3h-0.9l-0.5-1.6
		v-1.1c1.4-1.7,2.1-2.8,2.1-3.3l-0.3-1.2l0.5-0.2c-0.2-1.9-0.8-2.8-1.6-2.8c-1.2,0-2.2,0.5-3.2,1.4h-0.7c-0.8,0-1.4-0.4-1.8-1.1
		v-0.7l0.2-0.5c-0.1,0-0.2-0.1-0.2-0.2c1.2-1.5,2.3-2.3,3.2-2.4v0.3c1.5,0,2.4-1.1,2.8-3.3c0-0.6-0.4-2.2-1.2-4.7
		c0-0.8-0.1-1.1-0.2-1.1c0.4-0.6,0.9-2.4,1.4-5.4c-0.2-0.2-0.3-0.6-0.3-1.2c0.5,0,0.7-0.2,0.7-0.5c-0.3,0-0.5-0.2-0.5-0.5v-0.5h0.7
		C174,55.4,174.2,53.7,174.5,52.7z"/>
	<path class="st1" d="M347,9.4h0.2c0.2,0,0.3,0.1,0.3,0.2l0.5-0.2h0.5c0.2,0,0.3,0.1,0.3,0.2l0.5-0.2l5.6,2.3l3.2-0.2
		c0.3,0,0.8,0.2,1.4,0.5v-0.3c0.1,0,0.2,0.1,0.2,0.3l0.9-0.3c4,0.6,7.1,1.8,9.3,3.5c4.3,2.7,6.5,5.5,6.5,8.2v0.7
		c0,0.2-0.1,0.3-0.3,0.3l0.3,0.5c-0.2,6-0.8,9.1-1.6,9.1c0,0.5-0.1,0.9-0.2,1.1c0.5,3.1,0.9,4.8,1.4,5.1c0.9,2.6,2.2,7.1,3.7,13.5
		c0.2,0,0.6,1.1,1.1,3.2c-0.3,3.2-0.7,5.7-1.1,7.4c-0.3,0.1-0.9,1.4-1.9,3.7l-0.9,0.7c0.2,1.7,0.5,3.1,0.9,4.4
		c-0.3,1.2-0.5,1.9-0.5,2.3c0.5,1.4,0.7,3.1,0.7,5.1v0.5c-0.3,2.3-0.5,3.5-0.5,3.7v2.3c0,0.2,0.1,0.3,0.2,0.3c0,0.2-0.1,0.3-0.2,0.3
		c0,0.5,0.9,2.9,2.8,7.2c0.6,2.3,0.9,4.2,0.9,5.8v1.8c0,0.2,0.1,0.3,0.3,0.3c-0.2,1.1-0.7,2.4-1.6,3.9l0.3,1.6
		c-0.3,2.1-0.5,3.4-0.5,3.9v1.8c0,0.2,0.1,0.3,0.2,0.3l-0.2,0.5c1.1,2,1.7,3.8,1.8,5.3c-0.2,0.3-0.3,0.6-0.3,0.9v0.3
		c0.5,0,0.7,0.2,0.7,0.5v0.3l-0.9,5.8c-0.5,0.5-1,1.8-1.4,3.7c-1.6,1-2.8,3-3.5,6.3v0.3l0.3,2.1c0,2.2-1.5,3.9-4.4,5.1
		c-1,0-1.7,0.9-2.1,2.8v2.1l0.9,3.3c-0.3,0.6-0.5,1.1-0.5,1.6l0.2,0.9c-0.4,0.8-0.8,2.5-1.1,5.1c-1.4,2.3-3.1,3.8-5.1,4.7
		c-0.1,0.3-1,0.9-2.6,1.8l-0.5-0.2h-0.3c-0.1,0-0.2,0.1-0.2,0.2c-2.6-0.6-4.2-1.3-4.7-1.8c-1.3-0.6-2.5-2.4-3.5-5.6
		c-1-5.1-1.8-7.7-2.6-7.7l-1.4-0.2c-0.1,0-0.6,0.1-1.4,0.2c-0.3-0.1-0.5-0.2-0.7-0.2v0.2c-2.1-0.7-3.4-1.2-3.9-1.6h-1.6
		c-0.2,0-0.3,0.1-0.3,0.2l-0.5-0.2c-1.6,1.4-3,2.1-4.2,2.1c0-0.1-0.1-0.2-0.2-0.2v0.2c-2.3-0.8-4.4-2.2-6.3-4.2
		c-1.1-1.4-2.3-3.3-3.5-5.6c-1.1-2.1-1.9-4.4-2.3-6.8c0.3,0,0.5-2.3,0.7-7l-2.1-1.2c-0.3,0.2-0.5,0.3-0.7,0.3c0-0.3-0.2-0.5-0.5-0.5
		h-0.3c-0.1,0-0.2,0.1-0.2,0.2c-0.7-0.4-1.2-0.7-1.4-0.7l-0.5,0.2h-0.7c-2.2,3.6-4.7,5.3-7.4,5.3V133l-0.5,0.2
		c-0.3,0-0.7-0.1-0.9-0.2c-0.3,0.1-0.6,0.2-0.9,0.2h-0.5l-0.5-0.2v0.2l-6-2.1c-0.6,0.7-1.2,2.2-1.6,4.6c0.2,0,0.3,0.1,0.3,0.3
		c-0.3,0-0.5,0.2-0.5,0.5v1.2c0,0.1,0.1,0.2,0.2,0.2c0,0.2-0.1,0.3-0.2,0.3c0.3,1.3,0.5,2.5,0.5,3.5l-0.3,0.9
		c0.3,0.6,0.5,1.2,0.5,1.8v0.7c0,0.3-0.1,0.6-0.2,0.9l0.5,1.9c-0.3,0.5-0.5,0.9-0.5,1.1l0.2,1.6c-0.4,2.2-1.1,4.4-1.8,6.8
		c-1.4,4.6-3.1,7-5.1,7c-0.5,1.7-1.8,2.6-3.9,2.6l-1.4,0.2c-2.3-0.3-3.9-0.6-4.7-0.9c0,0.2-0.1,0.3-0.3,0.3c0-0.2-1.3-1.6-3.9-4.2
		c-2.8-4.8-4.2-8.5-4.2-10.9c-0.3,0-0.8-0.9-1.4-2.8c-0.2,0-0.6-0.5-1.4-1.4l-3-1.4h-0.7c0-0.4-0.6-1-1.8-1.6
		c-1.4-1.4-2.5-2.7-3.3-3.9c-0.6-0.3-0.9-0.5-0.9-0.7l-0.5,0.3c-0.1,0-0.6-0.1-1.4-0.3c-0.2,0-0.3,0.1-0.3,0.3c-2.7,0-5-1-6.7-3
		c-0.6,0-1.3-0.9-1.9-2.6c-0.3,0-0.5-0.1-0.5-0.3l0.3-0.9c-0.3-0.4-0.6-2-0.9-4.7c0.1-0.9,0.2-1.5,0.2-1.8c-0.3-0.6-0.5-1.2-0.5-1.6
		h0.3c0-0.2-0.1-0.3-0.3-0.3c0-1.2,0.4-3.7,1.2-7.4c0.8-6.4,1.4-9.5,1.8-9.5v-0.5c0-1-0.1-2.6-0.3-4.7c-0.3,0-0.5-0.1-0.5-0.2
		c0-0.2,0.1-0.3,0.3-0.3c-0.3-2.6-0.6-3.9-0.9-3.9l0.2-0.5c-0.3-1.2-0.5-2.2-0.5-2.8h0.3l-0.7-3.5h0.3c0-0.1-0.1-0.2-0.3-0.2
		c0.7-3.6,2-7.7,3.9-12.1c-1.5-3.3-2.3-6.3-2.3-8.9c0.9-4.9,1.6-9.4,2.1-13.7c0-1.2-0.9-3.8-2.8-7.9c-0.3-2.2-0.6-3.6-0.9-4.2
		l0.3-1.2H251c0.2-0.3,0.3-1,0.5-2.3c-0.1-0.3-0.2-0.5-0.2-0.7c0.4-1.8,0.9-3.2,1.4-4.2c-0.2-0.3-0.3-0.5-0.3-0.7
		c2-6.2,3-9.6,3-10.5l1-3.5c0-3,2.4-5.1,7.2-6.3l10.5-2.1c0-0.2,2.1-0.8,6.3-1.6l0.5-0.5c0.3,0.2,0.5,0.3,0.7,0.3v-0.3L282,11
		l1.8-0.7c0.3,0.2,0.6,0.3,1,0.3c0-0.3,0.5-0.5,1.6-0.7c0.9,0,2.9,0.7,6,2.1c0.3,0.1,0.7,0.2,1.2,0.2h1.6l1.4-0.2
		c0.4,0.3,2.3,0.6,5.6,0.9c1.4,1.2,2.1,1.9,2.1,2.1c0,0.1,1.1,1.6,3.3,4.4c0-0.1,0.1-0.2,0.2-0.2c0.6,0,1.3,1.9,2.1,5.8
		c0,0.2,0.1,0.3,0.2,0.3l-0.2,0.5v1.8c-0.6,1.7-0.9,2.6-0.9,2.8v0.5c0,1.4,0.8,2.5,2.3,3.2c0,0.2,0.5,0.6,1.4,1.2
		c2.3-2.6,4.2-4.3,5.6-4.9c0-0.3,0.5-0.8,1.4-1.4c1,0,1.9-2.7,2.8-8.2c0-0.1-0.1-0.4-0.2-0.7l2.8-4.7c0.2,0,0.8-0.5,1.6-1.4
		c1.9-0.8,3.2-1.6,3.9-2.4l0.5,0.3c0.1-0.3,0.2-0.5,0.5-0.5l0.5,0.2c0.3-0.1,1.3-0.4,2.8-0.7l0.5,0.2c0.8-0.1,1.2-0.3,1.2-0.5
		l1.1,0.5l0.5-0.2c0.7,0.3,1.9,0.5,3.7,0.7c1.4-0.4,2.7-1.1,3.7-1.8C346.2,9.9,346.6,9.7,347,9.4z M284.6,18.7v-0.3
		c-0.8,0.2-1.2,0.3-1.2,0.5c-0.1,0-0.2-0.1-0.2-0.2c-0.5,0-3.2,1-8.2,3h-2.1c-0.2,0-0.3-0.1-0.3-0.3l-0.5,0.3l-0.5-0.3
		c-0.8,0.2-1.1,0.3-1.1,0.5l-0.5-0.2h-0.5l-0.7,0.5c0-0.3-0.9-0.6-2.6-0.7c-2.9,0-4.4,0.5-4.4,1.6v0.2l0.2,0.5
		c0,1.8-0.8,4.9-2.3,9.1l-3.3,10.7h0.3l-0.3,0.5l0.3,0.5c-0.2,0.3-0.3,0.5-0.3,0.7c0.2,0,0.5,0.9,0.9,2.6c0.8,1.6,1.3,2.5,1.6,2.8
		c0.7,0,1.6-0.9,2.6-2.6c1.1-0.7,1.6-1.2,1.6-1.4l0.5,0.3h0.5l0.5-0.3l0.5,1.6v0.9c-0.9,1.2-1.5,2.3-1.6,3.3c-0.1,0-0.6,0.5-1.4,1.6
		c0.3,2.7,0.8,5.1,1.4,7.2l-0.2,0.5c0,0.1,0.1,0.2,0.2,0.2l-0.7,3.5l0.2,0.5c-0.2,0.5-0.7,1.8-1.4,3.9c-0.4,0-0.7,0.7-0.9,2.1
		c-0.3,0-0.5,0.3-0.5,0.9c0.1,0,0.2,0.1,0.2,0.3h-0.2c0,0.2,0.1,0.3,0.2,0.3l-0.2,2.3c0,1.2,0.6,2.6,1.8,4.4
		c0.2,0.3,0.3,0.6,0.3,0.9v0.5c0,0.9-1.2,3.3-3.5,7c0,0.2-0.3,1.5-1,3.9v0.7c0,0.1,0.1,0.2,0.3,0.2l-0.3,0.5c0,0.2,0.1,0.4,0.3,0.7
		L258,96v0.5c0.1,0.8,0.2,1.2,0.5,1.2l-0.2,0.5v0.5c0,0.2,0.2,0.4,0.7,0.7l-0.3,0.5v0.5c0,0.9,0.5,2.1,1.4,3.7l0.5,2.1v0.5
		c0,0.2-0.1,0.3-0.2,0.3l0.2,0.5l-0.2,1.6h0.2c-0.4,3.4-1.3,6.9-2.6,10.5c-0.9,3.2-1.4,5.2-1.4,6.1c0.4,4.5,1,6.8,1.8,6.8
		c0-0.3,0.8-0.8,2.4-1.6h0.2c0.2,0,0.3,0.1,0.3,0.3l0.5-0.3c2.8,0.2,4.2,0.9,4.2,2.1c0.3,0.6,0.8,1.2,1.6,1.6c0,1,0.7,2.4,2.1,4.4
		c0,0.6,0.5,1,1.6,1.2h0.7v0.5h0.5c0.4-0.5,1.3-0.7,2.6-0.7c0-0.1-0.8-1.3-2.4-3.5c0-0.2-0.2-0.5-0.5-0.9c0.3-0.8,0.8-1.2,1.4-1.2
		l1.1,0.3l0.3-0.5c1.3,0,2.3,1,3,3l2.8,3c1,1.9,1.4,3.1,1.4,3.5v1.8c0,0.8,0.2,1.7,0.5,2.8c-0.8,0-1.2,1.5-1.2,4.4
		c0.9,3.5,1.7,5.4,2.6,5.8c0,0.5,1.1,1.4,3.2,2.6v0.3h0.3c1.6,0,3.2-1.8,4.7-5.4c0.4-1.5,0.7-2.6,0.7-3.5l-0.5-0.2l0.3-1.2l-1.4-6.3
		c0.3-2.2,0.5-3.8,0.5-4.9h-0.3c0.3-0.5,0.5-0.9,0.5-1.2l-0.5-1.6h0.3c-0.3-0.6-0.5-1.2-0.5-1.9c0-0.1,0.1-0.2,0.2-0.2
		c-0.1-0.8-0.3-1.2-0.5-1.2c0-3.1,0.9-5.3,2.8-6.8c0.4-2.3,0.7-3.7,0.7-4.2c-0.3-3.9-0.8-7-1.4-9.3l0.3-0.5l-1-4.9
		c0.2-0.3,0.3-0.5,0.3-0.7c-0.5-1.4-0.7-2.3-0.7-2.6c0-0.1,0.1-1.1,0.3-3c-0.1-0.6-0.3-0.9-0.5-0.9l0.2-0.5c0-0.8-0.2-1.3-0.7-1.4
		h-0.3c-0.1,0-0.2,0.1-0.2,0.3l-0.5-0.3h-0.7c-0.8,1.6-1.2,3.2-1.2,4.7v0.5l-2.1,1.4c-0.5,0.3-1.2,0.5-1.8,0.5h-0.5
		c-1.7,0-3.5-1.4-5.6-4.2c-0.6-1.5-0.9-2.5-0.9-2.8v-0.9c0.3-1.7,0.9-2.6,1.8-2.6c1.7,1.8,2.6,3.3,2.8,4.5c0.4,0,0.7,0.4,0.7,1.1
		h0.5c1.9-2.1,2.8-3.5,2.8-4.4c0-1.1-0.2-1.6-0.5-1.6l0.7-4.7c-0.3,0-0.7-0.8-1.4-2.3c0.2-1.5,0.6-3.5,1.4-6v-0.3
		c0-0.9-0.4-1.8-1.1-2.8v-1.2c0.4-1.2,0.7-1.8,0.9-1.8c0.5,0,1.2,1.6,1.8,4.7c0,0.6,0.1,1.5,0.3,2.6c-0.2,2.3-0.3,3.8-0.5,4.7
		c2.5,3.5,4.9,5.7,7.2,6.7c1.5,0.6,2.6,1.9,3.3,3.9c0.2,0,0.4,0.2,0.7,0.7v1.2c-0.3,1.1-0.5,1.7-0.5,1.8l0.5,0.9
		c-0.3,1-0.5,1.5-0.5,1.6c0.9,2.9,2.2,4.4,3.7,4.4c2,1,3.5,2.6,4.4,4.9c-0.6,1.9-0.9,3.9-0.9,6.1c0,2.7,1.1,5.2,3.3,7.4h0.2
		c0.5,0,1.4-1.8,2.6-5.3c-0.3-1.7-0.5-3-0.5-3.7c0-0.7,0.5-1.3,1.4-1.8c0.2,0,0.3,0.1,0.3,0.2c0.9-0.1,1.4-0.3,1.4-0.5l0.5,0.3
		l1.2-0.3c0,0.2,0.4,0.5,1.2,0.7c0,0.2,0.4,0.6,1.1,1.1c0.5-1.3,1.1-3.7,1.9-7.4c1.9-1.2,3.3-3,4.2-5.3v-1.2c0-2.7-0.6-4.4-1.8-5.1
		v-1.4c0-0.2,0.5-0.6,1.6-1.2l0.5,0.3c0.2,0,0.3-0.1,0.3-0.3l0.5,0.3l0.5-0.3c1.2,1,1.9,2.4,2.3,4.2c0.4,2.2,0.8,3.2,1.4,3.2
		c0,0.6-0.2,1.7-0.5,3l1.2,5.1l-0.3,0.5c0.5,1.2,0.7,2,0.7,2.4c-0.2,0.6-0.3,1.2-0.3,1.6h0.3c-0.9,1.7-1.4,3.2-1.6,4.4
		c0,0.1,0.1,0.2,0.3,0.2l-0.3,1.6v0.3c1.5,2.2,2.6,3.7,3.3,4.4c2.2,1.4,3.2,2.5,3.2,3.3h0.5v0.2c-1.4,1.3-2.4,2.6-2.8,3.9
		c-0.2,0.3-0.4,0.5-0.7,0.5v1.2l-0.2,1.6l0.5,0.2l-0.3,0.5c1.4,4,2.6,6.2,3.5,6.6h0.5c0.3,0,0.8-0.6,1.4-1.9c0.6,0,1.3-0.6,2.1-1.8
		h0.2l0.5,0.2c0-0.4,0.4-0.7,1.2-0.9c0.3,0.2,0.6,0.3,0.9,0.3l0.9-0.5c2,0.5,3,1.3,3,2.3c0.4,1.4,0.8,2.2,1.2,2.4
		c0.8-1.1,1.4-1.6,1.8-1.6c0-0.3,0.4-0.9,1.2-1.9c-1.3-1.6-2.2-4.1-2.6-7.4c0-2.1,0.6-3.5,1.8-4.2h1.2l0.9,0.7l-0.2,1.6v1.2
		c0,0.1,0.1,0.2,0.2,0.2l-0.2,0.5l1.4,4.7c0,0.2,1.4,1.7,4.2,4.4c1.5,2.4,2.3,4.4,2.3,5.8c-0.3,0-0.8,1.6-1.4,4.7v0.2
		c0,0.5,0.1,0.9,0.2,1.2l-0.2,1.4v0.5c0,1.2,0.5,2.2,1.4,2.8c1,0,2-3.4,3-10.3c-0.2-3.5-0.4-5.7-0.7-6.5c0-2.1,1.5-3.8,4.4-5.1
		c0-0.1,0.2-0.4,0.7-0.7l0.5,0.3c0.5,0,0.9-1.3,1.1-3.9v-0.3c-0.4-1.1-0.8-1.6-1.1-1.6v-0.5c0.2,0,0.9-0.3,1.8-0.9l1.6,0.3
		c2.2-1.8,3.2-3.8,3.2-5.8c0.2,0,0.4-0.6,0.5-1.8c-0.9-5.4-1.9-9.1-3-11.2v-3.9c1.3-2.8,1.9-5.2,1.9-7c0-0.5-1.2-3-3.5-7.4
		c-0.6-2.3-1.2-6.8-1.8-13.5l0.5-5.4c-0.1-0.2-0.2-0.6-0.2-1.1c0.1,0,0.2-0.1,0.2-0.3c-0.1,0-0.2-0.1-0.2-0.3h0.2l-1.4-7l0.3-0.5
		v-0.2c0-0.2-0.8-1-2.4-2.4l0.5-1.6l0.5,0.3c0.2-0.3,0.3-0.5,0.3-0.7c1.6,0,3,0.5,4.2,1.4h0.2c0.3-1.3,0.5-3.1,0.7-5.6
		c-1.6-6.7-2.8-11.5-3.7-14.5c-0.3,0-0.7-1.5-1.2-4.4c-0.4-0.8-0.8-2.1-1.1-3.9c0-0.2,0.1-0.3,0.2-0.3l-0.2-1.6V31
		c0-1.8,0.5-3.8,1.6-6c0-3.6-1.2-5.3-3.5-5.3c-0.4,0-0.9-0.2-1.4-0.5c-2.1,0.1-3.4,0.4-3.9,0.7c-1.6-0.2-2.9-0.5-3.7-0.9l-3.7,0.7
		c-0.8-0.5-1.6-0.7-2.4-0.7c-0.2,0-0.9,0.7-2.1,2.1c-0.4,0-0.7,0.2-0.7,0.5l-0.5-0.3c-0.2,0-0.4,0.1-0.7,0.3l-1.4-0.3
		c-0.3,0.2-0.5,0.3-0.7,0.3l-0.2-0.5c-0.2,0-0.3,0.1-0.3,0.2c-1,0-1.9-0.4-2.8-1.1h-0.3c0,0.4-0.2,0.7-0.5,0.7
		c-0.6-0.8-1.5-1.1-2.8-1.1v0.2l-0.7-0.5h-0.3c-1.7,0-2.9,0.8-3.5,2.4c-0.8,0.9-1.4,2.4-1.8,4.4h-0.3c0.2,0.4,0.3,0.7,0.5,0.7
		c-0.5,4.8-1.1,7.2-1.8,7.2c-0.6,0.9-1,1.4-1.2,1.4c-0.3-0.1-0.5-0.2-0.7-0.2c-1.2,0.6-2.4,1.3-3.5,2.1c-1.4,0-2.3,0.9-2.6,2.6
		c-1.1,1.2-1.6,1.9-1.6,2.1c-1.2,2.6-2.2,4.5-3,5.6c-2.7,2.3-4.5,3.5-5.4,3.5h-0.5c-1.5-0.8-2.3-1.7-2.3-2.6V48c0-0.2,1-0.6,3-1.2
		c1.5-1.3,2.3-2.4,2.3-3.3c-4.6-2.8-8.1-6.4-10.5-10.7c-0.6-1-0.9-2.7-0.9-5.1v-1l0.2-1.4c-0.3-2.4-0.6-4.1-0.9-5.3h-1.4
		c-0.5,0-1.1,0.2-1.6,0.7v-0.2c-0.3,0.1-0.5,0.2-0.7,0.2V21c1.1,1.4,1.6,2.4,1.6,3h-0.2c-0.9,0.5-1.5,0.7-1.6,0.7
		c0-0.2-0.5-0.5-1.4-0.7c-0.1-0.3-1.3-0.9-3.5-1.6c-1.3-0.8-2.2-1.6-2.8-2.3c-0.3,0-0.7-0.3-1.1-0.9c-0.6,0-1-0.4-1-1.2
		C286.6,18,285.8,18.2,284.6,18.7z M269.6,34.1h1.2c0.2,0,0.6,1.2,1.4,3.5L272,38v0.7c0.3,0.3,0.5,0.8,0.5,1.4l0.5-0.2V41
		c0,1.3,0.2,2.3,0.7,3c-0.5,1.6-1,4.7-1.6,9.1v2.1l-0.7,1.2c0,0.8,0.2,1.2,0.7,1.2v0.2c0,0.4-0.1,0.7-0.3,1c0.2,0.3,0.3,0.5,0.3,0.7
		h0.9c0-0.4,0.8-1,2.3-1.8c0.8-1.9,1.3-3.1,1.6-3.5c0-0.2,0.1-0.3,0.3-0.3c1,0,1.7,0.9,2.1,2.8l0.5,0.2c-0.4,2.4-0.9,3.7-1.4,3.9
		v-0.5H278c0,0.3-0.2,0.9-0.5,1.6h0.2l0.5-0.2v0.5c-1.5,1.8-2.6,2.8-3.5,2.8h-0.2c-3.4-0.7-5.1-1.8-5.1-3.2c-0.5,0-0.9-1.3-1.4-4
		c0.9-3,1.7-6.3,2.3-10v-0.2c-0.2-3.1-0.6-5.5-1.2-7c0.2-1.8,0.3-2.8,0.5-2.8c-0.3-0.6-0.5-1.5-0.5-2.6V35
		C269.5,34.6,269.6,34.3,269.6,34.1z M342.5,94.6c0.7,0,1.6,2.7,2.6,8.2v1.1c0,0.2,0.1,0.3,0.2,0.3c-0.1,1.4-0.3,2.1-0.5,2.1
		l0.3,0.5c0,0.9-0.5,2.8-1.4,5.6c0,0.4-0.4,1.7-1.1,3.7c0.2,1.9,0.7,2.8,1.6,2.8c1.2,0,2.7-1.3,4.5-3.9h0.7c1.1,0.7,1.6,1.8,1.6,3.5
		v0.9c0,0.4-0.5,1.3-1.4,2.6c-0.8,2.1-1.5,3.1-2.1,3.3l-0.3-0.5l-1.1,0.3c-0.5,0-1.5-0.6-2.8-1.8c-0.3,0.1-0.5,0.2-0.7,0.2
		c-1.9-2.5-2.8-5-2.8-7.4l2.1-8.2v-0.9c0.5,0,0.7-0.4,0.7-1.2v-0.2c0-0.2-0.1-0.3-0.3-0.3c0.3-0.8,0.5-1.3,0.5-1.6
		c-0.1-0.3-0.2-0.5-0.2-0.7c0.1,0,0.2-0.1,0.2-0.3h-0.2c0-0.1,0.1-0.2,0.2-0.2c-0.9-4.3-1.4-6.8-1.4-7.5L342.5,94.6z M356.7,33.4
		c0.5,0,1.1,2.5,1.6,7.4c0.3,0.1,0.5,0.2,0.7,0.2c0,0.3-0.2,0.5-0.5,0.5l0.2,0.5v0.5c-2.3,1.2-3.7,1.8-4.4,1.8h-0.5l-0.5-0.3v0.3
		c-0.6,0-1.5-0.8-2.8-2.3v-1.6l-0.3-1.2l0.7-0.5h0.2l1.4,1.2h0.5l0.7-0.5c0.3,0.1,0.5,0.2,0.7,0.2c0.4-0.8,0.9-1.2,1.4-1.2
		c-0.3-2.1-0.5-3.1-0.5-3.2C355.8,34.4,356.2,33.8,356.7,33.4z"/>
	<path class="st1" d="M445.1,10.3c0.6,0,1.5,0.1,2.6,0.3c0.2,0,0.3-0.1,0.3-0.3c1.9,0.2,3.3,0.5,4.4,0.9l0.5-0.2
		c1.9,1.1,4,1.6,6.3,1.6c2.5-0.2,3.8-0.6,3.9-1.2c0.1,0,0.2,0.1,0.2,0.2c3-0.9,5-1.4,6.1-1.4h0.5c0.1,0,0.2,0.1,0.2,0.3
		c0.2,0,0.3-0.1,0.3-0.3c3.1,0.5,5.4,0.9,6.7,1.4v-0.2c5.6,2.9,8.4,5.1,8.4,6.5c1.3,1.6,2.2,4.2,2.8,7.7c-0.4,2.7-1.3,5.9-2.6,9.5
		c0,0.3,0.4,2.1,1.2,5.3c0,1.2,0.1,2.3,0.3,3.3c-0.5,0.9-0.7,2.8-0.7,5.6c0,0.4,0.4,1.5,1.2,3.5l-0.3,0.5c0.3,0.6,0.5,1.2,0.5,1.8
		v0.5c0,0.3-0.1,0.6-0.2,0.9c0.1,0.3,0.2,0.5,0.2,0.7c-0.9,3.9-1.8,6-2.8,6.5c-1.4,1-2.1,1.6-2.1,1.9c-0.3,0-1.1,0.5-2.4,1.6
		c-0.5,0.4-1.3,0.7-2.5,0.9c-0.3-0.2-0.5-0.3-0.7-0.3v0.3c-2.3-0.3-4-1-5.1-2.1c-1.5-1.5-2.9-3.4-3.9-5.8l-1.2-0.2
		c-0.2,0.1-0.6,0.2-1.4,0.2c0-0.1-0.1-0.2-0.3-0.2c-0.6,0-1.8-0.2-3.5-0.5c0,0.1-0.1,0.2-0.2,0.2c0-0.3-0.2-0.5-0.5-0.5l-1,0.3
		c-0.7-0.3-1.7-0.6-3-0.9c-1.5,0.4-2.3,0.8-2.3,1.1c-0.5,0-1.6,0.2-3.3,0.5v0.3c0.2,0.4,1.2,1,3,1.6c0,0.3,0.5,0.5,1.6,0.5h0.3
		l1.4-0.3l0.5,0.3c2.5-0.8,4.8-1.3,7-1.4c0.6,0,1.6,0.9,3,2.8c1.4,1.8,2.7,5.5,4,10.9v0.7c-0.2,1.9-0.3,2.9-0.3,3l0.3,0.5l-1.2,3.9
		c0,0.2,0.1,0.4,0.2,0.7l-0.7,2.8h0.2l-0.2,0.5c0,0.4,0.5,2.2,1.4,5.1l0.7,3.7c-1.1,4.3-2.6,7.1-4.7,8.4c-0.2,0-0.3-0.1-0.3-0.2
		l-3.5,0.5c0-0.2-0.1-0.3-0.2-0.3v0.5H464c-1-0.8-1.6-1.1-1.8-1.2c0,0.3-0.2,0.5-0.5,0.5c0-0.5-0.2-0.7-0.5-0.7l-0.5,0.3
		c0-0.2-0.2-0.5-0.7-0.7l-1.2,0.3v-0.3l-0.5,0.3l-0.5-0.3c-1.6,0.9-2.6,1.4-2.8,1.4v0.5l6,1.6c0.9,0.2,1.4,0.3,1.4,0.5
		c3.1-0.2,4.7-0.7,4.7-1.4l2.1-0.7c0,0.1,0.1,0.2,0.2,0.2c0.5-1,2.3-1.8,5.4-2.6c1.1-0.7,2.5-1.5,4.4-2.3c0.3,0.1,0.5,0.2,0.7,0.2
		c1.3-0.3,1.9-0.6,1.9-0.9h1.4c0.3,0,0.5-0.2,0.5-0.7c0.8,0,1.2,0.2,1.2,0.5c1.8-0.4,2.9-0.8,3.2-1.2c0,0.2,0.3,0.5,0.9,0.7
		c0.3-0.2,0.5-0.3,0.7-0.3c0,0.3,1.1,0.7,3.3,1.2c2.5,1.3,4.1,2.4,4.9,3.5c0.6,1.4,1.3,2.1,2.1,2.1c0,0.4,0.3,1.3,0.9,2.6
		c0.9,2.6,1.4,4.3,1.4,5.1c-0.5,1.2-1.1,3.7-1.6,7.5c-0.4,0.3-1,1.7-1.6,3.9c0.1,0.3,0.2,0.5,0.2,0.7l-1.1,2.6l0.2,0.5l-1.2,7.9
		c0.2,2.1,0.5,3.7,1,4.7c0,0.1-0.1,0.2-0.3,0.2c0.5,3.7,0.8,7.4,0.9,11c-0.3,1.7-0.5,3.6-0.5,5.8v1.2l-0.2,0.5h0.2
		c-1.2,5.2-2.2,8.1-3,8.6c-2.1,2.5-4,3.7-5.8,3.7c-0.3-0.2-0.5-0.3-0.7-0.3v0.3c-2.1-0.6-3.9-1.8-5.3-3.5c-1-1.5-1.5-2.7-1.6-3.5
		h0.2c-0.5-5.1-1-7.6-1.4-7.6c0-0.4-0.6-0.8-1.8-1.2c0-0.1-0.2-0.4-0.7-0.7c-0.3,0.2-0.5,0.3-0.7,0.3c-2-0.4-3.4-1.2-4.2-2.4
		c0-0.3-0.5-0.9-1.6-1.8c-0.6,0-1.7,0.9-3,2.8c-0.6,0-1.1,1.2-1.4,3.5c0.3,1.4,0.9,3,1.8,4.9c-0.6,1.8-0.9,3.2-0.9,3.9
		c0.2,0,0.5,0.4,0.9,1.2c0,0.2-0.1,0.3-0.3,0.3c0.6,2,1,3.3,1,3.9h-0.3l0.3,0.5c-2,5.6-3.7,8.4-4.9,8.4l-0.5,0.5l-0.5-0.2h-0.7
		c-2,1.2-3.4,1.8-4.2,1.8c-2.8,0-5.1-1.3-7-3.9c-0.8,0-1.5-1.6-2.4-4.7c0-0.1,0.1-0.2,0.3-0.2l-0.3-0.5v-0.7l0.3-1.6h-0.3l0.3-0.5
		c0-0.6-0.1-0.9-0.3-0.9c0.3-4.9,0.7-7.7,1.2-8.4c-0.2-0.3-0.3-0.5-0.3-0.7h0.3l-0.3-0.5c0-0.4,0.2-1.3,0.5-2.6
		c-0.1-2.3-0.5-4.6-1.1-7c-2,0.8-3.1,1.1-3.5,1.1l-0.5-0.2h-1.6v-0.5h-1.2c-0.2,0-0.3-0.1-0.3-0.3c-0.1,0-0.2,0.1-0.2,0.3
		c-2.7-0.5-4.4-0.7-5.1-0.7h-0.5c-1.4,0.6-2.1,1-2.1,1.2l-0.5-0.3c-0.8,0.6-1.7,0.9-2.6,0.9h-0.7c-1.3,5.7-2.6,8.6-3.7,8.6
		c0,0.3-0.6,1-1.9,2.1h0.3c-0.8,1.4-2,2.1-3.7,2.1v0.3c-0.1,0-0.2-0.1-0.2-0.3c-1.2,0.3-1.8,0.5-1.9,0.5c-1.1-1.2-2.2-1.8-3.2-1.8
		c0-0.9-1-1.8-3-2.8c-0.7-1.8-1.4-2.8-2.1-2.8c-0.3-0.2-0.5-0.7-0.5-1.4h-0.9l-3.5,0.7c-1.6-0.5-2.9-1.2-3.7-2.1
		c-1.1,0-2.9-2.3-5.3-7c-0.7-2.6-1-5.3-1-7.9c0-2,0.6-5,1.9-9.1c0-0.5-0.5-1.7-1.4-3.7c-0.6-1.7-1-3.3-1-4.9c0-2.1,0.8-5.5,2.4-10.3
		v-1.4c0-0.5-0.8-3.3-2.4-8.4l0.3-0.5l-0.7-3.5l0.3-1.4v-0.5L396,95h0.3l-0.3-0.5v-0.7c1.1-3.6,1.6-6.1,1.6-7.4
		c0-1.6-0.9-4.3-2.8-7.9l-1.6-5.3c0.6-4.1,1.4-7.9,2.3-11.4v-0.5c0-1.7-0.2-3.3-0.7-4.6h0.2c-0.4-1.7-1.3-3.8-2.8-6
		c-0.5-1.2-0.7-2.1-0.7-2.6v-0.7c0-0.6,0.6-3.7,1.8-9.3l0.3-1.6c-0.9-3.5-1.4-5.9-1.4-7v-0.7c0-2.1,1.2-4.8,3.7-8.2
		c3.7-2.9,6-4.4,6.8-4.4c2.6-1.1,6.7-2.1,12.1-3l0.5,0.2c0.3-0.1,0.5-0.2,0.7-0.2c0,0.1,0.1,0.2,0.2,0.2l0.3-0.5
		c1.3,0.6,4.8,1.5,10.5,2.6h0.7c2.5,0,4.7-0.6,6.5-1.8c4.2-1.6,7.8-2.6,10.7-3C444.9,10.3,445,10.3,445.1,10.3z M434.4,21.2
		c0.2,0,0.7,0.2,1.6,0.7c0,0.8-0.6,1.2-1.8,1.4l-1.2-0.2c-0.9,0.1-1.4,0.3-1.4,0.5l-0.5-0.3h-1.4c-0.4,0-0.9,0.2-1.4,0.5l-0.5-0.2
		c-0.6,0.1-0.9,0.3-0.9,0.5l-2.6-0.5c-0.6,0.1-1.2,0.2-1.8,0.2c-3-0.9-4.6-1.4-4.9-1.4v-0.5h-0.5l-0.5,0.3c0-0.3-0.9-0.5-2.6-0.7
		c0-0.3-0.5-0.4-1.6-0.5h-1.9c-0.1,0-0.2-0.1-0.2-0.3L410,21h-2.1c-2.8,0.4-5.1,1.6-7,3.5c-0.9,0.7-1.8,1.9-2.6,3.7v2.1
		c0,0.9,0.6,2.8,1.8,5.8c0.2,2.2,0.3,3.3,0.5,3.3l-0.2,0.5l0.2,2.1c-0.6,1.5-1,2.8-1.2,3.7c1,3.7,2.3,5.6,4,5.6
		c0,0.2,0.1,0.3,0.2,0.3c0-0.2,0.1-0.3,0.3-0.3v0.3c1.2,0,1.9-0.9,2.1-2.6v-1.8c-0.4-3-0.8-4.5-1.2-4.5l0.2-0.5
		c0-0.1-0.1-0.2-0.2-0.2c0.2-0.8,0.5-2.4,0.9-4.7c0.5-1.5,0.9-2.4,1.2-2.6h0.2c0.3,0,0.5,0.2,0.5,0.7c0,0.7-0.2,1.4-0.5,2.1
		c0,2,0.3,3,0.9,3h0.3v1.2c1.2,2.8,1.8,5.3,1.8,7.4c0,2.4-0.5,3.9-1.6,4.5c-1.7,1.1-3.2,1.6-4.4,1.6c0.1,2.4,0.3,3.5,0.5,3.5
		c-1.1,2.9-1.6,4.5-1.6,4.9c-0.2,0-0.6,0.5-1.1,1.4l0.2,0.5c-0.1,0.9-0.3,1.4-0.5,1.4l0.3,0.5c-0.4,0.8-0.8,1.6-0.9,2.5l0.2,0.5
		l-0.2,0.9l0.2,1.4h-0.2l1.4,3.9c2.1,2.5,3.4,5.1,3.7,7.9c0,0.1,0.2,0.2,0.5,0.2c0,0.1,0.1,1.1,0.2,3c-0.3,0-0.6,1.1-0.9,3.3v3.2
		c-0.3,0.3-0.5,1.2-0.7,2.8h-0.2c0.1,0.3,0.2,0.5,0.2,0.7c-0.8,1.3-1.1,2.2-1.1,2.6c0,0.4,0.2,0.9,0.5,1.4h-0.3
		c0.2,0.8,0.4,1.1,0.7,1.1c0.2-0.9,0.9-1.4,2.1-1.4c1.4,0,2.1,0.9,2.1,2.6c-0.2,0-0.3,0.1-0.3,0.2h0.3l-0.3,0.5
		c0,0.3,0.1,0.6,0.3,0.9c-0.8,4.2-1.8,7.2-3,9.1l-1.9,6c0,0.6-0.2,1.4-0.7,2.1l0.2,1.6l-0.2,2.1c0.3,2,1,3,1.8,3
		c0,0.4,0.1,0.7,0.2,1l-0.2,0.5c0.1,0.3,0.2,0.5,0.2,0.7c-1.2,4.3-2,7.8-2.3,10.5c0.5,0,0.7,0.2,0.7,0.7l-0.3,0.5
		c0.9,2.5,2.4,4.4,4.4,5.6l1.4,0.3h0.2c0.3,0,0.8-1,1.4-3v-1.2c-0.3,0-1-1.2-1.8-3.5c0.1,0,0.8-1.2,1.8-3.5c0.9-0.9,2.1-1.6,3.5-2.1
		l0.2,0.5l0.5-0.2h0.3c0,0.4,0.3,0.7,0.9,0.7v0.3c-0.8,3.5-1.2,5.6-1.2,6.3c-0.1,0-0.2,0.1-0.2,0.3l0.5,1.4
		c-0.2,0.3-0.3,0.6-0.3,0.9v0.5c0.4,0,1.6,1.1,3.5,3.3c0,0.1-0.1,0.2-0.2,0.2c0,1.9,0.5,3.3,1.4,4.2h0.2c0.5,0,1.1-1.5,1.6-4.4v-1.6
		c2.2-3.1,3.8-5.2,4.7-6.1c1.4-0.3,3.1-0.5,5.1-0.7c0.3,0.8,2.1,1.3,5.3,1.4c0.4-0.3,1.6-0.7,3.7-1.2c0.6-0.8,1.3-1.4,1.8-1.6
		c0,0.2,0.1,0.3,0.3,0.3c0.4-0.8,1.9-2.1,4.4-3.9c0.6,0,1.4-0.2,2.4-0.7c0.9,0,1.4,0.6,1.4,1.8c0,0.2-1,1.2-3,3
		c0,0.5-0.3,0.7-0.9,0.7v0.2c0.6,0,0.9,0.2,0.9,0.5l3.7-1h1.2c0.5,0.5,1.6,1,3.3,1.4c0.2,0.8,0.6,1.1,1.1,1.1l-0.2,0.5v0.3
		c0.5,2,0.7,3.3,0.7,3.9v0.3c-0.6,1.8-1,3.7-1,5.8c0.5,2.8,0.7,4.8,0.7,5.8v2.8l0.5,0.7c-0.3,0.5-0.5,1-0.5,1.4v0.3
		c0,0.4,0.1,0.7,0.3,0.7l-0.5,4.2c0.6,3.2,1.4,4.9,2.4,4.9c1.4,0.2,2.1,0.3,2.3,0.3c1.1-1.2,1.6-2.2,1.6-2.8h-0.3
		c0.5-0.7,0.8-1.5,1-2.3c-0.1-1.5-1.1-3.5-2.8-6c0-0.3-0.1-0.5-0.2-0.5c0.4-0.9,0.7-2,0.7-3.5c0-0.7-0.5-1.8-1.4-3.5
		c-0.3-1.1-0.5-2-0.5-2.8v-0.2c0.5-2.4,0.9-5.1,1.2-8.2c0-0.2-0.1-0.3-0.3-0.3l0.3-1.2c-0.3-1.9-0.6-3.1-1-3.5v-1.1
		c0.1,0,0.6-0.1,1.4-0.3c1.8,0.3,2.8,0.8,2.8,1.6c0.4,0,0.6,0.5,0.7,1.6l-0.3,3.7l0.3,1.2h0.7c1.1-1.1,2.1-2.8,3-5.1
		c3.7-2.1,5.8-3.6,6.3-4.7c1.1-0.6,2-0.9,2.8-0.9h0.2c0.5,0.1,0.7,0.7,0.7,1.8c-1.1,1.2-1.6,2.2-1.6,3c2.2,1.4,3.2,3.6,3.2,6.6h0.3
		c0.6-0.8,1.9-1.3,3.7-1.6c2.5,0,3.7,1.6,3.7,4.9v2.4c-0.4,1.7-0.7,2.6-0.7,2.8c0.9,3.7,1.8,5.6,2.8,5.6c1,0,1.8-1.7,2.6-5.1v-2.1
		c0-0.1,0.1-0.2,0.3-0.2c0-0.2-0.1-0.3-0.3-0.3l0.3-2.3v-0.3c0-1.5-0.4-3.4-1.2-5.6l0.5-1.1c0-0.2-0.1-0.3-0.2-0.3l0.2-1.2v-2.1
		c0-0.4-0.2-0.9-0.5-1.4c0.2-0.3,0.3-0.5,0.3-0.7c-0.8-1.2-1.3-2.9-1.4-5.1c0.8-5,1.4-7.5,1.6-7.7c0-0.2-0.1-0.3-0.2-0.3l0.2-1.4
		c0-1.9-1.2-3.6-3.5-5.1c-0.6-0.7-0.9-1.4-0.9-2.1v-0.2c0-0.5,0.2-1.6,0.5-3.3c-0.2,0-0.3-0.1-0.3-0.2c0.5-0.6,1.1-1,1.6-1
		c1.2,0,2,0.7,2.4,2.1l-0.3,0.5v0.7c0,0.4,0.3,1.1,0.9,2.1h0.9c0-0.4,0.3-0.7,0.9-0.9c0.8-1,1.2-2.4,1.2-4.2
		c-0.3-0.5-0.5-0.9-0.5-1.2c0-0.1,0.1-0.2,0.3-0.2c-0.2-1.9-0.6-2.8-1.2-2.8c0-0.3-0.9-1.3-2.6-2.8v-0.3H491c-0.2,0-0.3,0.1-0.3,0.3
		l-3.5-1.2l-0.5,0.3l-0.9-0.5l-4.4,1.4c0-0.2-0.1-0.3-0.3-0.3c0,0.4-0.7,0.8-2.1,1.2c-0.3-0.2-0.5-0.3-0.7-0.3c0,0.3-0.7,0.6-2.1,1
		c-1.7,0.8-2.9,1.5-3.7,2.3c-3.1,1.4-4.8,2.1-5.1,2.1c-0.6,0.6-1.1,1-1.6,1.2c-0.1,0-0.2-0.1-0.2-0.3c-1.9,0.5-4.2,0.9-7,1.2
		l-0.5-0.3c-0.3,0.2-0.5,0.3-0.7,0.3l-1.4-0.7c0,0.2-0.1,0.3-0.3,0.3c0-0.2-0.9-0.6-2.8-1.2c-1.3-0.9-2.2-1.4-2.8-1.4
		c0,0.1-0.1,0.2-0.2,0.2c0-0.3-0.2-0.5-0.5-0.5h-0.7c-0.2,0-0.3,0.1-0.3,0.3c-0.5-0.3-0.9-0.5-1.1-0.5c-0.8,0.4-1.4,0.7-1.9,0.7
		c0-0.3-0.4-0.5-1.1-0.7c-1.4,1.2-2.5,2.7-3.3,4.6c0.4,0.9,0.8,2,1.2,3.5c0.2,0,0.5,0.3,0.9,0.9v1.1c0,0.4-0.5,0.7-1.6,1
		c-2.3-1.3-3.8-3.4-4.7-6.3c-0.1,0-0.2-0.1-0.2-0.3V115c0-1.6,1.2-4.2,3.5-7.9c0-0.5,0.1-1,0.3-1.6c0-0.3-1-1.9-3.1-4.7
		c0-0.4-0.1-1-0.2-1.8c0.1,0,0.2-0.1,0.2-0.2h-0.2c1-3,1.8-4.5,2.3-4.5c0.5-0.1,0.7-0.3,0.7-0.5c0.5,0,1.4,0.3,2.6,0.9v1.2
		c0,0.3,0.2,0.5,0.5,0.5l0.5-0.2c0,0.1,0.1,0.2,0.3,0.2c0-0.1,0.1-0.2,0.2-0.2v0.2c0.9-0.2,1.5-0.4,1.8-0.7h0.5
		c0.1,0,0.2,0.1,0.2,0.3c0.3-0.2,1-0.3,2.1-0.5l0.5,0.2c1.6-0.4,2.9-0.9,3.7-1.6c0.4,0,1.7-0.4,3.7-1.2c0.4,0,0.6-0.4,0.7-1.2h0.9
		c0.4,0,0.9,0.2,1.4,0.5c0-0.1,0.1-0.2,0.3-0.2c0.5,1.8,0.9,2.8,1.2,3c0.9,0.6,1.8,0.9,2.6,0.9h0.7c1.1-0.7,1.6-1.7,1.6-3l-0.3-0.5
		l0.3-0.5c0-1.2-0.9-4.2-2.8-9.1c0-0.3-0.2-0.5-0.5-0.5l0.3-1.2V81c0-0.3-0.1-0.6-0.3-0.9c0-1.3,0.5-2.4,1.4-3.2
		c0-0.5,0.3-1.2,0.9-2.1c0-2.1-0.5-4-1.6-5.8c0-0.8-0.4-1.1-1.2-1.1c-0.7,0-1.5,0.3-2.6,0.9c-0.3,0-1.5,0.4-3.5,1.1l-0.5-0.2
		c0,0.3-0.2,0.5-0.5,0.5h-0.5c0-0.3-1.1-0.7-3.3-1.2c-0.5-0.3-0.9-0.7-0.9-1.1c-0.3,0-0.5-0.1-0.5-0.3c-1.9,0.4-3,0.8-3.2,1.2
		l-1.2-0.3c-0.9,0-2.8,0.7-5.6,2.1c0-0.2-0.9-0.5-2.6-0.9c-0.2-1-1.1-2.3-2.6-3.9c0-0.6-0.1-0.9-0.2-0.9c0.3-2.2,0.8-3.9,1.6-5.1
		c0.6-1.3,0.9-2.5,0.9-3.5h0.3l-0.3-1.2v-2.1c0-1.2-0.5-1.8-1.4-1.8h-0.2c0,0.1-0.1,0.2-0.3,0.2c-2.2-1.5-3.2-2.8-3.2-3.7
		c-0.2,0-0.3-0.8-0.5-2.4c0.2-1.4,0.4-2.1,0.7-2.1h1.2c0-0.3,0.1-0.5,0.2-0.5c0.3,0,1.5,0.5,3.7,1.6c1.1-0.4,1.9-1.2,2.3-2.3
		c0-0.9,0.8-1.8,2.4-2.8v-0.2h0.5c0.2,0,0.4,0.4,0.7,1.1l-0.3,1.2v1.2c0,0.1,0.1,0.2,0.3,0.2c-0.3,0.9-0.5,1.7-0.5,2.6
		c0.2,0,0.3,0.1,0.3,0.3c-0.2,0-1.3,1.1-3.3,3.2l1.6,3h-0.2c0,0.2,0.3,0.6,0.9,1.2l1.6-0.3l1.6,0.3c0-0.2,0.1-0.3,0.3-0.3v0.3
		c1.5-0.4,2.7-1.1,3.7-2.1c0,0.2,0.1,0.3,0.2,0.3c0-0.3,1-0.6,3-0.9c0-0.3,1.3-0.5,3.9-0.7l1.6,0.7c0-0.2,0.1-0.3,0.3-0.3
		c0,0.2,0.4,0.6,1.1,1.2h0.3l0.5-0.3c0,1,0.9,1.7,2.6,2.1c0,0.2,0.1,0.3,0.2,0.3h0.7v0.2c1.9,0,3.4-2,4.4-6c1.4-0.9,2.2-1.5,2.4-1.8
		c1.3,0,2.3,0.5,3.2,1.6c0.3,0,0.9,1.5,1.9,4.6v0.3c-0.2,1.2-0.7,2.4-1.6,3.5c0,2.9,1,4.9,3,5.8c1.2,0,2.5-1.9,3.7-5.8v-2.1
		c0-1.3-0.9-5.1-2.6-11.2c0.3-2.2,0.6-3.5,0.9-3.7v-0.3c0-1.7-0.4-4.2-1.2-7.4h0.3l-0.3-0.5c0.9-3,1.5-4.5,1.8-4.5
		c0.3-0.1,0.6-0.8,1-2.1c0-2.9-1.3-4.8-4-5.6c-0.8,0.2-1.2,0.3-1.4,0.3l-0.9-0.3l-1.2,0.3c-0.3-0.2-0.5-0.3-0.7-0.3
		c0,0.3-0.2,0.5-0.5,0.5h-0.5c-0.3,0-0.6-0.1-0.9-0.3c-7.2,1.4-12.4,2.5-15.3,3.3h-1.2c0-0.8-1.9-1.5-5.8-2.1l-3.7-1.4l-1.2,0.3
		c-0.3,0-0.5-0.1-0.5-0.3c-1.4,0-3.1,0.5-5.3,1.4C436.9,19.6,435.7,20.1,434.4,21.2z M408.1,62.2c0.4,0,1,0.9,1.6,2.6
		c0.4,0,0.9,2,1.6,6c-0.8,4.1-1.2,6.7-1.2,7.6l-0.7,0.5c0-0.5-0.2-1.5-0.7-2.8v-3.2c0-0.4-0.4-0.7-1.2-0.7c0.3-1.2,0.5-1.9,0.5-2.4
		c-0.6-2-0.9-3.2-0.9-3.7v-0.7C407.5,63.3,407.8,62.2,408.1,62.2z M431.6,105.3h0.5c0,0.1,0.1,0.4,0.3,0.7c0,0.2-0.1,0.4-0.3,0.7
		c0.5,2.4,0.7,4.3,0.7,5.6l-0.3,0.5c0.2,0.4,0.5,1.2,0.7,2.6l-0.3,0.5c0.8,3.1,1.4,4.7,1.9,4.7l0.7,3v1.8l0.3,2.4
		c-0.4,0-0.7,0.7-0.9,2.1l0.2,0.5c-1.5,2.4-2.4,3.5-2.6,3.5h-2.8l-0.5-0.3c0,0.2-0.1,0.3-0.3,0.3c0-0.4-0.7-0.8-2.1-1.2
		c0-0.6-0.3-1-0.9-1.2c-0.6-0.3-0.9-1.1-0.9-2.3c0-2,0.2-3,0.7-3h0.3c1.4,1.8,2.3,2.8,2.6,2.8c0.3,0.2,0.5,0.3,0.7,0.3
		c1,0,1.7-1.2,2.1-3.7c-0.1-3.2-0.5-6.9-1.1-10.9v-0.3c0.6-2.7,0.9-4.8,0.9-6.3v-2.1C431.2,105.4,431.3,105.3,431.6,105.3z"/>
</g>
<g>
</g>
<g class="st0">
	<path class="st1" d="M55.3,198.2l0.5,0.3H56c0.1,0,0.2-0.1,0.2-0.3c0.2,0,0.3,0.1,0.3,0.3l1.1-0.3h1.9c0.8,0,1.9,0.1,3.5,0.3v-0.3
		c1.7,0.3,4.6,1.2,8.6,2.8h0.7l1.6-0.5l0.5,0.2l2.4-0.7c0,0.3,1.7,0.7,5.1,0.9c0.3-0.2,0.5-0.3,0.7-0.3c0,0.2,0.8,0.5,2.4,0.9
		c3.9,2.5,5.9,3.7,6.3,3.7c0.8,0,1.2,0.3,1.2,0.9h2.1c1.7,0,3.4,1.3,5.1,3.9c1.2,1.5,2,3.1,2.6,4.9c0.3,0,0.9,0.9,1.8,2.6l3.5,5.8
		c1.9,1.6,3.4,6.1,4.7,13.5v1.4l-0.3,1.1c0.2,0.3,0.3,0.6,0.3,1l-0.3,0.5l0.3,1.4v0.9c0,0.5-0.5,1.4-1.6,2.8
		c-0.5,1.1-0.9,2.7-1.2,4.9l0.3,1.4c-0.2,0.3-0.3,0.5-0.3,0.7c0,0.4,0.3,1.6,1,3.5c0,3.5-0.5,7.1-1.6,10.7l0.7,2.6l-0.2,1.6
		c1.4,4.2,2.1,6.8,2.1,7.6c0,1.1,0.2,2.1,0.5,2.8c-0.2,0.4-0.3,0.7-0.5,0.7c0.1,1.1,0.3,1.8,0.5,2.1c0,0.6-0.5,2.6-1.4,6.1
		c0,0.3-0.5,1.4-1.4,3.3c0,0.5-0.4,1.4-1.1,2.6c0,0.1-0.2,0.7-0.7,1.6l0.3,0.5c-0.3,0.5-0.5,1.2-0.5,1.8h0.3
		c-0.3,0.5-0.7,2.8-1.2,6.8c-0.9,0.7-1.7,3-2.6,7c-2.2,2.6-3.6,4.9-4.2,6.8c-2.4,3.1-4.1,5-5.1,5.8c-2.3,1.7-3.8,2.6-4.5,2.6
		c-3.2,0-5.7,2.2-7.4,6.5l0.3,0.5c-0.9,3.4-2.4,6.3-4.7,8.6c0,0.8-0.4,1.2-1.2,1.2c-0.4,0.8-1.7,1.8-3.9,2.8c-0.5,0.9-1,1.4-1.4,1.4
		v0.9c0,1.1-1.2,3.5-3.5,7c-0.9,1.7-1.6,2.6-1.9,2.6c-2.8,1.9-5.6,2.8-8.4,2.8h-0.7l-0.5-0.3v0.3c-1.9-0.4-4-1.6-6-3.5
		c0-0.4-0.6-1.1-1.8-2.1c-3.7-6.2-5.6-11.6-5.6-16.3c-1.7-1.9-3.1-2.9-4.2-3c-2.3-1.8-5.1-3.9-8.4-6.1c-2.7-4-4.6-6.4-5.6-7.2
		c-0.4-0.9-1-1.4-1.6-1.4l-3.9-5.4l-1.9-5.1l0.3-0.5c0-1.7-0.5-2.8-1.6-3.5c-0.8-1-1.6-3.2-2.6-6.8c-0.3,0-0.6-1.7-0.9-5.1l1.4-8.2
		c0.5,0,1-2.1,1.4-6.3v-0.2c0-0.8-0.2-1.2-0.5-1.2l0.3-0.5c-1.5-5.7-2.3-9.1-2.3-10c-0.2-0.5-0.3-1.6-0.3-3.3v-0.7
		c0.3-2.9,0.9-5.2,1.8-7c0.5,0,0.9-1.2,1.2-3.5L15,256h0.3c-0.6-2.1-1.3-3.5-1.8-4.4l0.2-1.2c0-0.3-0.1-1.2-0.2-2.6
		c0.8-4.4,1.6-8.3,2.6-11.6c-0.8-4.4-1.6-7.4-2.6-9.1c0-0.1,0.1-0.2,0.2-0.2l-0.2-1.2c0-0.6,0.9-3.2,2.6-7.9
		c1.5-1.6,3.5-2.8,5.8-3.7c0.5-0.6,1.7-1.3,3.5-2.1c0-0.2,0.5-0.9,1.6-1.8c0.6-1.6,1.2-2.4,1.8-2.4c0.7-1.2,2.3-2.4,4.7-3.5l1.2-0.9
		c0.3,0.2,0.5,0.3,0.7,0.3c0.9-0.6,2.5-1.2,5.1-1.6c0-0.3,1.2-0.5,3.7-0.7c0.8-0.2,1.2-0.5,1.2-0.7l0.5,0.2H46l0.5-0.2v0.2
		c1-0.3,1.8-0.7,2.4-1.2H49c0.2,0,0.3,0.1,0.3,0.3c0.5-0.2,2-0.5,4.4-0.9C53.7,198.7,54.2,198.4,55.3,198.2z M60.9,205.2l-0.3,0.5
		c-0.1,0-0.2-0.1-0.2-0.3c-2,0.2-3,0.4-3,0.7c-0.2,0-0.3-0.1-0.3-0.3c-1.1,0.2-1.8,0.3-2.1,0.5l-1.1-0.5c-2.6,0.6-3.9,1-3.9,1.2
		l-0.5-0.3l-0.9,0.5h-0.7l-3.3,0.9c-0.3-0.1-0.6-0.2-0.9-0.2l-0.7,0.5c-0.1,0-0.2-0.1-0.2-0.3l-2.1,1c-0.3-0.2-0.6-0.3-0.9-0.3v0.3
		l-0.5-0.3l-0.9,0.5v-0.2c-3.7,1.3-5.6,2.9-5.6,4.9c-0.9,2.3-2.1,3.5-3.5,3.5c-3.2,0.9-5,1.7-5.3,2.6c-1.9,2.1-3.1,4.3-3.5,6.5
		c0.4,5,1.4,7.4,2.8,7.4l0.7,0.5l1.8-0.5c1.4,0.9,2.1,1.4,2.1,1.6c-1.1,1.3-2.4,1.9-3.9,1.9c0,2-0.7,4.1-2.1,6.3l-0.9,5.6
		c0,0.2,0.1,0.3,0.3,0.3l-0.3,0.5v3.7c1.3,1.4,2,2.1,2.1,2.1c0.3,0,0.5-0.2,0.5-0.5v-2.1l-0.3-0.5h0.3l-0.3-0.5v-1.8l-0.2-1.4
		c0.3-0.7,0.6-1.1,0.9-1.2h0.7c1.8,2.9,2.8,5.7,2.8,8.6l-0.5,0.9l0.9,0.5c-0.2,0.9-0.4,1.4-0.7,1.4c0-1.1-0.2-1.6-0.5-1.6l-1,3.5
		l1.2,3.5c0.8,0.3,1.3,0.5,1.4,0.5c0.8,0,1.6-0.7,2.6-2.1c0.4,0,0.8-0.2,1.2-0.5c0.3,0.3,0.5,1.2,0.7,2.8c0.4,0.3,0.7,0.5,0.9,0.5
		v2.1c-1,3-2.2,5-3.7,5.8H29c-1.8,0-3-0.8-3.5-2.3c-0.7,0-1.3-1-1.9-3.1c0.3-0.7,0.5-1.5,0.5-2.3c-0.8-0.5-1.2-1.1-1.2-1.8l-1.2-1.6
		c-0.8,2.4-1.4,5.6-1.8,9.8c0.1,0.3,0.2,0.6,0.2,0.9h-0.2c0.6,1.4,1.2,3.1,1.6,4.9c1.1,1.6,2.2,4.6,3.2,9.1l-0.2,0.5
		c0.7,1.3,1.2,2.9,1.6,4.7l-0.9,0.9h-0.5c0-0.3-0.4-0.7-1.2-1.1c-0.2-0.7-0.8-1.3-1.6-1.9c-0.6,1.2-1.5,3.8-2.6,7.9l0.2,0.5
		l-0.7,2.1c1.5,4.6,2.5,6.9,3.2,7c0.3,0,0.8,0.5,1.4,1.6h0.3v1.1c0.6,0.6,1.2,1.4,1.6,2.4c0,0.1-0.1,0.2-0.3,0.2l0.3,1.2v1.8h0.7
		c0.5,0,1.1,0.2,1.6,0.7l0.5-0.3c2.5,0.7,3.7,1.9,3.7,3.7c0.7,2,1.8,4.2,3.3,6.5h0.9c0.1,0,0.2-0.1,0.2-0.2c0.3,0.1,0.5,0.2,0.7,0.2
		l6-1.8c0.8,0.2,1.2,0.8,1.2,1.6v1.1c-1,0-1.8,0.6-2.6,1.9c0.4,1.8,1.7,3.4,3.7,4.9c0.6,0,1.1,0.2,1.4,0.5c0.3,0,0.5-0.2,0.5-0.5
		c1.8,0.4,2.8,1.4,2.8,2.8l1.2,5.1c-0.2,0.3-0.3,0.6-0.3,1v0.2c0,0.3,0.1,0.6,0.3,0.9l-0.3,0.5c0,2.2,0.4,3.9,1.2,5.1
		c0,1.6,1.4,3.8,4.2,6.5c0.1,0,0.6,0.1,1.4,0.3c3.6-1.1,5.3-2.8,5.3-5.1c0-3.1-0.4-6-1.1-8.6l0.2-0.5c-0.3-0.8-0.5-1.4-0.5-1.8
		c0-2.4,0.6-4.2,1.8-5.4c0.5-1.7,1.8-3.5,3.7-5.6c0.4,0.3,1.2,0.6,2.4,0.9v1.2c0,0.3-0.5,1.5-1.6,3.5c0,0.4-0.4,1-1.2,1.6
		c-0.8,1.4-1.2,3-1.2,4.7c0.1,0.6,0.7,0.9,1.9,0.9c1.6,0,3-0.9,3.9-2.8c0-0.6,0.1-1.2,0.2-1.8l-0.2-0.5c0.6-3.4,1.3-5.1,1.8-5.1
		c0.6,0,1-0.5,1.4-1.4c0.5,0,1-1.3,1.4-3.9c1.4-1,2.8-1.4,3.9-1.4c0-0.1,0.7-0.5,2.1-1.1c0.6-0.5,0.9-0.9,0.9-1.4
		c1.4,0.1,2.1,0.3,2.1,0.5l0.5-0.3c0.6,0.1,0.9,0.3,0.9,0.5c2.2-0.6,3.5-1.3,3.7-2.1c1.3-1.4,2.5-3.1,3.7-5.1
		c0.6-0.4,1.2-1.3,1.6-2.6c2.3-3.3,3.6-6.8,3.9-10.5c-0.2-0.6-0.5-1.8-0.7-3.7c-0.1,0-0.4-0.7-1-2.1c0.6-9.8,1.2-14.7,1.9-14.7h0.5
		l0.5,1.6v3.3l0.2,1.2h0.3l2.3-1.9l0.7-1.8c-0.1-0.3-0.2-0.6-0.2-0.9l0.5-0.7v-3.7c-1.6-5.6-2.9-9.1-4-10.7c-0.4-0.7-0.7-2-0.7-3.7
		c0.5-3.9,0.9-5.8,1.1-5.8c0.2-3.8,0.3-5.8,0.3-6.3c-0.5-5.1-1.1-7.7-1.8-7.7v-0.2l0.2-1.2c-0.3-2.4-0.9-4-1.6-4.9
		c0.4-0.3,0.7-0.5,1-0.5c2.1,0,3.4,0.7,3.9,2.1c0.2,0,0.4,0.5,0.7,1.6c0.5,0,0.9-0.7,1.2-2.1V239c0-0.5-0.1-0.7-0.2-0.7l0.2-1.1
		v-0.7c-0.1-4-0.3-6-0.7-6c0.1-0.3,0.2-0.5,0.2-0.7l-1.2-3.9c-0.3,0-1.3-1.3-2.8-3.9c-1-1.4-1.9-2.4-2.6-3c0-2.4-1.9-4.6-5.8-6.5
		h-0.5l-1.6,0.2l-0.3-0.5c-1.2,0.3-1.8,0.5-1.8,0.5c-0.3,0-1.4-1.1-3.3-3.2c-0.6,0-1.2-0.5-1.8-1.6h-0.7l-1.2-0.3
		c0,0.2-0.1,0.3-0.2,0.3c0-0.3-0.9-0.6-2.6-0.9h-1.4l-0.5,0.2c0-0.1-0.1-0.2-0.3-0.2c0,0.1-0.1,0.2-0.2,0.2c0.1,0.8,0.3,1.2,0.5,1.2
		l-0.3,0.5c0,0.2,0.1,0.3,0.3,0.3c0,0.8-1.3,1.3-4,1.6l-4.2-2.6l-0.5,0.3C65.5,206.2,63.2,205.2,60.9,205.2z M65.8,241.3
		c0.3,0.2,0.6,0.3,0.9,0.3h0.7c0.6,1.1,0.9,1.8,0.9,2.3l-2.1,2.6v0.5h0.3c0,0.2-0.1,0.3-0.3,0.3c0,1.8,1.1,2.9,3.3,3.2h0.3
		c1.4-1.4,2.4-2.1,3.2-2.1s1.2,0.5,1.2,1.4c0,0.7-0.4,1.7-1.2,3.2c0.5,1.4,1.4,3.2,2.8,5.4c0.3,0.5,0.5,1,0.5,1.4v3.7
		c0,0.2-0.2,1-0.5,2.6c0,0.1,0.1,0.2,0.2,0.2c-1.5,2.6-2.3,4.1-2.3,4.4c-0.3,0.6-0.5,1.3-0.5,2.1c0.3,1,0.5,1.7,0.5,2.1h-0.3
		c0.6,3,1.4,4.8,2.4,5.4l0.5,1.8l-0.3,0.5c0.3,0.5,0.5,1,0.5,1.4c-0.2,0.8-0.8,1.2-1.6,1.2c-0.8-0.3-1.1-0.7-1.1-1.2
		c-0.2,0-0.9-0.6-1.9-1.8h-0.2c-1.7,0-3.4,2.6-4.9,7.9c-2.1,2.5-3.3,3.8-3.7,3.9c-2,0-4.2-1.4-6.5-4.2h-1.2c-0.3,0-0.5,0.2-0.5,0.5
		l-0.5-0.3h-0.3c-0.9,1.4-1.7,3.2-2.3,5.4l0.2,1.4c-0.5,1-1,1.6-1.4,1.6c-1.4-0.8-2.1-1.8-2.1-3v-1.4c0-0.2,0.2-1,0.5-2.6v-0.5
		c0.6,0,1.4-2.1,2.6-6.3c1.4-1.5,2.1-3.7,2.1-6.8c-0.3-1.5-1.1-3.6-2.3-6.3l-1.9-5.4l-0.5-1.8c0.2,0,0.7-0.7,1.6-2.1
		c-0.1-0.3-0.2-0.5-0.2-0.7c0.2-0.6,1.3-1.3,3.2-2.1c0.5-0.4,1.3-2.4,2.4-6c-0.3-1.2-0.9-2.8-1.9-4.6l0.3-0.5
		c-0.3-0.7-0.6-1.1-0.9-1.1c0.1-0.5,0.4-0.8,0.9-0.9l0.5,0.2l1.2-0.2c1.3,1.1,2.2,1.6,2.8,1.6h0.5c2-1.6,3-2.6,3-3.2
		c1.3-2,2.1-3,2.4-3C65.1,241.6,65.5,241.5,65.8,241.3z M63.9,259c-1.1,4-2.2,6.1-3.3,6.1c0,0.3-0.8,0.8-2.3,1.4l-0.5,1.6v1.4
		c0.8,2.5,1.2,4.3,1.4,5.3H59l0.2,0.5v5.6c0.1,0.3,0.2,0.5,0.5,0.5v-0.2l2.6,0.5c0.6-1.2,1.5-2.4,2.8-3.7c0.5-0.8,0.9-1.2,1.4-1.2
		v-3.9l0.2-0.5h-0.2l1.6-10.7c0-0.5-0.8-1-2.4-1.6c0-0.1-0.5-0.4-1.6-0.9H63.9z M82.8,302.1h0.5c0,0.5,0.2,1.4,0.7,2.6h-0.2
		c0,0.3,0.5,1.2,1.4,2.6c0,0.7,0.7,2.2,2.1,4.7l0.7,3.5c-0.8,3.7-1.9,5.6-3.5,5.6l-0.5,0.5l-0.5-0.2c-0.8,0-1.7,0.2-2.8,0.5
		c-3.2-1.3-4.9-2.9-4.9-4.9l1.1-3.2h0.5c0.6,0,1.3,0.4,2.1,1.2h0.9l0.5-0.3c0,0.2,0.1,0.3,0.3,0.3c1.1-1,1.6-2.1,1.6-3.3v-2.1
		c0-0.3-0.1-0.6-0.3-0.9c0.1-0.6,0.3-0.9,0.5-0.9l-0.7-2.8v-0.9L82.8,302.1z"/>
	<path class="st1" d="M214.8,197.6c0.8,0,2.3,0.6,4.4,1.8c0.2,0,1.3,0.5,3.3,1.6c3.3,1.6,5.6,2.4,7,2.4l0.5-0.3
		c0.8,0.2,1.2,0.3,1.2,0.5l0.5-0.2c0.3,0.3,1.7,0.5,4.2,0.7c2.6,1.3,3.9,3,3.9,4.9c1.7,1.6,3.9,2.9,6.5,3.9c0,0.3,1.1,1.1,3.3,2.3
		c3.1,3.4,4.7,6.1,4.7,7.9h-0.3l0.3,0.5v1.2c-0.9,4-2.3,7.1-4.2,9.1c0,0.3-0.4,1.4-1.2,3.3c0.2,1.3,0.3,2.4,0.3,3.2v1
		c0,0.9-0.5,2.1-1.6,3.7c-0.3,0.6-0.5,1.2-0.5,1.6l0.2,1.6c-1.1,3-1.8,5.6-2.3,7.7c-0.6,0.4-2,3.4-3.9,8.9c0,0.4-0.3,1.3-1,2.6
		c-0.2,1.6-0.4,2.6-0.7,3.2l0.2,0.5c0,0.2-0.1,0.4-0.2,0.7l0.2,1.2c-0.1,1.2-0.2,2.4-0.2,3.7c0,0.8,0.2,1.2,0.5,1.2
		c0,1.9-0.8,5.7-2.4,11.2l-3.2,4.7c-1.8,0.4-3.1,1.2-3.7,2.4c-1.2,0-3.1,1.2-5.6,3.5c-0.8,0.4-2,1.7-3.5,3.7c0,1.1-0.5,2.5-1.6,4.4
		v1.8c0,0.4,0.1,0.7,0.3,1c-0.2,0.3-0.3,1-0.5,2.1c0.2,1.1,0.3,1.9,0.3,2.6c0,1-0.8,2.9-2.3,5.6c-2.5,3.2-3.7,6-3.7,8.4h-0.3
		c0.3,0.5,0.5,1,0.5,1.4v0.7c0,0.5-0.1,1.2-0.2,2.1c0.1,0.2,0.2,0.7,0.2,1.4c-0.4,0.1-1.1,1.6-1.8,4.5c-2.2,1.9-3.3,3-3.3,3.2
		l0.3,0.5c-0.9,1.1-2.2,2-3.9,2.6c0,0.2-0.3,0.4-0.9,0.7h-0.3c-0.2,0-0.3-0.1-0.3-0.3l-1.1,0.7c-2.5-0.2-4.4-0.5-5.6-0.9
		c-2.5,0-3.7,0.7-3.7,2.1v1.6l1.4,6.3c0,3-1.2,5.8-3.7,8.4c-0.9,2-2.9,3-5.8,3l-0.5-0.3l-0.5,0.3l-1.2-0.5l-0.5,0.2
		c-1.1-0.1-1.8-0.3-2.1-0.5c0,0.2-0.1,0.3-0.3,0.3l-2.3-1.4c-1.3-0.4-2.4-1.4-3.5-2.8c-1.9-2-3.2-5.3-4-10c0-4.8-0.6-8.1-1.8-10
		c-0.2,0-1.1-1-2.6-3c-5.1-3.7-7.7-8.2-7.7-13.3c0-2.8-1.1-5-3.3-6.5c-2.8-3.3-4.2-7-4.2-11c-1.1-6.8-1.9-11-2.4-12.8
		c-2.9-3-4.9-6.9-6-11.9c0-0.6-0.3-2.2-0.9-4.9c0.1-0.6,0.2-1.2,0.2-1.6h-0.2c0-0.1,0.1-0.2,0.2-0.2c0-2.7-0.6-6.5-1.8-11.4
		c-0.4-0.7-1.2-1.5-2.3-2.4c-2.1-2.5-3.4-5-4-7.4c-0.3-1.8-1.7-4.3-4.4-7.5c-1.4-3.3-2.1-5-2.1-5.1c0-0.1,0.1-0.2,0.3-0.2
		c0-6.1-1.7-11.7-5.1-16.8l-0.3-1.6c0-6.8,1.8-11.3,5.4-13.3c3.2-2.8,6-4.9,8.4-6c0-0.1,0.8-0.5,2.4-1.2l0.5,0.2
		c0.8-0.3,3.2-0.9,7.4-1.8l0.5,0.3h4.2c0.2,0,0.3,0.1,0.3,0.2c0.1,0,0.2-0.1,0.2-0.2c1.1,0.1,1.6,0.3,1.6,0.5l1.2-0.3h1.6
		c1.3-1,3.3-1.9,6.3-2.8c0.2,0,0.3,0.1,0.3,0.2c1.7-0.3,2.7-0.6,3-0.9c0.5,0.1,0.7,0.3,0.7,0.5l0.5-0.3h2.1c2.1,0.3,3.8,1.4,5.3,3.3
		l2.1,1.4l3.7,7.2c0.9,1.2,1.5,3.1,1.8,5.6c2,2.6,3,4.9,3,7c0.2,0,0.4,0.5,0.7,1.4l-0.3,2.3c0,0.4,0.1,1,0.3,1.9
		c-0.2,1.2-0.3,2.5-0.3,3.9v0.5c0,0.8-0.2,1.2-0.5,1.2c0.2,0.9,1,2.5,2.4,4.9c1.4,2.8,2.1,4.6,2.1,5.6h0.2c0-0.5,1.6-4.3,4.7-11.4
		c0-0.5,0.1-0.9,0.3-1.2c-0.3,0-0.5-0.1-0.5-0.3c0.8-3.4,1.2-6.8,1.2-10c0.2,0,0.3-0.1,0.3-0.3h-0.3c0-0.4,0.5-2.1,1.6-5.1
		c0-4.9,1.5-10.2,4.4-16c0.2,0,0.8-0.6,1.6-1.9c0.3-0.4,2.6-0.9,6.8-1.4c1-0.2,1.9-0.4,2.8-0.7l0.5,0.2h0.5c0.1,0,0.2-0.1,0.2-0.2
		l0.5,0.2C213.6,198,214.1,197.9,214.8,197.6z M200.5,228.6v1.1c0,0.4-0.1,0.7-0.2,0.9l0.5,1c0,0.1-0.1,0.2-0.3,0.2l0.3,1.2v0.2
		c0,0.4-0.1,0.7-0.3,1l0.5,1.8l-0.5,0.3l0.3,1.6v1.4c-0.4,1-1.8,2.7-4.2,4.9c-1.4,3-2.4,5.6-2.8,7.7l0.5,1.2
		c-0.6,0.4-1.2,1.8-1.9,4.2c-1.1,1.8-1.9,2.8-2.6,2.8c-0.6-0.1-1.2-0.2-1.6-0.2l-0.5,0.2c-1.3-0.4-2.5-1.2-3.5-2.3
		c-1.5-2.1-2.9-5.5-4.2-10.3c-0.5-3.8-1.4-6.6-2.8-8.6l-3.3-6.1h-0.2c0,0.2-0.1,0.3-0.3,0.3c0-0.4-0.6-0.7-1.8-0.9
		c-0.1-0.8-0.4-1.2-0.7-1.2c0-0.8,0.5-1.5,1.6-2.1c0.3,0,0.7,0.2,1.4,0.5c0.2,0,0.3-0.1,0.3-0.2l1.1,0.2h1.4c0.3,0,0.5-0.2,0.5-0.7
		c0-4.1-1.9-8.3-5.6-12.8c-0.1-0.4-0.5-1-1.4-1.9c-0.2-1.4-0.5-2.1-0.9-2.1l0.3-0.5c0-0.2-0.1-0.4-0.3-0.7l0.3-1.4l-1.2-3
		c-0.8-0.4-1.3-0.7-1.6-0.7v0.2l-0.5-0.2c-5.6,1.7-8.4,2.8-8.4,3.2l-0.5-0.2c-0.3,0-0.5,0.2-0.5,0.5v0.2l0.5,0.7
		c-0.2,1.1-0.5,1.6-0.9,1.6c-0.1,0-0.6-0.1-1.4-0.3c-0.3,0.2-0.5,0.3-0.7,0.3c0-0.3-1-0.7-3-1.2c-0.3,0.2-0.5,0.3-0.7,0.3
		c-2.4-0.3-4.1-0.7-5.1-1c-2.5,0.4-4,0.8-4.5,1.2c-0.1,0-0.2-0.1-0.2-0.2c-0.9,0.4-2.2,0.8-4,1.1c0-0.1-0.1-0.2-0.2-0.2l-2.4,1.4
		l-4.9,3.7c-0.8,1.6-1.1,3-1.2,4.2c0,0.1,0.1,0.6,0.3,1.4l-0.3,0.5c0,0.2,0.1,0.4,0.3,0.7c-0.2,0.8-0.3,1.5-0.3,2.1v0.7
		c0.3,0.6,0.8,0.9,1.6,0.9h0.5c0.8,0,1.7-0.6,2.8-1.8c1.4-0.2,2.2-0.3,2.6-0.3c0.3,0.7,0.5,1.4,0.5,2.1l-1.6,2.6
		c0.3,1.4,0.5,2.5,0.5,3.3l-0.2,0.5c0.1,0.3,0.2,0.6,0.2,0.9v0.7c0,0.1-0.1,0.2-0.2,0.2l0.2,0.5v2.4l0.3,1.2c-0.3,0-0.5,0.2-0.5,0.5
		v3c0,1.4,0.6,2.4,1.8,3l0.5-0.7c2.5,0.2,3.7,0.9,3.7,1.9c0.4,0,0.7,1.6,0.9,4.7h-0.3c0.8,4.6,2.1,7,4,7c1.1,0,2.4,1.2,3.7,3.7
		c0,0.6,0.3,1.3,1,1.8c0,0.3-0.1,0.5-0.3,0.5l0.3,1.6v0.7c0,0.3-0.1,0.6-0.3,0.9c0.2,0.3,0.3,0.6,0.3,0.9v0.5
		c-1.1,3.3-1.6,6.8-1.6,10.5v1.1c0.1,1.4,0.8,3.8,1.8,7.2h0.3c1.2-1.6,2.3-2.6,3.5-2.8c1.1,0.2,1.6,0.9,1.6,2.1l-0.3,0.5l2.6,3.9
		c0.8,0.9,1.2,2,1.2,3.3h-0.3l0.3,0.5c-1.1,3.6-1.6,6.7-1.6,9.5c0.5,5.7,1.4,8.6,2.6,8.6c0.2,0.7,1.2,1.4,3,2.1
		c2.6,3,3.9,4.8,3.9,5.4v0.7l-1.8,3.3c0.2,2.2,0.5,3.2,0.9,3.2v0.7c0.1,1.1,0.2,1.6,0.5,1.6c0.4,0,1.7-1.2,4-3.7
		c0.6-0.3,1.4-0.5,2.6-0.5h0.7c1.9,0.9,2.8,2.6,2.8,4.9v0.2c-0.7,0.5-1.2,0.7-1.6,0.7v0.5c0.6,0.8,1.1,1.2,1.6,1.2
		c0,0.3-0.1,0.6-0.3,0.9c1.7,3.2,2.6,6,2.6,8.4c-0.3,0-0.8,2.3-1.4,7c0.1,0.3,0.2,0.5,0.2,0.7l-0.7,2.4c0.8,3.4,1.2,5.1,1.4,5.1
		c0.2,0,1.3,0.5,3.3,1.6l1.4,0.2c1.4,0,2.4-0.9,3-2.6c0-0.3,0.2-0.9,0.7-1.6c0-0.1-0.1-0.2-0.3-0.2l0.3-1.6c0-1.4-0.5-3.3-1.4-5.6
		c-0.3-0.3-0.8-1.1-1.4-2.6V346c0-0.1,0.1-0.2,0.3-0.2l-0.3-1.2v-0.5c0-0.3,0.1-0.6,0.3-0.9c-0.2-1.1-0.3-1.6-0.5-1.6l0.7-2.1
		c-0.1-0.3-0.2-0.5-0.2-0.7c0.1-0.4,0.3-0.7,0.5-0.7l-0.3-0.5v-0.5c1.5-3,3.2-4.5,5.1-4.5c0-0.1,0.1-0.2,0.3-0.2l0.7,0.9
		c0,0.3-0.2,1.6-0.7,3.7c0.5,0.3,1,0.5,1.4,0.5h0.7c0.1,0,0.2-0.1,0.2-0.3c3.6,1.4,5.4,2.2,5.4,2.4h1.2c0.5,0,1.8-0.5,3.7-1.4v0.3
		c1.7-0.5,2.6-1.7,2.6-3.5c0.9-1.6,1.4-3.9,1.4-7v-0.7l-2.8,0.2h-0.3c-1.8-1.1-3.1-2.2-3.9-3.2c-0.4,0-1.1-0.9-1.8-2.8l0.2-0.5
		l-0.2-0.5c0-1.4,0.5-2.1,1.6-2.1c0.4,0.6,1.6,1.6,3.7,2.8c2-1.3,3-3.1,3-5.6c-0.4,0-0.8-0.9-1.1-2.6h0.2c0-0.2-0.1-0.3-0.2-0.3
		c0.1-2.9,0.3-4.7,0.5-5.4c-0.3-1.8-0.5-3.1-0.5-3.9h0.2l-0.2-0.5c1-4.3,1.7-6.9,2.1-7.7h0.7c0.9,1.3,1.4,3.3,1.4,6l-0.7,3
		c0.9,3.5,1.4,5.4,1.4,5.6h0.3l-0.3,0.5v0.9l-0.2,2.3c0.2,0,0.6,0.6,1.4,1.9c0.7,0,1.2-1,1.4-3.1l-0.2-1.4l0.9-5.8
		c1.5-5.1,3.3-8.7,5.3-10.8c1-2.5,1.8-4.3,2.4-5.3c0.2-0.1,1-2.4,2.3-7l-0.2-0.5c0.8-2.2,1.1-5,1.1-8.6l-0.2-1.1
		c0.2,0,0.5-0.4,0.9-1.2h0.7v-0.3h0.5c1.1,0,1.9,2.6,2.3,7.7l-0.2,0.5l1.6,7.7h1c0.6-1.2,1-3.3,1.1-6.3c-0.9-7.9-1.4-13-1.4-15.4
		c0-3.1,0.5-6,1.4-8.7c0.9-0.5,2.1-1.8,3.5-3.9c0.3,0,0.8-0.8,1.4-2.3c0.9,0,2.2-3.2,3.9-9.6c0.4,0,0.9-2.3,1.6-7
		c0.1,0,0.2-0.1,0.2-0.3v-3.5h-0.7c-1.6,0-2.4-0.6-2.4-1.8v-0.9c0.3,0,0.8-0.2,1.4-0.7c0.4,0,0.8-0.3,1.1-0.9
		c2.4-1.2,3.5-1.9,3.5-2.4l0.5-1.4c-0.7-1.3-1.3-2.2-1.6-2.6c-1.1-0.9-1.8-1.4-2.1-1.4c-1.1-0.8-2.8-1.4-5.1-1.8
		c-1.4-0.8-2.1-1.6-2.1-2.4l0.3-0.5c-0.7-2-1.5-3.1-2.4-3.5l-0.5,0.2H232c-0.3,0-0.5-0.2-0.5-0.5l-0.5,0.3h-1.2l-1.4-0.3
		c-0.7,0.5-1.2,0.7-1.4,0.7v0.2l0.5,0.7v1.4c-1,0-1.4,0.2-1.4,0.7h-0.5c-1-1-2.2-1.7-3.7-2.1c-3.7-3.7-5.9-5.6-6.5-5.6
		c-0.5-0.3-1-0.5-1.6-0.7c-0.3,0.2-0.6,0.3-0.9,0.3l-0.2-0.5c-2.4,0-4.7,0.4-7,1.2c-0.9,0.9-1.7,3.9-2.6,9.3c-0.4,0.6-0.9,3-1.6,7.2
		C201,222,200.7,224.2,200.5,228.6z M166.3,270.7c0,0.8,0.3,1.6,0.9,2.4c0,0.1-0.1,0.2-0.2,0.2c0,3.1,0.4,5.4,1.2,6.8l-0.3,3.3
		l1.4,3v0.2c0,1.8-0.2,3.1-0.5,3.7c0.3,1.5,0.5,2.4,0.5,2.8c0,1.1-0.3,1.6-0.9,1.6c0,0.8,0.2,2.5,0.7,5.4l-0.3,0.5
		c0.2,0.9,0.4,1.4,0.7,1.4h1.2c0.5-0.4,1.1-0.7,1.6-0.7h0.7c0,0.5,0.6,0.9,1.8,1.1c0,0.3,0.4,1.1,1.2,2.4v0.2l-2.1,2.4
		c-0.1,0-0.2-0.1-0.2-0.3l-2.8,0.7c-4.3-0.8-6.5-1.9-6.5-3.3c-1.1-1.6-1.6-3-1.6-4.2c0-1.6,0.8-4.1,2.3-7.7v-0.3
		c0-0.2-0.1-0.3-0.2-0.3l0.2-0.5v-0.5c0-0.1-0.1-0.2-0.2-0.2l0.2-0.5c0-0.5-0.1-0.7-0.2-0.7l0.5-3.5h-0.3l0.3-0.5
		c-0.5-0.9-0.8-1.7-0.9-2.4h0.2l-0.2-0.5l0.5-4.2c-0.2-1.3-0.3-2.4-0.3-3.2c0-0.8,0.2-1.2,0.5-1.2l-0.2-0.5l1.2-3
		C166.1,270.8,166.2,270.7,166.3,270.7z"/>
	<path class="st1" d="M317.4,201.3c0.6,0,1.5,0.1,2.6,0.3c0.2,0,0.3-0.1,0.3-0.3c1.9,0.2,3.3,0.5,4.4,0.9l0.5-0.2
		c1.9,1.1,4,1.6,6.3,1.6c2.5-0.2,3.8-0.6,3.9-1.2c0.1,0,0.2,0.1,0.2,0.2c3-0.9,5-1.4,6.1-1.4h0.5c0.1,0,0.2,0.1,0.2,0.3
		c0.2,0,0.3-0.1,0.3-0.3c3.1,0.5,5.4,0.9,6.7,1.4v-0.2c5.6,2.9,8.4,5.1,8.4,6.5c1.3,1.6,2.2,4.2,2.8,7.7c-0.4,2.7-1.3,5.9-2.6,9.5
		c0,0.3,0.4,2.1,1.2,5.3c0,1.2,0.1,2.3,0.3,3.3c-0.5,0.9-0.7,2.8-0.7,5.6c0,0.4,0.4,1.5,1.2,3.5l-0.3,0.5c0.3,0.6,0.5,1.2,0.5,1.8
		v0.5c0,0.3-0.1,0.7-0.2,0.9c0.1,0.3,0.2,0.5,0.2,0.7c-0.9,3.9-1.8,6-2.8,6.5c-1.4,1-2.1,1.6-2.1,1.9c-0.3,0-1.1,0.5-2.4,1.6
		c-0.5,0.4-1.3,0.7-2.5,0.9c-0.3-0.2-0.5-0.3-0.7-0.3v0.3c-2.3-0.3-4-1-5.1-2.1c-1.5-1.5-2.9-3.4-3.9-5.8l-1.2-0.2
		c-0.2,0.1-0.6,0.2-1.4,0.2c0-0.1-0.1-0.2-0.3-0.2c-0.6,0-1.8-0.2-3.5-0.5c0,0.1-0.1,0.2-0.2,0.2c0-0.3-0.2-0.5-0.5-0.5l-1,0.3
		c-0.7-0.3-1.7-0.6-3-0.9c-1.5,0.4-2.3,0.8-2.3,1.1c-0.5,0-1.6,0.2-3.3,0.5v0.3c0.2,0.4,1.2,1,3,1.6c0,0.3,0.5,0.5,1.6,0.5h0.3
		l1.4-0.3l0.5,0.3c2.5-0.8,4.8-1.3,7-1.4c0.6,0,1.6,0.9,3,2.8c1.4,1.8,2.7,5.5,4,10.9v0.7c-0.2,1.9-0.3,2.9-0.3,3l0.3,0.5l-1.2,3.9
		c0,0.2,0.1,0.4,0.2,0.7l-0.7,2.8h0.2l-0.2,0.5c0,0.4,0.5,2.2,1.4,5.1l0.7,3.7c-1.1,4.3-2.6,7.1-4.7,8.4c-0.2,0-0.3-0.1-0.3-0.2
		l-3.5,0.5c0-0.2-0.1-0.3-0.2-0.3v0.5h-0.3c-1-0.8-1.6-1.1-1.8-1.2c0,0.3-0.2,0.5-0.5,0.5c0-0.5-0.2-0.7-0.5-0.7l-0.5,0.3
		c0-0.2-0.2-0.5-0.7-0.7l-1.2,0.3v-0.3l-0.5,0.3l-0.5-0.3c-1.6,0.9-2.6,1.4-2.8,1.4v0.5l6,1.6c0.9,0.2,1.4,0.3,1.4,0.5
		c3.1-0.2,4.7-0.7,4.7-1.4l2.1-0.7c0,0.1,0.1,0.2,0.2,0.2c0.5-1,2.3-1.8,5.4-2.6c1.1-0.7,2.5-1.5,4.4-2.3c0.3,0.1,0.5,0.2,0.7,0.2
		c1.3-0.3,1.9-0.6,1.9-0.9h1.4c0.3,0,0.5-0.2,0.5-0.7c0.8,0,1.2,0.2,1.2,0.5c1.8-0.4,2.9-0.8,3.2-1.2c0,0.2,0.3,0.5,0.9,0.7
		c0.3-0.2,0.5-0.3,0.7-0.3c0,0.3,1.1,0.7,3.3,1.2c2.5,1.3,4.1,2.4,4.9,3.5c0.6,1.4,1.3,2.1,2.1,2.1c0,0.4,0.3,1.3,0.9,2.6
		c0.9,2.6,1.4,4.3,1.4,5.1c-0.5,1.2-1.1,3.7-1.6,7.5c-0.4,0.3-1,1.7-1.6,3.9c0.1,0.3,0.2,0.5,0.2,0.7l-1.1,2.6l0.2,0.5l-1.2,7.9
		c0.2,2.1,0.5,3.7,1,4.7c0,0.1-0.1,0.2-0.3,0.2c0.5,3.7,0.8,7.4,0.9,11c-0.3,1.7-0.5,3.6-0.5,5.8v1.2l-0.2,0.5h0.2
		c-1.2,5.2-2.2,8.1-3,8.6c-2.1,2.5-4,3.7-5.8,3.7c-0.3-0.2-0.5-0.3-0.7-0.3v0.3c-2.1-0.6-3.9-1.8-5.3-3.5c-1-1.5-1.5-2.7-1.6-3.5
		h0.2c-0.5-5.1-1-7.6-1.4-7.6c0-0.4-0.6-0.8-1.8-1.2c0-0.1-0.2-0.4-0.7-0.7c-0.3,0.2-0.5,0.3-0.7,0.3c-2-0.4-3.4-1.2-4.2-2.4
		c0-0.3-0.5-0.9-1.6-1.8c-0.6,0-1.7,0.9-3,2.8c-0.6,0-1.1,1.2-1.4,3.5c0.3,1.4,0.9,3,1.8,4.9c-0.6,1.8-0.9,3.2-0.9,3.9
		c0.2,0,0.5,0.4,0.9,1.2c0,0.2-0.1,0.3-0.3,0.3c0.6,2,1,3.3,1,3.9h-0.3l0.3,0.5c-2,5.6-3.7,8.4-4.9,8.4l-0.5,0.5l-0.5-0.2h-0.7
		c-2,1.2-3.4,1.8-4.2,1.8c-2.8,0-5.1-1.3-7-3.9c-0.8,0-1.5-1.6-2.4-4.7c0-0.1,0.1-0.2,0.3-0.2l-0.3-0.5v-0.7l0.3-1.6h-0.3l0.3-0.5
		c0-0.6-0.1-0.9-0.3-0.9c0.3-4.9,0.7-7.7,1.2-8.4c-0.2-0.3-0.3-0.5-0.3-0.7h0.3L323,351c0-0.4,0.2-1.3,0.5-2.6
		c-0.1-2.3-0.5-4.6-1.1-7c-2,0.8-3.1,1.1-3.5,1.1l-0.5-0.2h-1.6v-0.5h-1.2c-0.2,0-0.3-0.1-0.3-0.3c-0.1,0-0.2,0.1-0.2,0.3
		c-2.7-0.5-4.4-0.7-5.1-0.7h-0.5c-1.4,0.6-2.1,1-2.1,1.2l-0.5-0.3c-0.8,0.6-1.7,0.9-2.6,0.9h-0.7c-1.3,5.7-2.6,8.6-3.7,8.6
		c0,0.3-0.6,1-1.9,2.1h0.3c-0.8,1.4-2,2.1-3.7,2.1v0.3c-0.1,0-0.2-0.1-0.2-0.3c-1.2,0.3-1.8,0.5-1.9,0.5c-1.1-1.2-2.2-1.8-3.2-1.8
		c0-0.9-1-1.8-3-2.8c-0.7-1.8-1.4-2.8-2.1-2.8c-0.3-0.2-0.5-0.7-0.5-1.4h-0.9l-3.5,0.7c-1.6-0.5-2.9-1.2-3.7-2.1
		c-1.1,0-2.9-2.3-5.3-7c-0.7-2.6-1-5.3-1-7.9c0-2,0.6-5,1.9-9.1c0-0.5-0.5-1.7-1.4-3.7c-0.6-1.7-1-3.3-1-4.9c0-2.1,0.8-5.5,2.4-10.3
		v-1.4c0-0.5-0.8-3.3-2.4-8.4l0.3-0.5l-0.7-3.5l0.3-1.4v-0.5l-0.3-1.6h0.3l-0.3-0.5v-0.7c1.1-3.6,1.6-6.1,1.6-7.4
		c0-1.6-0.9-4.3-2.8-7.9l-1.6-5.3c0.6-4.1,1.4-7.9,2.3-11.4v-0.5c0-1.7-0.2-3.3-0.7-4.6h0.2c-0.4-1.7-1.3-3.8-2.8-6.1
		c-0.5-1.2-0.7-2.1-0.7-2.6v-0.7c0-0.6,0.6-3.7,1.8-9.3l0.3-1.6c-0.9-3.5-1.4-5.9-1.4-7v-0.7c0-2.1,1.2-4.8,3.7-8.2
		c3.7-2.9,6-4.4,6.8-4.4c2.6-1.1,6.7-2.1,12.1-3l0.5,0.2c0.3-0.1,0.5-0.2,0.7-0.2c0,0.1,0.1,0.2,0.2,0.2l0.3-0.5
		c1.3,0.6,4.8,1.5,10.5,2.6h0.7c2.5,0,4.7-0.6,6.5-1.8c4.2-1.6,7.8-2.6,10.7-3C317.2,201.3,317.3,201.3,317.4,201.3z M306.7,212.2
		c0.2,0,0.7,0.2,1.6,0.7c0,0.8-0.6,1.2-1.8,1.4l-1.2-0.2c-0.9,0.1-1.4,0.3-1.4,0.5l-0.5-0.3h-1.4c-0.4,0-0.9,0.2-1.4,0.5l-0.5-0.2
		c-0.6,0.1-0.9,0.3-0.9,0.5l-2.6-0.5c-0.6,0.1-1.2,0.2-1.8,0.2c-3-0.9-4.6-1.4-4.9-1.4v-0.5h-0.5l-0.5,0.3c0-0.3-0.9-0.5-2.6-0.7
		c0-0.3-0.5-0.4-1.6-0.5h-1.9c-0.1,0-0.2-0.1-0.2-0.3l-0.5,0.3h-2.1c-2.8,0.4-5.1,1.6-7,3.5c-0.9,0.7-1.8,1.9-2.6,3.7v2.1
		c0,0.9,0.6,2.8,1.8,5.8c0.2,2.2,0.3,3.3,0.5,3.3l-0.2,0.5l0.2,2.1c-0.6,1.5-1,2.8-1.2,3.7c1,3.7,2.3,5.6,4,5.6
		c0,0.2,0.1,0.3,0.2,0.3c0-0.2,0.1-0.3,0.3-0.3v0.3c1.2,0,1.9-0.9,2.1-2.6v-1.8c-0.4-3-0.8-4.5-1.2-4.5l0.2-0.5
		c0-0.1-0.1-0.2-0.2-0.2c0.2-0.8,0.5-2.4,0.9-4.7c0.5-1.5,0.9-2.4,1.2-2.6h0.2c0.3,0,0.5,0.2,0.5,0.7c0,0.7-0.2,1.4-0.5,2.1
		c0,2,0.3,3,0.9,3h0.3v1.2c1.2,2.8,1.8,5.3,1.8,7.4c0,2.4-0.5,3.9-1.6,4.5c-1.7,1.1-3.2,1.6-4.4,1.6c0.1,2.4,0.3,3.5,0.5,3.5
		c-1.1,2.9-1.6,4.5-1.6,4.9c-0.2,0-0.6,0.5-1.1,1.4l0.2,0.5c-0.1,0.9-0.3,1.4-0.5,1.4l0.3,0.5c-0.4,0.8-0.8,1.6-0.9,2.5l0.2,0.5
		l-0.2,0.9l0.2,1.4h-0.2l1.4,3.9c2.1,2.5,3.4,5.1,3.7,7.9c0,0.1,0.2,0.2,0.5,0.2c0,0.1,0.1,1.1,0.2,3c-0.3,0-0.6,1.1-0.9,3.3v3.2
		c-0.3,0.3-0.5,1.2-0.7,2.8h-0.2c0.1,0.3,0.2,0.5,0.2,0.7c-0.8,1.3-1.1,2.2-1.1,2.6c0,0.4,0.2,0.9,0.5,1.4h-0.3
		c0.2,0.8,0.4,1.1,0.7,1.1c0.2-0.9,0.9-1.4,2.1-1.4c1.4,0,2.1,0.9,2.1,2.6c-0.2,0-0.3,0.1-0.3,0.2h0.3l-0.3,0.5
		c0,0.3,0.1,0.6,0.3,0.9c-0.8,4.2-1.8,7.2-3,9.1l-1.9,6c0,0.6-0.2,1.4-0.7,2.1l0.2,1.6l-0.2,2.1c0.3,2,1,3,1.8,3
		c0,0.4,0.1,0.7,0.2,1l-0.2,0.5c0.1,0.3,0.2,0.5,0.2,0.7c-1.2,4.3-2,7.8-2.3,10.5c0.5,0,0.7,0.2,0.7,0.7l-0.3,0.5
		c0.9,2.5,2.4,4.4,4.4,5.6l1.4,0.3h0.2c0.3,0,0.8-1,1.4-3v-1.2c-0.3,0-1-1.2-1.8-3.5c0.1,0,0.8-1.2,1.8-3.5c0.9-0.9,2.1-1.6,3.5-2.1
		l0.2,0.5l0.5-0.2h0.3c0,0.4,0.3,0.7,0.9,0.7v0.3c-0.8,3.5-1.2,5.6-1.2,6.3c-0.1,0-0.2,0.1-0.2,0.3l0.5,1.4
		c-0.2,0.3-0.3,0.6-0.3,0.9v0.5c0.4,0,1.6,1.1,3.5,3.3c0,0.1-0.1,0.2-0.2,0.2c0,1.9,0.5,3.3,1.4,4.2h0.2c0.5,0,1.1-1.5,1.6-4.4v-1.6
		c2.2-3.1,3.8-5.2,4.7-6.1c1.4-0.3,3.1-0.5,5.1-0.7c0.3,0.8,2.1,1.3,5.3,1.4c0.4-0.3,1.6-0.7,3.7-1.2c0.6-0.8,1.3-1.4,1.8-1.6
		c0,0.2,0.1,0.3,0.3,0.3c0.4-0.8,1.9-2.1,4.4-3.9c0.6,0,1.4-0.2,2.4-0.7c0.9,0,1.4,0.6,1.4,1.8c0,0.2-1,1.2-3,3
		c0,0.5-0.3,0.7-0.9,0.7v0.2c0.6,0,0.9,0.2,0.9,0.5l3.7-1h1.2c0.5,0.5,1.6,1,3.3,1.4c0.2,0.8,0.6,1.1,1.1,1.1l-0.2,0.5v0.3
		c0.5,2,0.7,3.3,0.7,3.9v0.3c-0.6,1.8-1,3.7-1,5.8c0.5,2.8,0.7,4.8,0.7,5.8v2.8l0.5,0.7c-0.3,0.5-0.5,1-0.5,1.4v0.3
		c0,0.4,0.1,0.7,0.3,0.7l-0.5,4.2c0.6,3.2,1.4,4.9,2.4,4.9c1.4,0.2,2.1,0.3,2.3,0.3c1.1-1.2,1.6-2.2,1.6-2.8h-0.3
		c0.5-0.7,0.8-1.5,1-2.3c-0.1-1.5-1.1-3.5-2.8-6c0-0.3-0.1-0.5-0.2-0.5c0.4-0.9,0.7-2,0.7-3.5c0-0.7-0.5-1.8-1.4-3.5
		c-0.3-1.1-0.5-2-0.5-2.8v-0.2c0.5-2.4,0.9-5.1,1.2-8.2c0-0.2-0.1-0.3-0.3-0.3l0.3-1.2c-0.3-1.9-0.6-3.1-1-3.5v-1.1
		c0.1,0,0.6-0.1,1.4-0.3c1.8,0.3,2.8,0.8,2.8,1.6c0.4,0,0.6,0.5,0.7,1.6l-0.3,3.7l0.3,1.2h0.7c1.1-1.1,2.1-2.8,3-5.1
		c3.7-2.1,5.8-3.6,6.3-4.7c1.1-0.6,2-0.9,2.8-0.9h0.2c0.5,0.1,0.7,0.7,0.7,1.8c-1.1,1.2-1.6,2.2-1.6,3c2.2,1.4,3.2,3.6,3.2,6.6h0.3
		c0.6-0.8,1.9-1.3,3.7-1.6c2.5,0,3.7,1.6,3.7,4.9v2.4c-0.4,1.7-0.7,2.6-0.7,2.8c0.9,3.7,1.8,5.6,2.8,5.6c1,0,1.8-1.7,2.6-5.1v-2.1
		c0-0.1,0.1-0.2,0.3-0.2c0-0.2-0.1-0.3-0.3-0.3l0.3-2.3v-0.3c0-1.5-0.4-3.4-1.2-5.6l0.5-1.1c0-0.2-0.1-0.3-0.2-0.3l0.2-1.2v-2.1
		c0-0.4-0.2-0.9-0.5-1.4c0.2-0.3,0.3-0.5,0.3-0.7c-0.8-1.2-1.3-2.9-1.4-5.1c0.8-5,1.4-7.5,1.6-7.7c0-0.2-0.1-0.3-0.2-0.3l0.2-1.4
		c0-1.9-1.2-3.6-3.5-5.1c-0.6-0.7-0.9-1.4-0.9-2.1v-0.2c0-0.5,0.2-1.6,0.5-3.3c-0.2,0-0.3-0.1-0.3-0.2c0.5-0.6,1.1-1,1.6-1
		c1.2,0,2,0.7,2.4,2.1l-0.3,0.5v0.7c0,0.4,0.3,1.1,0.9,2.1h0.9c0-0.4,0.3-0.7,0.9-0.9c0.8-1,1.2-2.4,1.2-4.2
		c-0.3-0.5-0.5-0.9-0.5-1.2c0-0.1,0.1-0.2,0.3-0.2c-0.2-1.9-0.6-2.8-1.2-2.8c0-0.3-0.9-1.3-2.6-2.8v-0.3h-0.9
		c-0.2,0-0.3,0.1-0.3,0.3l-3.5-1.2l-0.5,0.3l-0.9-0.5l-4.4,1.4c0-0.2-0.1-0.3-0.3-0.3c0,0.4-0.7,0.8-2.1,1.2
		c-0.3-0.2-0.5-0.3-0.7-0.3c0,0.3-0.7,0.6-2.1,1c-1.7,0.8-2.9,1.5-3.7,2.3c-3.1,1.4-4.8,2.1-5.1,2.1c-0.6,0.6-1.1,1-1.6,1.2
		c-0.1,0-0.2-0.1-0.2-0.3c-1.9,0.5-4.2,0.9-7,1.2l-0.5-0.3c-0.3,0.2-0.5,0.3-0.7,0.3l-1.4-0.7c0,0.2-0.1,0.3-0.3,0.3
		c0-0.2-0.9-0.6-2.8-1.2c-1.3-0.9-2.2-1.4-2.8-1.4c0,0.1-0.1,0.2-0.2,0.2c0-0.3-0.2-0.5-0.5-0.5h-0.7c-0.2,0-0.3,0.1-0.3,0.3
		c-0.5-0.3-0.9-0.5-1.1-0.5c-0.8,0.4-1.4,0.7-1.9,0.7c0-0.3-0.4-0.5-1.1-0.7c-1.4,1.2-2.5,2.7-3.3,4.6c0.4,0.9,0.8,2,1.2,3.5
		c0.2,0,0.5,0.3,0.9,0.9v1.1c0,0.4-0.5,0.7-1.6,1c-2.3-1.3-3.8-3.4-4.7-6.3c-0.1,0-0.2-0.1-0.2-0.3V306c0-1.6,1.2-4.2,3.5-7.9
		c0-0.5,0.1-1,0.3-1.6c0-0.3-1-1.9-3.1-4.7c0-0.4-0.1-1-0.2-1.8c0.1,0,0.2-0.1,0.2-0.2h-0.2c1-3,1.8-4.5,2.3-4.5
		c0.5-0.1,0.7-0.3,0.7-0.5c0.5,0,1.4,0.3,2.6,0.9v1.2c0,0.3,0.2,0.5,0.5,0.5l0.5-0.2c0,0.1,0.1,0.2,0.3,0.2c0-0.1,0.1-0.2,0.2-0.2
		v0.2c0.9-0.2,1.5-0.4,1.8-0.7h0.5c0.1,0,0.2,0.1,0.2,0.3c0.3-0.2,1-0.3,2.1-0.5l0.5,0.2c1.6-0.4,2.9-0.9,3.7-1.6
		c0.4,0,1.7-0.4,3.7-1.2c0.4,0,0.6-0.4,0.7-1.2h0.9c0.4,0,0.9,0.2,1.4,0.5c0-0.1,0.1-0.2,0.3-0.2c0.5,1.8,0.9,2.8,1.2,3
		c0.9,0.6,1.8,0.9,2.6,0.9h0.7c1.1-0.7,1.6-1.7,1.6-3l-0.3-0.5l0.3-0.5c0-1.2-0.9-4.2-2.8-9.1c0-0.3-0.2-0.5-0.5-0.5l0.3-1.2V272
		c0-0.3-0.1-0.6-0.3-0.9c0-1.3,0.5-2.4,1.4-3.2c0-0.5,0.3-1.2,0.9-2.1c0-2.1-0.5-4-1.6-5.8c0-0.8-0.4-1.1-1.2-1.1
		c-0.7,0-1.5,0.3-2.6,0.9c-0.3,0-1.5,0.4-3.5,1.1l-0.5-0.2c0,0.3-0.2,0.5-0.5,0.5h-0.5c0-0.3-1.1-0.7-3.3-1.2
		c-0.5-0.3-0.9-0.7-0.9-1.1c-0.3,0-0.5-0.1-0.5-0.3c-1.9,0.4-3,0.8-3.2,1.2l-1.2-0.3c-0.9,0-2.8,0.7-5.6,2.1c0-0.2-0.9-0.5-2.6-0.9
		c-0.2-1-1.1-2.3-2.6-3.9c0-0.6-0.1-0.9-0.2-0.9c0.3-2.2,0.8-3.9,1.6-5.1c0.6-1.3,0.9-2.5,0.9-3.5h0.3l-0.3-1.2v-2.1
		c0-1.2-0.5-1.8-1.4-1.8h-0.2c0,0.1-0.1,0.2-0.3,0.2c-2.2-1.5-3.2-2.8-3.2-3.7c-0.2,0-0.3-0.8-0.5-2.4c0.2-1.4,0.4-2.1,0.7-2.1h1.2
		c0-0.3,0.1-0.5,0.2-0.5c0.3,0,1.5,0.5,3.7,1.6c1.1-0.4,1.9-1.2,2.3-2.3c0-0.9,0.8-1.8,2.4-2.8v-0.2h0.5c0.2,0,0.4,0.4,0.7,1.1
		l-0.3,1.2v1.2c0,0.1,0.1,0.2,0.3,0.2c-0.3,0.9-0.5,1.7-0.5,2.6c0.2,0,0.3,0.1,0.3,0.3c-0.2,0-1.3,1.1-3.3,3.2l1.6,3h-0.2
		c0,0.2,0.3,0.6,0.9,1.2l1.6-0.3l1.6,0.3c0-0.2,0.1-0.3,0.3-0.3v0.3c1.5-0.4,2.7-1.1,3.7-2.1c0,0.2,0.1,0.3,0.2,0.3
		c0-0.3,1-0.6,3-0.9c0-0.3,1.3-0.5,3.9-0.7l1.6,0.7c0-0.2,0.1-0.3,0.3-0.3c0,0.2,0.4,0.6,1.1,1.2h0.3l0.5-0.3c0,1,0.9,1.7,2.6,2.1
		c0,0.2,0.1,0.3,0.2,0.3h0.7v0.2c1.9,0,3.4-2,4.4-6.1c1.4-0.9,2.2-1.5,2.4-1.8c1.3,0,2.3,0.5,3.2,1.6c0.3,0,0.9,1.5,1.9,4.6v0.3
		c-0.2,1.2-0.7,2.4-1.6,3.5c0,2.9,1,4.9,3,5.8c1.2,0,2.5-1.9,3.7-5.8v-2.1c0-1.3-0.9-5.1-2.6-11.2c0.3-2.2,0.6-3.5,0.9-3.7v-0.3
		c0-1.7-0.4-4.2-1.2-7.4h0.3l-0.3-0.5c0.9-3,1.5-4.5,1.8-4.5c0.3-0.1,0.6-0.8,1-2.1c0-2.9-1.3-4.8-4-5.6c-0.8,0.2-1.2,0.3-1.4,0.3
		l-0.9-0.3l-1.2,0.3c-0.3-0.2-0.5-0.3-0.7-0.3c0,0.3-0.2,0.5-0.5,0.5h-0.5c-0.3,0-0.6-0.1-0.9-0.3c-7.2,1.4-12.4,2.5-15.3,3.3h-1.2
		c0-0.8-1.9-1.5-5.8-2.1l-3.7-1.4l-1.2,0.3c-0.3,0-0.5-0.1-0.5-0.3c-1.4,0-3.1,0.5-5.3,1.4C309.2,210.6,308,211.1,306.7,212.2z
		 M280.4,253.2c0.4,0,1,0.9,1.6,2.6c0.4,0,0.9,2,1.6,6c-0.8,4.1-1.2,6.7-1.2,7.6l-0.7,0.5c0-0.5-0.2-1.5-0.7-2.8v-3.2
		c0-0.4-0.4-0.7-1.2-0.7c0.3-1.2,0.5-1.9,0.5-2.4c-0.6-2-0.9-3.2-0.9-3.7v-0.7C279.8,254.3,280.1,253.2,280.4,253.2z M303.9,296.3
		h0.5c0,0.1,0.1,0.4,0.3,0.7c0,0.2-0.1,0.4-0.3,0.7c0.5,2.4,0.7,4.3,0.7,5.6l-0.3,0.5c0.2,0.4,0.5,1.2,0.7,2.6l-0.3,0.5
		c0.8,3.1,1.4,4.7,1.9,4.7l0.7,3v1.8l0.3,2.4c-0.4,0-0.7,0.7-0.9,2.1l0.2,0.5c-1.5,2.4-2.4,3.5-2.6,3.5h-2.8l-0.5-0.3
		c0,0.2-0.1,0.3-0.3,0.3c0-0.4-0.7-0.8-2.1-1.2c0-0.6-0.3-1-0.9-1.2c-0.6-0.3-0.9-1.1-0.9-2.3c0-2,0.2-3,0.7-3h0.3
		c1.4,1.8,2.3,2.8,2.6,2.8c0.3,0.2,0.5,0.3,0.7,0.3c1,0,1.7-1.2,2.1-3.7c-0.1-3.2-0.5-6.9-1.1-10.9v-0.3c0.6-2.7,0.9-4.8,0.9-6.3
		v-2.1C303.5,296.4,303.6,296.3,303.9,296.3z"/>
	<path class="st1" d="M463.1,199.5c0.3,0.2,0.5,0.3,0.7,0.3c0.2,0,0.3-0.1,0.3-0.3c2.4,0.2,4.6,0.7,6.7,1.4c0.3,0,1.7,0.8,4,2.3
		c0.8,0,2.2,1.8,4.4,5.4c0.3,0,0.9,1.2,1.8,3.7c0.5,0,1.6,1,3.3,3l3,3.7c1.2,2.7,2.6,4.9,4.2,6.8l-0.3,1.2c0.5,0.8,0.7,1.4,0.7,1.8
		v1.4c0,0.8-0.2,1.2-0.5,1.2c0.3,2.7,0.5,4.4,0.5,5.1c-0.3,2.5-0.6,4.1-0.9,4.9c0,0.2,0.1,0.3,0.2,0.3c-0.1,1.2-0.3,1.8-0.5,1.8
		l0.5,1l-0.2,1.6c0.6,2.5,1,3.7,1.1,3.7c-0.1,0.3-0.2,0.5-0.2,0.7c0,0.9,0.3,2.2,0.9,3.9c-0.4,1-0.7,2.9-0.9,5.6
		c-0.9,1.7-1.8,3.8-2.8,6.3l0.3,0.9c0,0.2-0.1,0.3-0.3,0.3l0.3,1.1v0.5c0,0.6-0.1,1.3-0.3,1.9c0.2,0.6,0.3,1.2,0.3,1.8v0.9
		c-0.5,2.1-1.3,4.4-2.4,6.8c0,0.5-0.4,1-1.1,1.4c-0.3,1-1.5,2.1-3.5,3.3c0,0.5-0.9,1.7-2.8,3.5v2.1l0.7,1.6l-0.3,0.5v1.2
		c0.3,2,2.4,4.4,6.3,7.2c0.5,0.4,1.1,1.2,1.6,2.3c-0.2,0.8-0.3,1.2-0.5,1.2c0,2,0.7,3.3,2.1,3.7c1.9,2.4,2.8,3.8,2.8,4.4h-0.3
		c0.6,1.2,1,2.2,1,3v0.3l-2.1,6.5c-0.3,0.7-1,1.5-2.1,2.3c-0.2,1.3-1.2,3.1-2.8,5.4c-1,3.4-2.5,5.9-4.7,7.4c-0.4,0-1,0.5-1.8,1.4
		c-1.4,0.2-2.8,1.3-4.2,3.1c0,1.4-0.9,4-2.8,7.9c-0.5,0-1.2,1.2-2.1,3.7c-1.3,1.1-2.8,1.6-4.5,1.6c-1.1,0-2.4-0.7-4.2-2.1
		c-0.5,0-1.2-0.5-2.1-1.6c0,0.1-0.1,0.2-0.3,0.2c0-0.6-0.5-1.2-1.6-1.8c0-0.3-0.5-0.9-1.6-1.8c0-0.1-0.5-0.9-1.6-2.4
		c-2.2-5.3-3.3-8.6-3.3-10h0.3c-0.6-4.7-1.4-7-2.4-7c-0.9-0.5-2.2-1-3.9-1.4c0-0.3-0.4-0.6-1.2-0.7c-0.8,1.6-1.6,4.4-2.6,8.2
		c-2.4,4.2-4.3,6.3-5.8,6.3c-1.9,0.6-3,1-3.3,1c-1.8,1.9-2.8,3.4-3,4.4l-2.6,1.6h-0.5l-2.8-0.3c-0.1,0.3-1.4,1.1-3.9,2.4
		c0,0.2-0.7,0.7-1.8,1.6c-0.9,2.4-2.6,3.5-5.1,3.5l-4.9-1.4c-0.1-0.4-1.1-1-3-1.8c-4-3.3-6.4-6.1-7.2-8.4l-1.4-2.3c-0.2-1-1-2-2.4-3
		c-0.6-0.9-1.2-2.2-1.8-3.9l0.3-0.5c-0.3-1.9-0.5-3.2-0.5-3.7h0.3l-0.3-0.5c0.3,0,0.6-2.1,0.7-6.3c-2-3-3-6-3-9.1
		c-0.6-2.6-1-6-1.2-10c0-2.4,1.1-7.2,3.3-14.5c0-1.3,0.1-2.5,0.2-3.7c0-0.9-0.5-3.1-1.6-6.8v-3.3c0-0.1-0.1-0.2-0.3-0.2l0.3-0.5
		c0-0.2-0.1-0.3-0.3-0.3l0.3-0.5v-1.2c0-0.1-0.1-0.2-0.3-0.2c0.6-2.1,1-3.9,1.2-5.4h-0.3c0.2-1.1,0.3-1.6,0.5-1.6l-0.2-0.5v-0.5
		c0-0.1,0.1-0.2,0.2-0.2c0-0.2-0.1-0.3-0.2-0.3l0.2-1.6v-1.8l-0.2-1.4c0.1-0.3,0.2-0.6,0.2-1c-0.4-3.6-0.7-6-0.7-7.4
		c-0.3,0-0.7-1.4-1.2-4.2c-3.2-5.9-4.9-11.4-4.9-16.6c-0.2,0-0.3-0.5-0.3-1.4c0-0.2,0.1-0.4,0.3-0.7c-0.2-0.9-0.3-1.6-0.3-2.1v-0.7
		l1.2-7.2c1.6-4.2,2.8-7.1,3.7-8.9c3.2-4.6,8-7,14.3-7c3.1,0,6.3,0.8,9.5,2.3h0.3c0.1,0,0.4-0.1,0.7-0.2l1.4,0.2h0.9l0.7-0.5
		c0.2,0,0.3,0.1,0.3,0.3c1-0.2,1.8-0.4,2.3-0.7v0.3c0.9-0.3,1.9-0.5,3-0.7l0.5,0.3c0.1,0,0.2-0.1,0.2-0.3l1.6,0.3h1.8
		c3.1,0,7.4,0.5,12.8,1.6l0.5-0.3l1.2,0.3v-0.3c0.2,0,0.3,0.1,0.3,0.3c1.8-0.2,2.9-0.4,3.2-0.7v0.2l3-1.8l0.5,0.3h0.3
		c0.8-0.8,2.5-1.5,5.1-2.1c0-0.4,2.3-1,7-1.9C462,199.9,462.8,199.8,463.1,199.5z M459.9,206.7h-0.5v0.5c-0.2,0-0.3-0.1-0.3-0.2
		c-4.9,1.2-8.3,2.4-10.3,3.5c-1.6,0.3-3.5,0.9-5.6,1.8c0-0.1-0.1-0.2-0.3-0.2c0,0.3-0.2,0.5-0.5,0.5c0.2,0.3,0.3,1,0.5,2.1H441
		c-0.2,0-1.8-1.5-4.7-4.5h-7.9c-0.5,0-1.1,0.2-1.6,0.7h-1.8c-0.5,0-1.1,0.2-1.6,0.7h-1.4c-2.1,0-3.5,0.2-4.2,0.7l-0.9-0.2
		c-0.3,0.2-1.3,0.5-2.8,0.7c-0.3-0.1-0.5-0.2-0.7-0.2v0.2c-0.6-0.1-1-0.3-1-0.5l-0.5,0.3l-1.6-0.3v0.3c-3.2-1.7-5.8-2.6-7.7-2.6
		h-0.7c-4,0-6.3,1.4-6.8,4.2c0,0.6-0.9,3.7-2.6,9.3c-0.6,2.3-0.9,3.6-0.9,3.7c0,0.2,0.1,0.3,0.2,0.3c-0.1,0.8-0.3,1.1-0.5,1.1
		c0.2,0.2,0.3,1.1,0.5,2.8c-0.1,0.3-0.2,0.5-0.2,0.7h0.2c-0.1,0.6-0.3,0.9-0.5,0.9l0.3,0.5c0,0.1-0.1,0.2-0.3,0.2
		c0.5,0.9,0.7,1.5,0.7,1.9h-0.3c0.2,1.2,0.7,2.9,1.6,4.9c0.5,0,0.7,0.2,0.7,0.7h1.2c2.8-1.9,4.2-3.2,4.2-3.7v-0.2
		c0-1.1-0.5-3-1.4-5.6l0.7-0.5h0.7c1.4,0,2.7,2.2,4,6.6c0,0.8-0.8,2.2-2.4,4.2c-1,2.8-1.8,4.2-2.6,4.2c-1,0-1.5,0.2-1.6,0.7v0.5
		c0,0.2,0.5,1.5,1.4,3.7c0.3,0.2,0.8,2.7,1.4,7.4l-0.3,2.1l0.3,0.5c-0.9,2.6-1.7,7.7-2.3,15.4c0,0.7,0.3,1.7,0.9,3l-0.3,0.5l0.5,2.1
		h-0.2c0.4,1.8,0.7,2.9,0.7,3.3v2.3c-0.7,4.4-1.7,9-3,13.5c-0.3,1.5-0.5,2.4-0.5,2.6v0.3c0,0.3,0.1,0.7,0.3,0.9
		c-0.3,0.6-0.5,1.2-0.5,1.6c1.7,2.1,2.6,3.8,2.6,5.1v0.5c-0.5,0.5-0.9,1.4-1.2,2.8c0.1,0.3,0.3,1,0.5,2.1c0.6,0,1.6-0.8,2.8-2.3h0.2
		c0.5,0.1,0.7,0.3,0.7,0.5l0.5-0.3h0.5l0.2,1.6v0.9c-1.8,1.8-2.8,4.3-2.8,7.5c0.1,0.3,0.2,0.5,0.2,0.7H399v0.9
		c0,0.5,0.1,0.7,0.3,0.7l-0.3,1.2v3.2c0,2.4,0.5,3.5,1.6,3.5c3.1,0.2,4.7,1.1,4.7,2.8l0.3,0.5c-0.2,0.9-0.3,1.6-0.3,2.1v0.7
		c0,0.4,0.2,1.1,0.5,2.1h-0.2c0,1,1,2.7,3,5.1l0.5-0.3l0.5,0.3c0.9-1.2,1.5-3.9,1.8-8.2c0.8-1.9,2.2-2.8,4.2-2.8
		c0.3,0.2,0.5,0.3,0.7,0.3c0-0.2,0.1-0.3,0.2-0.3c0,0.4,0.5,0.8,1.4,1.4c0,2.1,0.8,3.3,2.3,3.7c1.3,0,2.3-1,2.8-3
		c0.1,0,0.2-0.1,0.2-0.3c0-1.7-0.6-2.6-1.8-2.6c-1.7-1-3.1-2.7-4-5.3V329l1.2-0.2h0.3c0.7,0,1.8,0.5,3.2,1.6v1.4h0.3
		c1.8-0.8,2.8-2.8,2.8-6c0-1.6,0.2-4.1,0.7-7.5l-0.2-0.5c0.1-0.3,0.2-0.6,0.2-0.9l-0.5,0.3l-0.3-0.5l0.5-0.3c0.2,0,0.4,0.2,0.7,0.7
		h-0.2c0,0.1,0.1,0.2,0.2,0.2l-0.2,1.2c0.2,0.6,0.4,0.9,0.7,0.9c0-0.1,0.1-0.2,0.3-0.2c0,0.7,0.7,2.7,2.1,6.1c0,1.8,0.2,3,0.7,3.7
		l-0.5,1l0.3,0.5l-0.5,1.6c0.1,0,0.2,0.1,0.2,0.2c-1.4,1.5-2.1,2.5-2.1,3l0.7,0.5c3.7-0.1,5.6-0.4,5.6-0.9l2.4-9.1l-0.3-0.5v-0.9
		c0-1.4-0.5-3.3-1.6-5.8c-0.3-1.5-0.5-2.9-0.5-4.2c0-0.5,0.1-0.9,0.3-1.2l-0.5-3.9h0.2c-0.1-0.3-0.2-0.5-0.2-0.7
		c0-1.3,0.3-2.8,0.9-4.7c-0.2-0.3-0.3-0.5-0.3-0.7c0.2,0,0.7-0.9,1.4-2.6c0.2,0,0.3-0.1,0.3-0.3v-1.1c0.4,0,0.7-0.5,0.9-1.4
		c0.3,0.2,0.5,0.3,0.7,0.3l0.9-0.5c2.2,0.5,3.3,1.5,3.3,3c0.4,0,1.1,1.4,2.1,4.2c0.5,0,1.1,1,1.6,3v1.6c-0.3,0-0.9,0.8-1.8,2.3v5.4
		c0.3,0.2,0.7,1.4,1.2,3.5c0.4,0.4,0.8,0.7,1.4,0.7h1.2c0.7-0.2,1.3-1.1,1.8-2.8c1.6-0.7,2.4-1.8,2.4-3.3c0.2,0,0.6-1.2,1.1-3.5
		l1.6-1.4c1,0,1.6,0.9,1.8,2.8h0.3l-1.8,7.2l-1.4,1.2c0.2,1.3,0.9,2.5,2.1,3.7c0-0.2,0.1-0.3,0.3-0.3v0.3c0,0.1-0.1,0.2-0.3,0.2
		c0,0.3,1.1,1.6,3.3,4l1.4,3.9l-0.2,1.6v0.9l0.2,1.4l-0.2,0.5c1.5,5.5,3,9.1,4.7,10.7h0.9c1.8-1.9,2.8-4,2.8-6.3
		c-0.1-2.1-0.4-3.1-0.7-3.1c0-1,0.5-2.2,1.4-3.7c0.9-1.3,1.9-2.2,3-2.8c0.3,0.2,0.5,0.3,0.7,0.3c0-0.3,0.2-0.5,0.5-0.5l0.5,0.2
		c0.9-0.3,1.6-0.7,2.1-1.4l0.5,0.2c0.6-0.1,0.9-0.3,0.9-0.5l0.5,0.3h0.3c0.9-1.5,1.4-2.7,1.4-3.5l-1.6-0.9c0,0.1-0.1,0.2-0.3,0.2
		c-0.6-0.7-0.9-1.2-0.9-1.6c0.2-0.6,0.6-1.1,1.4-1.6l0.5,0.3l0.5-0.3l0.5,0.3l1.4-0.7c0.2,0,0.3,0.1,0.3,0.3c1.7,0,3.5-1.9,5.3-5.6
		c0.5-0.3,1-1.6,1.4-3.9c0-0.4-0.8-0.9-2.3-1.4c-1.2-0.8-1.8-1.3-1.8-1.6h-0.5v-1.6c0-0.4,0.1-0.7,0.2-0.9c-0.7-1.9-1.4-2.9-2.1-3.1
		c-0.3-0.5-1.1-0.9-2.3-1.4l-3.7-6.3c-0.5-1.8-0.9-2.8-1.2-2.8l0.3-0.5l-0.5-0.7l0.2-0.5c-0.1,0-0.4-0.5-0.9-1.6
		c0-0.1,0.1-0.2,0.3-0.2c-0.8-4.2-1.9-6.3-3.3-6.3c0-1-0.8-2.4-2.3-4.2c0,0.2-0.1,0.3-0.3,0.3c0-0.2-0.4-0.7-1.2-1.6
		c0-0.9,0.3-1.4,1-1.6l0.5,0.3c1.2-0.2,1.8-0.4,1.8-0.7c0.3,0,0.6,0.4,0.9,1.2c1.5,1.8,2.6,2.8,3.3,2.8h0.5c0.6,0,1.4-0.5,2.1-1.6
		c2.2-1.4,4.1-3.7,5.8-7c1.1-1.3,1.6-2.5,1.6-3.5l0.3-1.6h-0.3l0.3-0.5c0-3.6-0.9-5.8-2.8-6.5c-2.2-1.6-3.2-3.3-3.2-5.1
		c0.6-2.7,1.1-4,1.4-4l1.4,0.3l0.5-0.3c0.2,0,0.6,0.4,1.2,1c-0.3,0.7-0.5,1.7-0.5,3v0.5c0.2,0.8,1.5,1.6,3.7,2.6
		c0.6,0,1.1-1.8,1.6-5.4l-1.1-9.8v-0.9c0-0.1-0.1-0.2-0.3-0.2l0.3-0.5V240c0-0.1-0.1-0.2-0.3-0.2c0.2-1,0.4-1.4,0.7-1.4
		c0-0.1-0.1-0.2-0.3-0.2c0.3-1.8,0.5-3,0.7-3.5c-0.2-0.3-0.3-0.5-0.3-0.7l0.3-0.9c-1.3-4.4-2.4-7.4-3.3-8.9c-1.2-2-2.5-3.7-3.9-5.1
		c-0.3,0-0.5,0.1-0.5,0.3c0,0.8-0.5,1.2-1.6,1.4h-0.7c0-0.5-0.6-0.9-1.8-1.4c0-0.3-0.1-0.5-0.3-0.5l0.3-1.2V216
		c0-2.6-1.5-5.3-4.4-8.2c-0.3,0-1-0.2-2.1-0.7c-0.3,0.2-0.5,0.3-0.7,0.3l-0.9-0.9L465,207c0-0.3-0.2-0.5-0.5-0.5l-0.5,0.2v-0.2
		l-0.5,0.2l-1.4-0.2C461.4,206.6,460.6,206.7,459.9,206.7z M404.4,272.9c0.8,0.1,1.4,2.4,1.8,6.8c1.1,1.3,1.9,3.5,2.4,6.8
		c-1,3.9-1.5,7.8-1.6,11.9c-0.5,0.6-0.9,1.5-1.2,2.6c0.4,0.6,0.7,1.6,0.9,2.8h0.5c0.3,0,0.5-0.2,0.5-0.5c0.3,0.2,0.5,0.3,0.7,0.3
		l3.3-2.1c2.3,0.5,3.5,1.7,3.5,3.5l0.3,0.9c-0.2,1.1-1.5,2.2-3.7,3.3v-0.3c-0.8,0.2-1.2,0.3-1.2,0.5c-3.8-0.3-5.9-1-6.3-2.1
		c-1.2-1.1-1.8-2.2-1.8-3.2c0-3.1,0.5-6,1.6-8.7c1.2-4,1.8-7.1,1.8-9.3c-0.6-1.5-0.9-2.6-0.9-3.3l0.3-0.5c-0.6-1.7-1-3.2-1-4.4v-1.2
		l0.3-1.4l-0.5-1.2C404.3,273.6,404.4,273.2,404.4,272.9z M441,234c1.2,0.7,2.5,1.9,4.2,3.7c0.6,0,1,0.6,1.2,1.8h1.2
		c0.9,0.5,1.9,1,3,1.4c2.6,0.6,3.9,1,3.9,1.2h0.3v-0.2c1.4,0,2.3,1.6,2.8,4.9c-1.2,1-2.1,2.9-2.8,5.6c0,1.6,0.5,2.5,1.4,2.6
		c-0.2,0.3-0.3,0.5-0.3,0.7c1,1.3,1.4,2,1.4,2.3c0,0.8-0.5,1.5-1.6,2.1c-1.1-0.3-1.9-0.6-2.4-0.9l-0.2,0.5c-0.3-0.2-0.5-0.3-0.7-0.3
		c-0.9,0.4-1.8,1.1-2.6,2.1c-0.6,0-1.6,0.5-2.8,1.6c0,0.2,0.1,0.4,0.2,0.7v3.5h0.3v0.7l0.2,1.1c-1.5,0.6-2.3,1.1-2.3,1.4v0.2H445
		c-0.3-0.3-1.1-0.5-2.4-0.7c0-0.4-0.6-0.8-1.8-1.2c-0.1-0.5-0.5-1-1.2-1.6l-0.7-1.8h-0.3c-1.5,0-2.9,1.7-4.2,5.1
		c-0.4,0-0.7,0.2-0.7,0.7l-1.2-0.2h-0.9c0-0.3-0.4-0.9-1.2-1.6c0.3-0.7,0.5-1.5,0.5-2.4c-0.3,0-0.6-0.7-0.9-2.1
		c0.1-0.3,0.2-0.5,0.2-0.7c-0.3-1.1-0.6-1.9-0.9-2.4V261c0-0.5-0.1-1.2-0.2-2.1c0-0.3,1.1-2.5,3.2-6.5c0.2-1.1,0.3-2,0.3-2.8
		c-1.4-2.1-2.2-3.2-2.6-3.3c0-0.8-0.2-1.2-0.5-1.2l-1.9-2.3v-0.3c0.1-0.3,0.5-0.6,1.2-0.9l0.5,0.3l0.9-0.3c0.3,0,1.6,0.7,3.7,2.1
		c0.8,0,1.8-0.6,3-1.8c0.8,0,1.8-1,3-3.1c0.2-0.3,0.3-0.6,0.3-0.9c-1.6-1-2.4-1.8-2.4-2.6v-0.7C439.2,234.5,440.2,234.3,441,234z
		 M437.5,258.4v0.3l2.8-0.7c1.1,0.1,1.6,0.3,1.6,0.5c0.4,0,1.5-0.9,3.2-2.8c1.6-0.6,2.5-1.2,2.6-1.6c-0.1-2.2-0.2-3.6-0.2-4.2
		l0.2-0.5c-0.2-1.1-0.6-1.6-1.4-1.6c-0.2,0-1.9,1.7-5.1,5.1c-1.4,0.5-2.1,1.5-2.1,2.8C438.5,257.1,438,258,437.5,258.4z"/>
</g>
</svg>
