<?xml version="1.0" encoding="utf-8"?>
<!-- Generator: Adobe Illustrator 26.5.0, SVG Export Plug-In . SVG Version: 6.00 Build 0)  -->
<svg version="1.1" id="Ebene_1" xmlns="http://www.w3.org/2000/svg" xmlns:xlink="http://www.w3.org/1999/xlink" x="0px" y="0px"
	 viewBox="0 0 699 298" style="enable-background:new 0 0 699 298;" xml:space="preserve">
<style type="text/css">
	.st0{enable-background:new    ;}
	.st1{fill:#FFFFFF;}
	.st2{fill:#FA9917;}
</style>
<g class="st0">
	<path class="st1" d="M127,26.9l0,45.8c6.2-0.1,12.8-0.3,19.8-0.5c0.3,7.6-0.1,14.2-1.2,19.8c-10.2,1-23.7,1.2-40.3,0.7
		c0.7-33.7,0.9-55.5,0.6-65.2C113.7,26.9,120.8,26.7,127,26.9z"/>
	<path class="st1" d="M196,26.5c-0.7,7.9-1,14.6-1,20.2l-24.1,0.2l0.2,5.4l16.8-0.5l0.5,15.6c-4.3,0.4-9.9,0.7-16.7,0.9l0.1,4.8
		c7.2,0,15.1-0.2,23.9-0.8c0.2,8.2,0.5,14.6,1,19.3c-8.5,0.2-23.9,0.6-46.2,1.1c0.3-17.7,0.3-32.9,0-45.6l-5.5,0.1l-0.5-19.9
		C154.1,27.2,171.3,26.9,196,26.5z"/>
	<path class="st1" d="M259.1,26.3c0.8,8.3,0.6,15.8-0.4,22.6c-6.6-0.3-12.9-0.2-19,0.3l0.5,42.7c-8,0.4-15.6,0.5-22.9,0.3l1.2-43.2
		c-6.2,0-12.3,0.1-18.3,0.4c-0.5-7.6-0.5-15.4,0-23.3C219.5,26.5,239.1,26.5,259.1,26.3z"/>
	<path class="st1" d="M272.9,15.8c6.4,0.6,9.9,4.2,10.6,10.7c1.4,7.8-3.8,14.1-15.8,18.8c-2.7,0.7-3.4,0.2-2-1.6
		c4.2-2,6.4-5.3,6.7-9.9c-7.5,0.4-11.5-1.4-12.1-5.2c-0.5-2.8,0-5.5,1.7-8.2C264.6,16.8,268.2,15.3,272.9,15.8z"/>
	<path class="st1" d="M271.8,88.6c0.2-6.9,0.5-14,0.8-21.5c9.5,5.4,17.7,7.8,24.6,7.1c3.1-0.6,4.6-1.8,4.5-3.8
		c0-1.2-1.5-1.7-4.5-1.4c-4,0.1-6.7,0-8.2-0.2c-1.3,0-3-0.2-5.1-0.7c-3-0.6-5.6-1.5-7.7-2.7c-2.1-1.1-3.8-2.9-5.1-5.2
		c-1-1.7-1.7-3.8-2-6.3c-0.6-8.7,1.7-16,7.1-21.9c9.1-8.9,23.6-9.9,43.5-3.1l-0.4,21.7c-5-2.7-9.5-4.4-13.5-5.3
		c-8.7-1.8-13.2-0.8-13.5,3.1c0,2.5,2.7,3.4,8.1,2.6c5.5-0.7,10.3-0.2,14.2,1.2c3.9,1.5,6.6,3.9,8.2,7.3c1.8,5.9,2,11,0.5,15.5
		c-3.9,11-12,17.2-24.3,18.7C290.3,94.4,281.2,92.7,271.8,88.6z"/>
	<path class="st1" d="M350.2,29.7c14.2-3.9,27-4.8,38.2-2.5c9.7,2.9,15.1,9.8,16.4,20.8c0.1,14.3-6.4,22.4-19.5,24.6
		c-3.1,0.5-5.6,0.9-7.6,1.2c0.1,7,0.4,13.2,0.9,18.8c-7.7,0.3-14.8,0.5-21.6,0.6c-0.3-18.4-0.3-33.4,0-45.2l-5.7,0.7L350.2,29.7z
		 M376.8,56.7c6-0.3,9.3-2.1,9.7-5.5c0-2.4-0.7-4.1-2.2-5.2c-2.8-1.6-5.3-1.8-7.7-0.7C376.1,49.2,376.2,52.9,376.8,56.7z"/>
	<path class="st1" d="M429.9,26.9l0,45.8c6.2-0.1,12.8-0.3,19.8-0.5c0.3,7.6-0.1,14.2-1.2,19.8c-10.2,1-23.7,1.2-40.3,0.7
		c0.7-33.7,0.9-55.5,0.6-65.2C416.6,26.9,423.7,26.7,429.9,26.9z"/>
	<path class="st1" d="M463.6,26.4c10.7,0.5,20.5,0.5,29.2,0l16.9,65c-5.5,0-12.2,0.6-20.3,1.8l-3-13.7c-4.1-0.3-7.7-0.4-11,0
		c-1.9,5.8-3.2,10.3-4,13.4c-6.3-1-13-1.8-20.1-2.4l14.6-46.5l-6.6-0.5L463.6,26.4z M480.6,53.7c-0.8,2.4-1.6,5.6-2.4,9.4
		c1.4,0,2.8-0.1,4.2-0.2C482.1,59.6,481.5,56.6,480.6,53.7z"/>
	<path class="st1" d="M555.1,93.8c-7.7,0.1-14.9,0-21.7-0.3c-0.1-10.1-0.1-20.8,0-32.2c-4.9-4.7-11.9-11.3-21.2-19.6L528.1,25
		c6.1,6.7,11.6,12.6,16.4,17.6c4-5.1,9-11,14.8-17.8c5.9,5.1,11.1,10,15.8,14.5c-5.8,6.6-12.5,14.1-20.1,22.4
		C555.1,73.2,555.1,83.9,555.1,93.8z"/>
</g>
<g>
</g>
<g class="st0">
	<path class="st2" d="M59.6,138.8c1.4,0.2,2.2,0.4,2.6,0.7h1.2c0.2,0,0.3-0.1,0.3-0.3c0.9,0.6,2,1,3.2,1.2l0.5-0.3
		c1.2,0.6,1.9,0.9,2.1,0.9c0-0.1,0.1-0.2,0.3-0.2c0,0.1,0.1,0.2,0.2,0.2c0-0.1,0.1-0.2,0.3-0.2c0,0.2,0.2,0.4,0.7,0.7h0.3
		c0.1,0,0.2-0.1,0.2-0.3c0.2,0,0.3,0.1,0.3,0.3c3.6-0.3,5.3-0.6,5.3-0.7c0.3,0.1,1.1,0.3,2.4,0.5v-0.3l0.5,0.3l0.5-0.3
		c0,0.3,1,0.8,3,1.4c1.4,1,2.6,2.2,3.7,3.7c0.9,1.2,2.9,3,6,5.6c0.6,0.9,1.2,1.6,1.8,2.1c0,2.2,0.8,5.3,2.3,9.5
		c0.3,1.6,0.5,2.7,0.5,3.3c-0.1,0.8-0.2,1.3-0.2,1.4l0.2,1.4l-0.2,0.5l0.2,0.5c0,2.5-0.8,4.5-2.5,6c0,0.2-0.5,1.3-1.4,3.2
		c2,4.6,3,7.7,3,9.3h0.3l-0.3,0.5v2.3c0,0.2,0.1,0.3,0.3,0.3l-0.3,0.5c0.1,1.1,0.2,1.6,0.5,1.6c-0.1,0.3-0.2,0.5-0.2,0.7
		c0,5.3,1.3,9.4,3.9,12.4c0,0.4,1,1.8,3,4.2c2.6,4.4,3.9,7.2,3.9,8.6s0.1,2.5,0.3,3.5l-0.5,3.2c0.6,1.1,1,1.6,1.1,1.6
		c0.5,0,1,1.6,1.6,4.9c0.7,0.3,1.4,2,2.1,5.1c0.9,0.9,2.4,4.7,4.4,11.4c1.4,5.1,2.1,8,2.1,8.6c0,2.6-1,4.9-3,6.8
		c-0.8,0-1.6,1.8-2.3,5.3c-1,1.7-2,3.1-3,4.2c-1.2,0.8-2,1.1-2.4,1.1c-0.9,0.4-1.4,0.7-1.4,1l-0.9,0.7l-0.5-0.2l-1.6,1.4v0.7
		c0.5,0.4,0.9,1.5,1.2,3c0,0.2,0.5,1.4,1.4,3.5l-0.5,3l0.2,1.4c-0.3,1-0.5,1.6-0.5,1.8h0.3l-0.9,2.1l0.2,1.2l-2.1,3.5
		c-3.2,1.5-5.7,2.3-7.4,2.3c0-0.3-0.2-0.5-0.7-0.7c-0.3,0.1-0.5,0.2-0.7,0.2c-3.4-1.3-5.1-2.7-5.1-4.2c-1.1-1.4-1.6-2.5-1.6-3.5
		c0.2-0.3,0.3-0.5,0.3-0.7h-0.3l0.3-0.5v-2.6c0-2.6-0.5-3.9-1.6-3.9c0-0.2-0.6-0.5-1.8-1v-0.2h-1.2c-0.2,0-0.3-0.1-0.3-0.3
		c-0.8,0.3-1.3,0.5-1.6,0.5c0-0.2-1.6-1.2-4.9-3.2c-1.4-1.6-2.3-3.5-2.6-5.6c-0.2-0.9-0.5-2.5-0.9-4.9v-3.3c0-1.2-1.2-2.9-3.7-5.1
		c-0.8-1-1.3-2.3-1.6-3.7h-0.7c-1.4,0-3.3,1-5.6,3c-0.3,1.4-0.5,2.3-0.5,2.6c0,0.1,0.1,0.8,0.3,1.9l-0.3,0.5
		c0.2,0.3,0.3,0.6,0.3,0.9c-1.2,1.5-2.3,2.5-3.5,2.8c0,1.8-0.9,4-2.8,6.6c-0.6,1.5-2,2.9-3.9,4.2c-0.3-0.1-0.5-0.2-0.7-0.2
		c0,0.3-1.5,0.5-4.4,0.5l-1.8-1.4h-0.3c-0.3,1.4-0.5,2.4-0.5,3v0.2c0,0.7,0.2,1.3,0.5,1.8h-0.2c0.6,1,1,2.8,1.1,5.6l-2.3,5.1
		c-0.8,0.6-1.5,1.4-2.1,2.6c-0.8,0.5-1.4,0.7-1.8,0.7H38c-3.1,0-5.3-0.9-6.5-2.8c-0.8,0-1.9-3.5-3.3-10.5c0-0.2,0.1-1,0.3-2.3
		c0-0.5-0.1-1-0.3-1.6c0.2-1.5,0.3-2.9,0.3-4.2v-4.4c0-0.3-0.2-0.5-0.5-0.5h-0.3c-1.1,1-2.6,1.7-4.7,2.1c0,0.1-0.1,0.2-0.2,0.2
		c-1.3,0-3.2-0.9-5.8-2.6c-0.5,0-1.4-0.5-2.8-1.4c-1.7-0.7-3.2-2.3-4.4-4.9c-1.4-3.2-2.1-6.4-2.1-9.8c0-0.6-0.7-1.4-2.1-2.3
		c-1.2-1.6-2-3.7-2.6-6c0-2.9,0.7-6.8,2.1-11.6c1.7-1.9,2.7-3.4,3-4.5c0.6,0,1.7-4.7,3.2-14.2c3.1-7.9,6-14.9,8.9-20.9
		c-0.2,0-0.3-0.1-0.3-0.3c0.7,0,1.2-2.6,1.4-7.7c0.1,0,0.3-1.1,0.7-3.2l-0.2-0.5l0.2-1c-0.1-0.4-0.3-0.7-0.5-0.7l0.3-1.2
		c0-0.7-0.2-1.4-0.5-2.1h0.2L21,177v-3.5c0-0.2-0.1-0.3-0.3-0.3c0.2-1.7,0.3-2.6,0.5-2.6l-0.2-0.5c0-0.2,0.1-0.4,0.2-0.7
		c-0.1-0.8-0.2-1.5-0.2-2.1h0.2c0-0.2-0.1-0.3-0.2-0.3c0-1.6,0.6-3.9,1.8-6.8c0-0.2,1.2-3.1,3.7-8.8c2.2-2.1,3.9-4.4,5.1-7l5.8-3.5
		v0.5h0.3l0.7-0.5h1.6c0-0.4,0.3-0.6,0.9-0.7v0.7c0.2,0,0.4-0.1,0.7-0.2l1.1,0.2l0.3-0.5c2.5,0.4,4.7,0.8,6.5,1.2
		c0.7-0.5,2.7-1.1,6-1.8l0.3-0.5l0.5,0.2c1-0.4,1.7-0.7,2.1-0.7c0.3,0.1,0.6,0.2,0.9,0.2L59.6,138.8z M53.4,145.8l0.7,0.5l0.5-0.2
		c2.7,1.3,4,2.6,4,3.7c-0.4,1.6-0.9,2.4-1.4,2.4c-0.8,0-2-0.8-3.7-2.4c-3.1-1.7-4.9-2.6-5.6-2.6c-0.7-0.4-2.7-0.8-6-0.9
		c0-0.1-0.2-0.2-0.5-0.2l-0.5,0.2l-1.4-0.2c0,0.1-0.1,0.2-0.2,0.2v-0.2c-1.1,0-2.6,1.1-4.4,3.2c-1,0.4-1.8,1.2-2.4,2.6l-2.1,6
		c-0.9,1.9-1.7,4.1-2.3,6.5h0.2l-0.5,1.2c0.2,0,0.3,0.1,0.3,0.3c-1,0-1.7,2.8-2.1,8.4c0.1,0.6,0.3,0.9,0.5,0.9l-0.2,0.5v1
		c1.8,0,3.3-1.8,4.4-5.4c0.1,0,0.3-1.1,0.5-3.2c-0.2,0-0.3-0.1-0.3-0.3c0.5,0,0.9-0.9,1.2-2.8h0.3c0.3,0,0.5,0.2,0.5,0.5v1.6
		c1.1,0,1.6,1,1.6,3c0.2,0.9,0.3,1.7,0.3,2.6c0,0.1-0.1,0.4-0.3,1l0.3,0.5c0,1.8-1.2,3.5-3.7,5.1c0,0.8-0.6,2.4-1.8,4.6
		c0,0.6-0.2,1.2-0.7,1.6h0.3c-0.2,0.8-0.3,1.2-0.5,1.2l0.2,0.5c-0.3,1.1-0.5,2.7-0.7,4.9h-0.3l0.3,0.5v0.3c0,0.1-0.1,0.2-0.3,0.2
		l0.3,0.5c-0.4,2.5-0.9,4.1-1.4,4.9c0.1,0.3,0.2,0.5,0.2,0.7c-0.6,0-1.3,1.4-2.1,4.2l-1.8,2.8c-1.6,2.7-2.4,4.3-2.4,4.9
		c-1.7,4.3-3,8.8-3.7,13.5v0.3l0.5,0.2c-0.2,0.9-0.3,1.5-0.3,1.9c0,1.2,0.1,2.3,0.3,3.2c-0.2,1-0.3,2.1-0.3,3.3
		c0.5,1.1,0.7,1.8,0.7,2.1v1.4h-1.2c-0.3,0-0.5-0.2-0.5-0.7h-1.2c-0.9-0.4-1.4-1.2-1.4-2.3h-0.5c0,0.5-0.9,2.2-2.6,5.1
		c0,0.4-0.3,1-0.9,1.8c-0.6,2.2-0.9,3.5-0.9,3.9c0.9,4.7,1.8,7,2.8,7c0.2,0.6,0.5,0.9,0.7,0.9c0-0.2,0.1-0.3,0.3-0.3
		c1.1,1.6,1.9,3.9,2.5,6.8c-0.1,0.3-0.2,0.5-0.2,0.7c0.1,0.3,0.2,0.5,0.2,0.7h-0.2c0.7,3.1,1.5,4.7,2.6,4.7c0.2,0.3,1,0.8,2.6,1.4
		c1.7-0.4,2.6-0.8,2.6-1.1v-1.2c0-0.2-0.1-0.3-0.3-0.3l0.7-3.9V259c-0.7,0-1.3-0.3-1.8-0.9l-0.5,0.2c0-0.3-0.5-0.8-1.6-1.6v-0.7
		c0.4-0.8,1.2-1.2,2.3-1.2c3.2,1.4,4.9,2.5,4.9,3.5c0.2,0,0.4,0.9,0.5,2.6l-0.3,1.2c0.7,0.7,1.6,1.1,2.6,1.2v-0.5h0.7l0.7,0.5H31
		c0.1,0.6,0.6,0.9,1.6,0.9h0.2l0.5-0.3c0,0.4,0.5,1.1,1.4,1.9c0.6,1.8,1.1,3.5,1.4,5.1c-0.2,1.2-0.4,2-0.7,2.5l0.3,0.5
		c0,0.2-0.2,0.7-0.5,1.4c0.1,0.3,0.2,0.6,0.2,0.9c-0.2,0-0.6,1.6-1.2,4.7c-0.2,0-0.5,1.1-0.9,3.2c0,1.8,0.6,4.3,1.9,7.2
		c0.8,0.3,1.3,0.5,1.6,0.5c0.6-0.7,1-1.6,1.2-2.6c0.5-0.1,0.7-0.6,0.7-1.6c0-2.8-0.2-4.6-0.7-5.6c0-0.1,0.1-0.2,0.3-0.2
		c-0.3-1.2-0.5-2.5-0.5-3.9v-0.5c1.4-5,2.8-7.5,4.2-7.5v-0.2h0.9c1.2,0,2,0.5,2.4,1.4c0.6,0.5,1.4,1.1,2.6,1.6
		c0.6-0.3,0.9-0.8,0.9-1.6v-0.2l-0.5-0.7c1.3-1.8,2.3-3.9,3-6.3c0.7,0,1.6-2.5,2.8-7.4l-0.5-0.3l0.3-0.5v-0.9c0-0.9-0.9-2.9-2.8-6.1
		c-1.7,0-2.9-0.9-3.7-2.8c0.3-0.2,1-0.3,2.1-0.5c0.3,0.1,0.5,0.2,0.7,0.2c1.2-0.8,2.4-1.7,3.5-2.8c0,0.1,0.1,0.2,0.3,0.2
		c0-0.2,0.5-0.5,1.6-0.7c0.3,0.4,0.6,1.2,0.9,2.3h0.2v0.3c-0.9,1.1-1.4,2.1-1.6,3c0.9,0.2,1.5,0.5,2.1,0.9h0.3
		c0-0.3,0.5-0.7,1.4-1.2c0.5-3.2,1.1-4.9,1.6-4.9c0-0.3,0.4-0.5,1.2-0.5c0.7,0.1,1.1,0.5,1.4,1.1l-0.3,2.8c0.8,1.4,1.5,2.1,2.1,2.1
		c0.7,0,1.2,0.1,1.4,0.2v-0.2l1.4,0.5c2-0.8,3-2,3-3.7c-0.4,0-1-1-1.9-3l-2.1-4.7c0.6-0.4,1.5-0.7,2.6-0.7c1.8,1.7,3,3.7,3.7,5.8
		c0.9,0.6,1.7,2.4,2.4,5.4v2.1c0,0.4-0.1,0.7-0.3,1l0.3,0.5c-0.2,0.3-0.3,0.6-0.3,0.9c0.2,0.3,0.3,0.5,0.3,0.7
		c-0.5,0-0.7,0.5-0.7,1.6v0.5c0,0.4,0.1,0.7,0.2,0.9c-0.1,0.3-0.2,0.6-0.2,1c0,1.2,0.5,2.1,1.6,2.6c0.1,0,0.4,0.3,0.7,0.9l0.5-0.3
		h0.3c0,0.3,0.4,0.7,1.2,1.2v0.7c0,0.1-0.1,0.2-0.3,0.2l0.5,1.4h-0.2c0.2,0.3,0.3,1.1,0.5,2.4l-0.5,0.2l0.2,1.2v1.2
		c0,0.3-0.1,0.6-0.2,0.9c0.9,4.5,1.9,6.7,3.2,6.7c0,0.2,0.5,0.6,1.4,1.2c0,0.2,0.9,0.3,2.6,0.5l1-0.9v-4.2c0.5-1.2,1.2-2.1,2.1-2.8
		c0-0.4,0.6-1.1,1.9-2.1c0-1.1,0.9-2.2,2.6-3.5c0.6,0,1.2,0.5,1.8,1.4c-0.1,0.3-0.2,0.6-0.2,0.9h0.2l-0.9,2.1
		c0.1,0.3,0.2,0.6,0.2,0.9v0.3l-0.2,0.5c0.1,0,0.2,0.1,0.2,0.3h-0.2c0.1,0.6,0.3,0.9,0.5,0.9l-0.3,0.5v0.2c0,0.5,0.1,0.7,0.3,0.7
		l-0.9,7.7l0.2,0.5c0,0.1-0.1,0.2-0.2,0.2l0.2,1.2c-0.3,5.2-0.7,8.3-1.1,9.3c0,2.3,1.1,3.6,3.2,3.9h0.3c0.5,0,1.4-1.5,2.6-4.4
		c0.5,0,0.9-0.9,1.1-2.6v-1.9c0-2.1-0.5-3.5-1.4-4.4l-1.8-5.3h0.2c-0.8-3.1-1.1-4.9-1.1-5.6h0.2l-0.2-0.5v-1.9
		c0-0.4,0.2-1.1,0.5-2.1h0.5c0.1,0,0.2,0.1,0.2,0.3l0.5-0.3h0.5c1.1,0,1.6,1.1,1.6,3.3v0.3c0.6-0.4,1.6-0.7,2.8-1
		c0-0.6,0.2-0.9,0.5-0.9l0.7,0.5h1.1c1.3-2.1,1.9-3.4,1.9-3.9v-0.2c0-0.5-0.2-1.1-0.5-1.9c0.2,0,0.3-0.1,0.3-0.2
		c-0.3,0-0.8-0.8-1.4-2.4c0.1-0.6,1-1.2,2.6-1.8l0.2-0.5c1.1,0.2,2,0.7,2.8,1.4c0.4-0.5,0.6-1.2,0.7-2.1l-0.2-0.9l0.2-1.2
		c-0.1-0.3-0.2-0.6-0.2-0.9c0.1,0,0.4-0.3,0.7-0.9l-0.2-0.5v-0.3c0-0.1,0.1-0.2,0.2-0.2c0-2.4-1.9-6.5-5.8-12.6
		c-2.6-6.8-4.5-10.3-5.8-10.3c-0.8-0.5-1.4-0.7-1.8-0.7h-0.9c0-0.4-0.3-0.7-0.9-0.9c-0.6-0.8-1-1.2-1.2-1.2c0,0.2-0.1,0.3-0.2,0.3
		c0-0.5-0.4-1.2-1.2-2.3l-0.3-2.8c0-0.5,0.5-0.8,1.6-0.9c0.5,0,1.6,1.5,3.3,4.4c0.6,0.2,1.2,0.3,1.6,0.3c0.4-1.1,0.7-1.6,1-1.6
		l-0.3-0.9l0.3-1.2h-0.3l0.3-0.5v-2.1c-0.4-1.9-1.4-4.3-3-7c-1.5-1.2-2.8-3.1-4-5.8c-2.9-5-4.4-9-4.4-12.1c-0.1,0-0.2-0.1-0.2-0.2
		l0.2-1.4v-0.3c0-0.2-0.1-0.3-0.2-0.3l0.2-0.5v-0.7c0-0.2-0.1-0.3-0.2-0.3c0.1-0.3,0.2-0.5,0.2-0.7c-0.3-0.5-0.5-1-0.5-1.4
		c0.3,0,0.5-0.2,0.5-0.5v-1.1c0-0.8-1-3.8-3-9.1c-0.1,0-0.2-0.1-0.2-0.2v-0.3l0.2-0.5c-0.2,0-1-1.8-2.3-5.3
		c-0.5-0.6-0.7-1.2-0.7-1.8c-0.1,0-0.5-0.9-1.2-2.6c0.8-0.9,1.2-1.5,1.2-1.6c1.1,0,2.3,0.9,3.7,2.6c0.3,0.4,0.6,0.7,0.7,0.7h0.3
		c0.6,0,1.2-0.3,1.6-0.9l-0.3-0.5c0.3-0.5,0.5-1.2,0.5-2.1c-0.1-0.5-0.2-0.9-0.2-0.9l0.2-0.5l-1.6-6.3c-0.2,0-0.7-1-1.6-3
		c-0.8-1.1-1.4-1.6-1.9-1.6c-0.7-1-1.1-1.4-1.4-1.4l-0.5,0.3c-2.5-0.8-4.3-2.1-5.3-3.9l-1.4-1.6l-2.1-0.3c-2,0.6-3,1.2-3,1.6
		c-0.8-0.1-1.1-0.3-1.1-0.5c-0.2,0.2-1.4,0.3-3.7,0.5c-2.6-1.4-4.7-2.4-6.3-2.8c0-0.2-0.4-0.4-1.1-0.7l-1.4,0.3l-1.1-0.3v0.3
		c-0.3-0.2-0.5-0.3-0.7-0.3C54.1,145.2,53.4,145.5,53.4,145.8z M35,213.1h0.3c0.2,0.2,0.6,1.1,1.1,2.8c0.2,0,0.3,0.1,0.3,0.2h-0.3
		c0.6,2.6,1.2,4.1,1.9,4.5c0.9,1.4,1.4,2.6,1.4,3.5c0,0.4-0.2,1.1-0.5,1.8l0.2,0.5c0,0.9-0.7,1.8-2.1,2.8c-0.3,0.8-0.7,1.1-1.1,1.1
		c-1.7,0.4-2.6,0.6-2.6,0.7l-0.5-0.2c-0.2,0-0.3,0.1-0.3,0.2c-1.7-0.4-2.9-1.1-3.5-2.3c-0.3-1.1-0.5-2-0.5-2.6l0.5-0.3h0.7
		c0.6,0,1.2,0.4,1.8,1.2c0.3,0.1,0.6,0.2,0.9,0.2h0.5c0.5-0.1,1.1-1,1.9-2.6l-0.3-0.5c0-0.1,0.1-0.6,0.3-1.4c-1-4.6-1.4-7.4-1.4-8.4
		C34.4,213.5,34.8,213.1,35,213.1z M53.1,180.7c0.9,0,1.6,1.6,2.4,4.9h0.5v0.9c0,1-0.2,2.5-0.7,4.7c0,0.5,0.5,1.6,1.6,3.5
		c0,0.4,0.6,1.1,1.8,1.8c0.1,0.3,0.2,0.5,0.5,0.5c0.3,0,1-0.7,2.1-2.1h0.3v-0.7c0-0.4,0.1-0.7,0.2-0.9c-0.1-0.5-0.4-2-0.7-4.7
		c1.8-1.7,2.9-2.6,3.2-2.6c0,0.9,0.2,1.9,0.7,3.2h-0.3c0.3,0.8,0.5,1.3,0.5,1.6l-0.2,0.5l1.1,3.3c0,0.1,0.2,0.2,0.7,0.2v0.3
		l-0.2,0.5c0.6,0.3,1.1,0.5,1.6,0.5c3.6-3,5.4-4.6,5.4-4.7v-1.6c0-1,0.4-1.8,1.1-2.3c1.2,0,2,1.2,2.4,3.7l-0.3,0.5l0.3,0.5l-0.3,0.5
		c0.2,0.5,0.3,0.7,0.5,0.7l-0.5,1.8l0.3,1.4v1.4c0,0.7-0.2,1.3-0.5,1.9c0,0.1,0.1,0.2,0.2,0.2l-0.7,3v3c0,0.7,0.5,1.4,1.4,1.9
		c0.3-0.2,1-0.3,2.1-0.5c0,0.2,0.1,0.3,0.2,0.3c0-0.3,0.5-1.2,1.4-2.6v-0.5c0.8,0,1.3,1,1.6,3h0.3c0,1.3-1.2,2.6-3.7,3.9
		c0,0.4-0.6,0.6-1.8,0.7c-2.5,0-4-1.9-4.7-5.8c-0.1,0-0.3-0.7-0.7-2.1c0.1,0,0.4-0.3,0.7-0.9c-0.1-1.1-0.3-1.6-0.5-1.6l0.3-0.5V201
		c-0.8,0.5-1.2,1.2-1.2,2.1h-0.3l0.3,0.5c-0.6,0.5-0.9,2.1-0.9,4.9c0.9,1.2,1.4,2.2,1.4,3.2c-1.2,1.1-2.1,1.6-2.6,1.6v0.3l-0.5-0.3
		h-0.3c-1.1,0-2.1,1.1-3,3.3c-0.4,0-1,0.5-1.8,1.6c-0.5,0.5-1.2,0.9-2.1,1.2l-0.5-0.2l-0.5,0.2v-0.2c-0.3,0.1-0.5,0.2-0.7,0.2
		c-1.7-0.2-3.2-0.9-4.4-2.3v-0.5l-0.7,0.5l-0.7-0.5l-0.5,0.2v-0.2l-0.5,0.2h-0.3c-0.3,0-0.5-0.2-0.5-0.7l-0.5,0.3h-0.9l-0.5-1.6
		v-1.1c1.4-1.7,2.1-2.8,2.1-3.3l-0.3-1.2l0.5-0.2c-0.2-1.9-0.8-2.8-1.6-2.8c-1.2,0-2.2,0.5-3.2,1.4h-0.7c-0.8,0-1.4-0.4-1.8-1.1
		v-0.7l0.2-0.5c-0.1,0-0.2-0.1-0.2-0.2c1.2-1.5,2.3-2.3,3.2-2.4v0.3c1.5,0,2.4-1.1,2.8-3.3c0-0.6-0.4-2.2-1.2-4.7
		c0-0.8-0.1-1.1-0.2-1.1c0.4-0.6,0.9-2.4,1.4-5.4c-0.2-0.2-0.3-0.6-0.3-1.2c0.5,0,0.7-0.2,0.7-0.5c-0.3,0-0.5-0.2-0.5-0.5v-0.5h0.7
		C52.6,183.4,52.8,181.7,53.1,180.7z"/>
	<path class="st2" d="M215.3,138.3c1.2,0.5,2,0.7,2.3,0.7h0.3c0.1,0,0.2-0.1,0.2-0.3l0.5,0.3h0.5c0.2,0,0.3-0.1,0.3-0.3
		c1.2,0.5,2,0.7,2.3,0.7c0.3,0,0.5-0.2,0.5-0.5c0.3,0,1.5,0.2,3.5,0.5c0.6-0.3,2.7-0.7,6.3-1.2c6.3,0.6,9.7,1.4,10.3,2.3
		c1.2,0,2,0.4,2.3,1.2c0.3,0,1.3,0.5,3,1.4c0.6,0.3,1.1,0.5,1.4,0.5c2.5,0,5.8-0.8,10-2.4c1.1,0,2.2,0.2,3.2,0.5l1.4-0.2h1.4
		c1.2,0.9,2.2,1.3,3,1.4v-0.3c3.7,0.9,5.6,1.7,5.6,2.4c2.3,1,4.2,3.4,5.8,7c0.5,1.5,0.7,2.4,0.7,2.8v3c0,0.2-0.1,0.3-0.2,0.3
		l0.2,0.5c-0.6,1.8-1.1,4.6-1.4,8.4c-0.3,0-0.5,1.5-0.7,4.4l0.3,1.6h-0.3l1.6,6.7l-0.3,1.4l0.3,1.4l-0.3,1.1c0,0.8,0.2,1.2,0.5,1.2
		l-1,5.8l0.3,0.5l-0.9,1.4c-1.7,2.3-3.1,3.5-3.9,3.5l-1.2,0.5c-0.5,0-1.8-0.3-3.7-0.9v0.3l-3.5-1.4l-0.9-0.5c-1.2,0.4-2,0.9-2.3,1.4
		c-0.3-0.2-0.5-0.3-0.7-0.3c-0.4,0-2.1,0.8-5.1,2.3c-1.1-0.1-1.6-0.3-1.6-0.5l-0.5,0.3c-3.2-1-5.8-2-7.7-3l-1.1-0.3
		c-0.8,0.2-1.6,0.3-2.4,0.3H243c0,0.2-0.4,0.5-1.2,0.9l-0.5-0.3c-0.3,0.2-0.6,0.3-0.9,0.3c0-0.2-0.1-0.3-0.2-0.3
		c-0.3,0.4-1.6,1-4,1.6l-0.2,0.5l-0.5-0.2h-1.2c0,0.4-0.5,0.9-1.4,1.6c0,0.2-0.9,1.3-2.6,3.2l-0.3,1.2c0,0.1,0.1,0.6,0.3,1.4
		c0.2,0,1-0.9,2.3-2.6l2.1-1.8l7.9-2.1c0.1,0,0.2,0.1,0.2,0.2l1.2-0.2l3.2,0.2l0.5-0.2c3.9,1.2,6.2,1.8,6.7,1.8
		c1.1,0.2,1.8,0.3,1.9,0.3c0-0.2,0.1-0.3,0.2-0.3v0.3c1.7-0.4,2.6-0.7,2.6-0.9l5.3-1.6c0-0.5,1.5-0.7,4.5-0.7l5.3,1.2h0.5
		c0,0.5,1.1,1.2,3.3,2.1c3,1.5,4.8,3,5.1,4.4c0.5,0,1,2.2,1.6,6.5c-0.5,1.9-1,4-1.4,6.3c-0.5,1.1-1,2.5-1.4,4.4
		c-0.2,0-0.7,1.3-1.4,3.9c0,0.6,0.4,3.4,1.1,8.4c0,0.1,0.1,0.8,0.3,1.8c-0.3,1.2-0.5,2.7-0.5,4.4v2.4c-1.5,10.1-2.9,15.1-4.2,15.1
		c0,0.4-0.6,1.1-1.8,2.1v0.9h-1.4c-1,0.5-2.3,3.1-4,7.9c-1,1.2-2.3,1.9-3.9,2.1c0,0.3-1.2,1.1-3.7,2.6c0,0.3-0.8,0.7-2.4,1.2
		c0,0.4-1.3,1.5-3.9,3.2c0,0.3-0.9,1.4-2.6,3.3c0,0.6-1.3,2.2-3.9,4.9c-0.3,0-0.9,0.6-1.6,1.9c-1.4,0.8-2.2,1.1-2.3,1.1
		c0-0.1-0.1-0.2-0.3-0.2v0.2l-0.5-0.2h-0.9c-0.2,0-0.3,0.1-0.3,0.2c-1.5-0.6-2.9-1-4.2-1.1c-0.2-0.2-1.6-1.1-4.2-2.6
		c-0.6-0.8-1.2-1.2-1.6-1.2c0,0.1-0.1,0.2-0.2,0.2c-0.1-0.8-0.6-1.1-1.4-1.1c0,0.1-0.1,0.2-0.2,0.2v-0.5h-0.9c-0.7,0-1.5,2-2.6,6
		c-0.3,0.1-0.9,1.2-1.9,3.3l-1.6,2.1c-0.3,0.5-0.5,1-0.5,1.4c0.2,0,0.3,0.1,0.3,0.2c-1.5,1.7-2.7,2.6-3.5,2.6H219
		c-3.7-1-5.5-1.8-5.5-2.6c-1.3,0-2.8-2.4-4.5-7.2c-1.3-4.2-2.3-6.3-3-6.3c-0.5,0-1.6-0.9-3.2-2.6c-0.4,0-1.7-1.5-3.7-4.4
		c-0.7-0.9-1.5-3.1-2.3-6.8c0-0.8-0.9-1.5-2.8-2.3c-1.9-2.2-3.4-3.6-4.4-4.4c-0.1-0.8-0.3-1.2-0.7-1.2h-0.9l-0.5,0.2
		c0-0.2-1.6-0.9-4.7-1.8c-0.6,0-2.3-1.7-4.9-5.1l-2.1-7c0-0.9-0.2-2.3-0.7-4.4v-1.9c0.3-3.5,0.5-5.3,0.5-5.6v-2.6
		c-0.2-1.6-1-4.3-2.3-8.1c0-3.6,0.7-7.1,2.1-10.5c1.1-3.9,1.6-6.9,1.6-9.1c-0.8,0-1.8-3.8-3-11.4h0.2l-0.2-0.5v-0.5
		c0-0.8,0.4-2.6,1.1-5.3c0-0.8,0.4-3.3,1.2-7.7v-2.8c-1.7-1.9-2.6-4.7-2.6-8.4v-0.2c0.2-0.3,0.3-0.6,0.3-0.9h-0.3
		c0.8-1.4,1.5-4.1,2.1-7.9c1.6-3.4,3.4-6,5.3-7.9c1.3-1,4.2-2.7,8.6-4.9v0.3c4.6-1.2,7.4-1.8,8.2-1.8v0.2c5-0.7,7.5-1.6,7.5-2.8
		c3.7-2,6.2-3,7.4-3v0.2C214.5,138.8,215.3,138.5,215.3,138.3z M228.8,146.5v-0.3c-0.1,0-0.2,0.1-0.2,0.3l-1.6-0.3h-0.5l-2.8,0.5
		c-0.4,0-1.1-0.2-2.3-0.5c-0.3,0.2-0.5,0.3-0.7,0.3c0-0.2-0.1-0.3-0.2-0.3c-0.1,0.3-0.5,0.7-1.2,1c0-0.6-1.2-1-3.7-1.2
		c0,0.1-0.1,0.2-0.2,0.2V146c-2.5,0.3-4.9,1.3-7.2,3c-0.9,1.5-1.8,2.3-2.8,2.3l-2.8,1.6c-0.1,0-0.2-0.1-0.2-0.2l-0.5,0.2h-1.6
		c-0.3,0-0.5-0.2-0.5-0.5c-0.3,0-0.9,0.2-1.6,0.5c-0.8-0.1-1.2-0.3-1.2-0.5l-0.5,0.3l-0.5-0.3v0.3c-0.3-0.2-0.5-0.3-0.7-0.3
		c-0.1,0-0.4,0.1-0.7,0.3l-1.4-0.3h-0.9c-5,2.5-7.4,4.2-7.4,5.1c0,0.5-1,1.4-3,2.8l-2.1,7.2c0,1.5,0.6,3.2,1.8,4.9h0.5
		c3.2-1.8,4.9-3.3,4.9-4.7V167c-0.3-0.5-0.5-0.9-0.5-1.2l0.9-0.7h1.6c0.8,0,1.3,1.3,1.4,3.9c0.2,0,0.3,0.1,0.3,0.3l-0.5,0.9
		c0.2,0.3,0.3,0.6,0.3,0.9c-0.5,0-1.1,1-1.8,3c-1.1,1.6-2,2.4-2.8,2.6v1.4c0,0.4,0.1,0.7,0.3,0.7c-0.6,6.4-1.4,10.5-2.6,12.6
		c-0.2,0.4-0.4,1.7-0.7,3.7h0.3l-0.3,0.5v0.9c0,4.3,0.7,6.9,2.1,7.7c1.3,3.5,2.1,6,2.3,7.4c0,0.8-0.4,1.3-1.1,1.6
		c0-0.8-0.5-1.2-1.6-1.2c-1.1,3.3-1.6,5.1-1.6,5.6c-0.3,0.4-0.7,2.6-1.4,6.6c0.1,0.9,1,2.1,2.6,3.7c0.8,1.7,1.2,3,1.2,3.9
		c0,1.1,0.2,2,0.5,2.6c-0.2,0.3-0.3,0.6-0.3,0.9l0.5,0.7v0.7c0,0.7-0.2,1.3-0.5,1.8h0.3c0,0.4-0.5,1.3-1.6,2.8l-0.3,2.3
		c0.5,5.1,1.3,7.7,2.4,7.7c1.3,1.2,2.2,1.8,2.6,1.8c0.4-0.7,0.7-2,0.7-3.7c-0.4-0.8-0.7-1.4-0.7-1.8v-0.2c0.4-0.8,0.9-1.3,1.4-1.4
		v0.3l0.5-0.3h0.5c1.5,0.7,2.3,2.5,2.3,5.4l-0.2,1.6c1.6,2.3,2.8,3.5,3.5,3.5c0-0.2,0.1-0.3,0.3-0.3c0.3,0.6,0.8,0.9,1.4,0.9
		c0-0.1,0.1-0.2,0.2-0.2c0,0.4,0.2,0.7,0.5,0.7l0.5-0.2c2.1,0.9,3.8,2.3,5.1,4.2c0.9,0.7,1.4,1.7,1.6,3l-0.2,0.9
		c0.3,2.5,1.2,5.1,2.6,7.9c1.1,1.3,2.1,2.2,3.2,2.6h0.9c0.9-0.6,1.8-2.3,2.6-4.9l-0.2-1.2v-1.4c0.6,0,0.9-0.2,0.9-0.7
		c2.2,0,3.2,0.6,3.2,1.8l0.3,1.4c-0.3,2.3-0.5,3.8-0.5,4.7c0.3,0,0.5,0.2,0.5,0.5c-0.3,0-0.6,0.3-0.7,0.9l0.3,0.5v2.1l-1.8,6.3
		l0.2,1.4v0.5c0,0.1-0.1,0.2-0.2,0.2c0,0.1,0.3,0.8,0.9,1.9h0.7c0-0.4,0.6-1.5,1.9-3.3c0.4-1.7,0.7-3.3,0.7-4.9
		c0-0.9-0.2-1.7-0.5-2.6c0.7-5,1.4-7.5,2.1-7.5c0.2-0.5,1.4-1.3,3.5-2.3c0-0.1,0.4-0.4,1.2-0.9l0.5,0.2l0.5-0.2l0.5,0.2
		c2.8-0.3,4.2-0.6,4.2-0.9c-1.5-0.8-2.3-1.4-2.3-1.6l0.2-0.5c-0.1,0-0.2-0.1-0.2-0.2c0.3-0.3,1.1-0.5,2.3-0.7
		c3.7,1.3,5.6,2.6,5.6,3.9c0.2,0.1,0.5,0.9,0.9,2.4l-0.2,0.5v0.7c0,0.2,0.1,0.3,0.2,0.3c-0.1,0.3-0.3,1-0.5,2.3
		c0.1,2.2,0.3,3.3,0.5,3.3l-0.2,0.5c0.1,0.5,0.8,1.2,2.1,1.8v0.3c3.1,0,5.4-2.4,6.8-7.2l0.3-2.8c0-0.1-0.1-1.1-0.3-3
		c0.4,0,0.7-0.5,0.9-1.4c0.1,0,0.4-0.4,0.9-1.1l0.5,0.2h0.7c0.6-0.3,0.9-0.5,0.9-0.7l0.5,0.2h0.9l0.5-0.2c0.4,1.3,1.1,2.4,1.8,3.2
		c3.7-1.9,6.2-3.8,7.4-5.8l1.9-5.1c-0.2-0.8-0.3-1.3-0.3-1.4c0.1-1.1,0.3-1.6,0.5-1.6c0-0.6-0.9-1.2-2.6-1.6c0-0.3-0.7-0.9-2.1-1.8
		c-0.6-1.2-0.9-2-0.9-2.4v-0.5c0-0.1,0.1-0.2,0.3-0.2c-0.4-1.3-0.6-1.9-0.7-1.9c0.2-0.8,0.5-1.1,0.9-1.1c0.8,0.2,1.2,0.7,1.2,1.6
		v0.7c0.3,0,0.5,0.2,0.5,0.5h0.5v-0.5h0.3v0.5l0.7-0.5h0.3v0.5c0,0.2-0.1,0.3-0.3,0.3c0.2,0.3,0.3,0.6,0.3,0.9h0.5V248h0.2l0.5,0.2
		c0-0.1,0.1-0.2,0.3-0.2c0,0.3,0.2,0.5,0.5,0.5h0.3c0-0.9,0.3-1.5,0.9-1.9c0-0.3,0.1-0.6,0.2-0.9c-0.1-0.3-0.2-0.5-0.2-0.7
		c0.3-0.2,0.5-0.3,0.7-0.3l-0.2-1.4l0.2-2.1L267,240c0.1,0,0.2-0.1,0.2-0.2c-0.1,0-0.6-0.9-1.4-2.6c-0.1,0-0.2-0.1-0.2-0.3
		c0-0.2,0.3-0.5,0.9-0.9c1.8,0.1,2.8,1,2.8,2.8c1.9,1.7,2.8,3.7,2.8,5.8h0.2c0-0.2,0.1-0.4,0.3-0.7c0-0.1-0.1-0.4-0.3-0.7
		c0.3-2.3,0.5-3.4,0.7-3.5c-0.2-1-0.4-1.8-0.7-2.4l0.5-5.8h-0.2c0-0.2,0.1-0.3,0.2-0.3l-0.2-1.1V230l0.2-1.6h-0.2l-0.5,0.3
		c-1.3-1.1-2-1.6-2.1-1.6v-1.6c0.8-2.8,2.4-6.8,4.9-11.8l0.7-4c-0.5-2.9-1.3-4.4-2.4-4.4c-0.1-0.3-0.4-0.6-1.1-0.9l-0.9,0.3
		c-0.9-0.3-2.4-0.6-4.5-1v0.3c-0.1,0-0.2-0.1-0.2-0.3c-2.6,0.2-3.9,0.7-3.9,1.6l-0.5-0.2c-0.6,0.4-0.9,0.7-0.9,0.9h-0.7
		c-0.8,0-1.2,0.3-1.2,0.9l-0.5-0.3h-0.3c-0.3,0.5-1.7,1-3.9,1.4c-0.1,0.3-0.2,0.5-0.2,0.7l-0.7-0.5l-3.5,0.9l-1.4-0.2h-1.4
		c-0.3,0-0.5-0.4-0.5-1.2c1.2-0.8,1.9-1.2,2.1-1.2v-0.2l-2.3-1.6c-0.2,0-0.3,0.1-0.3,0.3c-0.1,0-1.2-0.2-3.2-0.7
		c-0.5,0.3-1,0.5-1.4,0.5h-0.2c-0.3,0-0.7-0.1-0.9-0.2c-2.2,1.3-3.3,2.7-3.3,4.4c-0.3,0-0.6,1.7-0.9,5.1c0.2,0.3,0.3,0.6,0.3,0.9
		l-0.5,0.2c0,3,0.5,4.5,1.4,4.5h0.7c0-0.2,0.1-0.3,0.3-0.3c0,0.2,0.2,0.5,0.7,0.7h0.7l3-2.6h1.4c0.4,0.3,0.8,0.5,1.2,0.5v0.2
		c0,0.2-0.1,0.3-0.2,0.3c0.1,0.3,0.2,0.5,0.2,0.7c-0.4,1.2-0.8,1.8-1.4,1.8c0,0.4-1,1.4-3,3c0,0.6-0.2,1.2-0.7,1.8v0.3
		c0,0.1,0.1,0.2,0.3,0.2c-1.3,2.3-1.9,4.1-1.9,5.4c0.2,0.8,1.3,1.9,3.5,3.2l1.4,1.6v0.3c0,1.2-0.3,1.9-0.9,2.1h-1.2
		c-0.5-0.5-1.5-1-3-1.4c0-0.9-1.6-1.6-4.9-2.1l-0.5,0.3c-0.5-0.3-0.9-0.5-1.1-0.5v0.2c-0.3-0.1-0.5-0.2-0.7-0.2
		c-0.9,0-2.7,0.5-5.3,1.4l-0.5-0.2c-0.3,0.1-0.5,0.2-0.7,0.2c-0.8-0.5-1.7-1-2.8-1.4v-0.9c1-0.3,1.7-0.5,2.3-0.5
		c-0.9-0.9-1.4-2.3-1.4-4.2h0.2c-0.3-1.7-1.4-4-3-6.8c-0.4-0.9-0.9-2.3-1.4-4.2c-0.2,0-0.8-0.9-1.8-2.8c-0.3,0-0.7-0.5-1.2-1.6
		c0-1.1,1.3-3.8,3.9-8.4c0-0.3,0.6-2.6,1.8-6.8h-0.2l0.2-0.5v-0.5l-0.5-0.7V197c0.1-0.3,0.2-0.5,0.5-0.5c0-0.4-0.6-2.2-1.8-5.6h0.3
		c0.4-0.4,1.1-0.7,2.1-0.7c1.7,3,2.5,4.8,2.5,5.3h0.3c2.3-2,3.5-3.7,3.7-5.1c1.1-0.6,1.6-1.3,1.6-2.1h0.5c0.9,0,2-0.5,3.2-1.6
		c0.1,0,0.6-0.1,1.4-0.3v0.3l1.4-0.7c0.6,0,1.2,0.5,1.6,1.4l0.7,0.5c0.2,0,0.3-0.1,0.3-0.2c0.4,0.1,0.7,0.3,0.7,0.5
		c0.6,0,1.9-1.1,3.7-3.3c1-0.4,1.9-1,2.6-1.6l0.2,0.5l1.2-0.2h0.7c1.7,0,2.6,1.2,2.8,3.7v0.9c1,1.4,2,2.1,3,2.1
		c4.3-1.2,6.5-2.3,6.5-3.3l0.7-2.3c-0.9-2.8-1.4-4.7-1.4-5.8v-2.6l-0.3-1.2c1.4-0.3,2.1-0.5,2.1-0.7c1,0.4,1.5,0.8,1.6,1.2v0.7
		l-0.3,1.2h0.3l-0.3,0.5v0.3c0.7,4.3,1.5,6.5,2.4,6.5c0.3,2,0.9,3,1.6,3c2.5-0.8,3.7-1.8,3.7-3c-1.2-5-1.8-8.3-1.8-10v-1.1
		c0-0.2,0.1-0.3,0.2-0.3c0-0.1-0.1-0.2-0.2-0.2c0.1-1.9,0.4-3.6,0.7-4.9h-0.2c0.1-1.7,0.3-2.6,0.5-2.6c0-0.1-0.1-0.2-0.3-0.2
		c0.6-2.6,0.9-4.3,0.9-4.9v-3c-0.8-5.7-2-8.6-3.7-8.6c-1.2-0.4-2.6-0.7-4.2-0.9c-1.7,0.4-3.7,0.8-5.8,0.9c0,0.2-0.2,0.3-0.5,0.3
		v-0.3c-1.7,0.7-3.7,1.2-5.8,1.6v-0.2c-0.4,0.1-1.5,0.4-3.3,0.7c-1.7-0.2-3.4-0.8-4.9-1.6c-3.1-1.8-4.8-2.8-5.1-2.8
		c-1.7-0.3-2.6-0.5-2.6-0.7l-0.5,0.3H234l-1.6-0.3v0.3c-0.1,0-0.2-0.1-0.2-0.3C231.7,145.7,230.6,146,228.8,146.5z M192.7,198.6
		c0.8,0,1.3,1.7,1.6,5.1c0.3,0,0.5,0.4,0.5,1.2h-0.2l0.5,1.4l-0.7,1.2v1.6c0.3,1.1,0.5,1.8,0.5,1.9c-0.1,0.6-0.4,0.9-0.9,0.9v0.7
		h0.5v0.9c-0.8,2.8-1.2,4.8-1.4,6c0,2.6,0.7,3.9,2.1,3.9l4.4-2.6c0-0.5,0.4-0.9,1.2-1.2c1.1,1.1,1.6,2.6,1.6,4.5
		c-1.2,2.3-1.9,3.5-2.1,3.5c-1.7,1-2.6,1.5-2.6,1.6c0-0.4-0.3-0.6-0.9-0.7l-1,0.2c-3.4-1.2-5.1-2.4-5.1-3.5
		c-0.8-1.1-1.3-2.8-1.6-4.9c0.1-0.6,0.2-1.2,0.2-1.8c0-0.2-0.1-0.3-0.2-0.3c1.7-6.6,2.8-10.3,3.2-11.2l-0.2-1.2v-3
		c0-0.2-0.2-1.4-0.5-3.7v-0.5L192.7,198.6z M234.7,163.4h0.5v2.4c0,0.1,0.1,0.2,0.2,0.2c-0.1,0.3-0.2,0.5-0.2,0.7
		c0,0.7,0.3,1.5,0.9,2.3c0.5,1.4,0.7,2.2,0.7,2.4h-0.3c0.2,1.9,0.6,3.7,1.4,5.6c0,0.7,0.1,1.1,0.3,1.4l-0.3,1.4v0.5l0.3,0.5
		c-0.5,0.7-1.1,1.3-1.9,1.9c0,1.4-1.3,2.2-3.9,2.6c-0.5-0.3-0.9-0.5-1.1-0.5v0.2c-1.7-0.5-3-1.2-3.7-2.1c-0.9-0.8-1.4-1.7-1.4-2.8
		l0.2-0.5l-0.5-1.4c0.6-1.9,1.2-2.8,1.6-2.8h0.5c0.2,0,0.6,0.6,1.2,1.8l-0.3,0.5l1.4,2.6c2.7-0.6,4-1.7,4-3.2c0.1,0,0.2-0.1,0.2-0.3
		l-0.9-6l0.3-0.5c-0.3-1.4-0.5-2.7-0.5-3.9l0.3-2.1h0.3l0.5,0.3C234.2,163.8,234.4,163.4,234.7,163.4z M269.1,249.6v1.9l0.2,2.3h0.3
		c1-0.6,1.9-3,2.6-7.2C272.2,246.6,271.1,247.7,269.1,249.6z"/>
	<path class="st2" d="M351.2,138.8c1.4,0.2,2.2,0.4,2.6,0.7h1.2c0.2,0,0.3-0.1,0.3-0.3c0.9,0.6,2,1,3.2,1.2l0.5-0.3
		c1.2,0.6,1.9,0.9,2.1,0.9c0-0.1,0.1-0.2,0.3-0.2c0,0.1,0.1,0.2,0.2,0.2c0-0.1,0.1-0.2,0.3-0.2c0,0.2,0.2,0.4,0.7,0.7h0.3
		c0.1,0,0.2-0.1,0.2-0.3c0.2,0,0.3,0.1,0.3,0.3c3.6-0.3,5.3-0.6,5.3-0.7c0.3,0.1,1.1,0.3,2.4,0.5v-0.3l0.5,0.3l0.5-0.3
		c0,0.3,1,0.8,3,1.4c1.4,1,2.6,2.2,3.7,3.7c0.9,1.2,2.9,3,6,5.6c0.6,0.9,1.2,1.6,1.8,2.1c0,2.2,0.8,5.3,2.3,9.5
		c0.3,1.6,0.5,2.7,0.5,3.3c-0.1,0.8-0.2,1.3-0.2,1.4l0.2,1.4l-0.2,0.5l0.2,0.5c0,2.5-0.8,4.5-2.5,6c0,0.2-0.5,1.3-1.4,3.2
		c2,4.6,3,7.7,3,9.3h0.3l-0.3,0.5v2.3c0,0.2,0.1,0.3,0.3,0.3l-0.3,0.5c0.1,1.1,0.2,1.6,0.5,1.6c-0.1,0.3-0.2,0.5-0.2,0.7
		c0,5.3,1.3,9.4,3.9,12.4c0,0.4,1,1.8,3,4.2c2.6,4.4,3.9,7.2,3.9,8.6s0.1,2.5,0.3,3.5l-0.5,3.2c0.6,1.1,1,1.6,1.1,1.6
		c0.5,0,1,1.6,1.6,4.9c0.7,0.3,1.4,2,2.1,5.1c0.9,0.9,2.4,4.7,4.4,11.4c1.4,5.1,2.1,8,2.1,8.6c0,2.6-1,4.9-3,6.8
		c-0.8,0-1.6,1.8-2.3,5.3c-1,1.7-2,3.1-3,4.2c-1.2,0.8-2,1.1-2.4,1.1c-0.9,0.4-1.4,0.7-1.4,1l-0.9,0.7l-0.5-0.2l-1.6,1.4v0.7
		c0.5,0.4,0.9,1.5,1.2,3c0,0.2,0.5,1.4,1.4,3.5l-0.5,3l0.2,1.4c-0.3,1-0.5,1.6-0.5,1.8h0.3l-0.9,2.1l0.2,1.2l-2.1,3.5
		c-3.2,1.5-5.7,2.3-7.4,2.3c0-0.3-0.2-0.5-0.7-0.7c-0.3,0.1-0.5,0.2-0.7,0.2c-3.4-1.3-5.1-2.7-5.1-4.2c-1.1-1.4-1.6-2.5-1.6-3.5
		c0.2-0.3,0.3-0.5,0.3-0.7h-0.3l0.3-0.5v-2.6c0-2.6-0.5-3.9-1.6-3.9c0-0.2-0.6-0.5-1.8-1v-0.2h-1.2c-0.2,0-0.3-0.1-0.3-0.3
		c-0.8,0.3-1.3,0.5-1.6,0.5c0-0.2-1.6-1.2-4.9-3.2c-1.4-1.6-2.3-3.5-2.6-5.6c-0.2-0.9-0.5-2.5-0.9-4.9v-3.3c0-1.2-1.2-2.9-3.7-5.1
		c-0.8-1-1.3-2.3-1.6-3.7h-0.7c-1.4,0-3.3,1-5.6,3c-0.3,1.4-0.5,2.3-0.5,2.6c0,0.1,0.1,0.8,0.3,1.9l-0.3,0.5
		c0.2,0.3,0.3,0.6,0.3,0.9c-1.2,1.5-2.3,2.5-3.5,2.8c0,1.8-0.9,4-2.8,6.6c-0.6,1.5-2,2.9-3.9,4.2c-0.3-0.1-0.5-0.2-0.7-0.2
		c0,0.3-1.5,0.5-4.4,0.5l-1.8-1.4h-0.3c-0.3,1.4-0.5,2.4-0.5,3v0.2c0,0.7,0.2,1.3,0.5,1.8h-0.2c0.6,1,1,2.8,1.1,5.6l-2.3,5.1
		c-0.8,0.6-1.5,1.4-2.1,2.6c-0.8,0.5-1.4,0.7-1.8,0.7h-0.3c-3.1,0-5.3-0.9-6.5-2.8c-0.8,0-1.9-3.5-3.3-10.5c0-0.2,0.1-1,0.3-2.3
		c0-0.5-0.1-1-0.3-1.6c0.2-1.5,0.3-2.9,0.3-4.2v-4.4c0-0.3-0.2-0.5-0.5-0.5h-0.3c-1.1,1-2.6,1.7-4.7,2.1c0,0.1-0.1,0.2-0.2,0.2
		c-1.3,0-3.2-0.9-5.8-2.6c-0.5,0-1.4-0.5-2.8-1.4c-1.7-0.7-3.2-2.3-4.4-4.9c-1.4-3.2-2.1-6.4-2.1-9.8c0-0.6-0.7-1.4-2.1-2.3
		c-1.2-1.6-2-3.7-2.6-6c0-2.9,0.7-6.8,2.1-11.6c1.7-1.9,2.7-3.4,3-4.5c0.6,0,1.7-4.7,3.2-14.2c3.1-7.9,6-14.9,8.9-20.9
		c-0.2,0-0.3-0.1-0.3-0.3c0.7,0,1.2-2.6,1.4-7.7c0.1,0,0.3-1.1,0.7-3.2l-0.2-0.5l0.2-1c-0.1-0.4-0.3-0.7-0.5-0.7l0.3-1.2
		c0-0.7-0.2-1.4-0.5-2.1h0.2l-0.7-3.2v-3.5c0-0.2-0.1-0.3-0.3-0.3c0.2-1.7,0.3-2.6,0.5-2.6l-0.2-0.5c0-0.2,0.1-0.4,0.2-0.7
		c-0.1-0.8-0.2-1.5-0.2-2.1h0.2c0-0.2-0.1-0.3-0.2-0.3c0-1.6,0.6-3.9,1.8-6.8c0-0.2,1.2-3.1,3.7-8.8c2.2-2.1,3.9-4.4,5.1-7l5.8-3.5
		v0.5h0.3l0.7-0.5h1.6c0-0.4,0.3-0.6,0.9-0.7v0.7c0.2,0,0.4-0.1,0.7-0.2l1.1,0.2l0.3-0.5c2.5,0.4,4.7,0.8,6.5,1.2
		c0.7-0.5,2.7-1.1,6-1.8l0.3-0.5l0.5,0.2c1-0.4,1.7-0.7,2.1-0.7c0.3,0.1,0.6,0.2,0.9,0.2L351.2,138.8z M344.9,145.8l0.7,0.5l0.5-0.2
		c2.7,1.3,4,2.6,4,3.7c-0.4,1.6-0.9,2.4-1.4,2.4c-0.8,0-2-0.8-3.7-2.4c-3.1-1.7-4.9-2.6-5.6-2.6c-0.7-0.4-2.7-0.8-6-0.9
		c0-0.1-0.2-0.2-0.5-0.2l-0.5,0.2l-1.4-0.2c0,0.1-0.1,0.2-0.2,0.2v-0.2c-1.1,0-2.6,1.1-4.4,3.2c-1,0.4-1.8,1.2-2.4,2.6l-2.1,6
		c-0.9,1.9-1.7,4.1-2.3,6.5h0.2l-0.5,1.2c0.2,0,0.3,0.1,0.3,0.3c-1,0-1.7,2.8-2.1,8.4c0.1,0.6,0.3,0.9,0.5,0.9l-0.2,0.5v1
		c1.8,0,3.3-1.8,4.4-5.4c0.1,0,0.3-1.1,0.5-3.2c-0.2,0-0.3-0.1-0.3-0.3c0.5,0,0.9-0.9,1.2-2.8h0.3c0.3,0,0.5,0.2,0.5,0.5v1.6
		c1.1,0,1.6,1,1.6,3c0.2,0.9,0.3,1.7,0.3,2.6c0,0.1-0.1,0.4-0.3,1l0.3,0.5c0,1.8-1.2,3.5-3.7,5.1c0,0.8-0.6,2.4-1.8,4.6
		c0,0.6-0.2,1.2-0.7,1.6h0.3c-0.2,0.8-0.3,1.2-0.5,1.2l0.2,0.5c-0.3,1.1-0.5,2.7-0.7,4.9h-0.3l0.3,0.5v0.3c0,0.1-0.1,0.2-0.3,0.2
		l0.3,0.5c-0.4,2.5-0.9,4.1-1.4,4.9c0.1,0.3,0.2,0.5,0.2,0.7c-0.6,0-1.3,1.4-2.1,4.2l-1.8,2.8c-1.6,2.7-2.4,4.3-2.4,4.9
		c-1.7,4.3-3,8.8-3.7,13.5v0.3l0.5,0.2c-0.2,0.9-0.3,1.5-0.3,1.9c0,1.2,0.1,2.3,0.3,3.2c-0.2,1-0.3,2.1-0.3,3.3
		c0.5,1.1,0.7,1.8,0.7,2.1v1.4h-1.2c-0.3,0-0.5-0.2-0.5-0.7H306c-0.9-0.4-1.4-1.2-1.4-2.3h-0.5c0,0.5-0.9,2.2-2.6,5.1
		c0,0.4-0.3,1-0.9,1.8c-0.6,2.2-0.9,3.5-0.9,3.9c0.9,4.7,1.8,7,2.8,7c0.2,0.6,0.5,0.9,0.7,0.9c0-0.2,0.1-0.3,0.3-0.3
		c1.1,1.6,1.9,3.9,2.5,6.8c-0.1,0.3-0.2,0.5-0.2,0.7c0.1,0.3,0.2,0.5,0.2,0.7h-0.2c0.7,3.1,1.5,4.7,2.6,4.7c0.2,0.3,1,0.8,2.6,1.4
		c1.7-0.4,2.6-0.8,2.6-1.1v-1.2c0-0.2-0.1-0.3-0.3-0.3l0.7-3.9V259c-0.7,0-1.3-0.3-1.8-0.9l-0.5,0.2c0-0.3-0.5-0.8-1.6-1.6v-0.7
		c0.4-0.8,1.2-1.2,2.3-1.2c3.2,1.4,4.9,2.5,4.9,3.5c0.2,0,0.4,0.9,0.5,2.6l-0.3,1.2c0.7,0.7,1.6,1.1,2.6,1.2v-0.5h0.7l0.7,0.5h1.2
		c0.1,0.6,0.6,0.9,1.6,0.9h0.2l0.5-0.3c0,0.4,0.5,1.1,1.4,1.9c0.6,1.8,1.1,3.5,1.4,5.1c-0.2,1.2-0.4,2-0.7,2.5l0.3,0.5
		c0,0.2-0.2,0.7-0.5,1.4c0.1,0.3,0.2,0.6,0.2,0.9c-0.2,0-0.6,1.6-1.2,4.7c-0.2,0-0.5,1.1-0.9,3.2c0,1.8,0.6,4.3,1.9,7.2
		c0.8,0.3,1.3,0.5,1.6,0.5c0.6-0.7,1-1.6,1.2-2.6c0.5-0.1,0.7-0.6,0.7-1.6c0-2.8-0.2-4.6-0.7-5.6c0-0.1,0.1-0.2,0.3-0.2
		c-0.3-1.2-0.5-2.5-0.5-3.9v-0.5c1.4-5,2.8-7.5,4.2-7.5v-0.2h0.9c1.2,0,2,0.5,2.4,1.4c0.6,0.5,1.4,1.1,2.6,1.6
		c0.6-0.3,0.9-0.8,0.9-1.6v-0.2l-0.5-0.7c1.3-1.8,2.3-3.9,3-6.3c0.7,0,1.6-2.5,2.8-7.4l-0.5-0.3l0.3-0.5v-0.9c0-0.9-0.9-2.9-2.8-6.1
		c-1.7,0-2.9-0.9-3.7-2.8c0.3-0.2,1-0.3,2.1-0.5c0.3,0.1,0.5,0.2,0.7,0.2c1.2-0.8,2.4-1.7,3.5-2.8c0,0.1,0.1,0.2,0.3,0.2
		c0-0.2,0.5-0.5,1.6-0.7c0.3,0.4,0.6,1.2,0.9,2.3h0.2v0.3c-0.9,1.1-1.4,2.1-1.6,3c0.9,0.2,1.5,0.5,2.1,0.9h0.3
		c0-0.3,0.5-0.7,1.4-1.2c0.5-3.2,1.1-4.9,1.6-4.9c0-0.3,0.4-0.5,1.2-0.5c0.7,0.1,1.1,0.5,1.4,1.1l-0.3,2.8c0.8,1.4,1.5,2.1,2.1,2.1
		c0.7,0,1.2,0.1,1.4,0.2v-0.2l1.4,0.5c2-0.8,3-2,3-3.7c-0.4,0-1-1-1.9-3l-2.1-4.7c0.6-0.4,1.5-0.7,2.6-0.7c1.8,1.7,3,3.7,3.7,5.8
		c0.9,0.6,1.7,2.4,2.4,5.4v2.1c0,0.4-0.1,0.7-0.3,1l0.3,0.5c-0.2,0.3-0.3,0.6-0.3,0.9c0.2,0.3,0.3,0.5,0.3,0.7
		c-0.5,0-0.7,0.5-0.7,1.6v0.5c0,0.4,0.1,0.7,0.2,0.9c-0.1,0.3-0.2,0.6-0.2,1c0,1.2,0.5,2.1,1.6,2.6c0.1,0,0.4,0.3,0.7,0.9l0.5-0.3
		h0.3c0,0.3,0.4,0.7,1.2,1.2v0.7c0,0.1-0.1,0.2-0.3,0.2l0.5,1.4h-0.2c0.2,0.3,0.3,1.1,0.5,2.4l-0.5,0.2l0.2,1.2v1.2
		c0,0.3-0.1,0.6-0.2,0.9c0.9,4.5,1.9,6.7,3.2,6.7c0,0.2,0.5,0.6,1.4,1.2c0,0.2,0.9,0.3,2.6,0.5l1-0.9v-4.2c0.5-1.2,1.2-2.1,2.1-2.8
		c0-0.4,0.6-1.1,1.9-2.1c0-1.1,0.9-2.2,2.6-3.5c0.6,0,1.2,0.5,1.8,1.4c-0.1,0.3-0.2,0.6-0.2,0.9h0.2l-0.9,2.1
		c0.1,0.3,0.2,0.6,0.2,0.9v0.3l-0.2,0.5c0.1,0,0.2,0.1,0.2,0.3h-0.2c0.1,0.6,0.3,0.9,0.5,0.9l-0.3,0.5v0.2c0,0.5,0.1,0.7,0.3,0.7
		l-0.9,7.7l0.2,0.5c0,0.1-0.1,0.2-0.2,0.2l0.2,1.2c-0.3,5.2-0.7,8.3-1.1,9.3c0,2.3,1.1,3.6,3.2,3.9h0.3c0.5,0,1.4-1.5,2.6-4.4
		c0.5,0,0.9-0.9,1.1-2.6v-1.9c0-2.1-0.5-3.5-1.4-4.4l-1.8-5.3h0.2c-0.8-3.1-1.1-4.9-1.1-5.6h0.2l-0.2-0.5v-1.9
		c0-0.4,0.2-1.1,0.5-2.1h0.5c0.1,0,0.2,0.1,0.2,0.3l0.5-0.3h0.5c1.1,0,1.6,1.1,1.6,3.3v0.3c0.6-0.4,1.6-0.7,2.8-1
		c0-0.6,0.2-0.9,0.5-0.9l0.7,0.5h1.1c1.3-2.1,1.9-3.4,1.9-3.9v-0.2c0-0.5-0.2-1.1-0.5-1.9c0.2,0,0.3-0.1,0.3-0.2
		c-0.3,0-0.8-0.8-1.4-2.4c0.1-0.6,1-1.2,2.6-1.8l0.2-0.5c1.1,0.2,2,0.7,2.8,1.4c0.4-0.5,0.6-1.2,0.7-2.1l-0.2-0.9l0.2-1.2
		c-0.1-0.3-0.2-0.6-0.2-0.9c0.1,0,0.4-0.3,0.7-0.9l-0.2-0.5v-0.3c0-0.1,0.1-0.2,0.2-0.2c0-2.4-1.9-6.5-5.8-12.6
		c-2.6-6.8-4.5-10.3-5.8-10.3c-0.8-0.5-1.4-0.7-1.8-0.7h-0.9c0-0.4-0.3-0.7-0.9-0.9c-0.6-0.8-1-1.2-1.2-1.2c0,0.2-0.1,0.3-0.2,0.3
		c0-0.5-0.4-1.2-1.2-2.3l-0.3-2.8c0-0.5,0.5-0.8,1.6-0.9c0.5,0,1.6,1.5,3.3,4.4c0.6,0.2,1.2,0.3,1.6,0.3c0.4-1.1,0.7-1.6,1-1.6
		l-0.3-0.9l0.3-1.2h-0.3l0.3-0.5v-2.1c-0.4-1.9-1.4-4.3-3-7c-1.5-1.2-2.8-3.1-4-5.8c-2.9-5-4.4-9-4.4-12.1c-0.1,0-0.2-0.1-0.2-0.2
		l0.2-1.4v-0.3c0-0.2-0.1-0.3-0.2-0.3l0.2-0.5v-0.7c0-0.2-0.1-0.3-0.2-0.3c0.1-0.3,0.2-0.5,0.2-0.7c-0.3-0.5-0.5-1-0.5-1.4
		c0.3,0,0.5-0.2,0.5-0.5v-1.1c0-0.8-1-3.8-3-9.1c-0.1,0-0.2-0.1-0.2-0.2v-0.3l0.2-0.5c-0.2,0-1-1.8-2.3-5.3
		c-0.5-0.6-0.7-1.2-0.7-1.8c-0.1,0-0.5-0.9-1.2-2.6c0.8-0.9,1.2-1.5,1.2-1.6c1.1,0,2.3,0.9,3.7,2.6c0.3,0.4,0.6,0.7,0.7,0.7h0.3
		c0.6,0,1.2-0.3,1.6-0.9l-0.3-0.5c0.3-0.5,0.5-1.2,0.5-2.1c-0.1-0.5-0.2-0.9-0.2-0.9l0.2-0.5l-1.6-6.3c-0.2,0-0.7-1-1.6-3
		c-0.8-1.1-1.4-1.6-1.9-1.6c-0.7-1-1.1-1.4-1.4-1.4l-0.5,0.3c-2.5-0.8-4.3-2.1-5.3-3.9l-1.4-1.6l-2.1-0.3c-2,0.6-3,1.2-3,1.6
		c-0.8-0.1-1.1-0.3-1.1-0.5c-0.2,0.2-1.4,0.3-3.7,0.5c-2.6-1.4-4.7-2.4-6.3-2.8c0-0.2-0.4-0.4-1.1-0.7l-1.4,0.3l-1.1-0.3v0.3
		c-0.3-0.2-0.5-0.3-0.7-0.3C345.7,145.2,344.9,145.5,344.9,145.8z M326.5,213.1h0.3c0.2,0.2,0.6,1.1,1.1,2.8c0.2,0,0.3,0.1,0.3,0.2
		h-0.3c0.6,2.6,1.2,4.1,1.9,4.5c0.9,1.4,1.4,2.6,1.4,3.5c0,0.4-0.2,1.1-0.5,1.8l0.2,0.5c0,0.9-0.7,1.8-2.1,2.8
		c-0.3,0.8-0.7,1.1-1.1,1.1c-1.7,0.4-2.6,0.6-2.6,0.7l-0.5-0.2c-0.2,0-0.3,0.1-0.3,0.2c-1.7-0.4-2.9-1.1-3.5-2.3
		c-0.3-1.1-0.5-2-0.5-2.6l0.5-0.3h0.7c0.6,0,1.2,0.4,1.8,1.2c0.3,0.1,0.6,0.2,0.9,0.2h0.5c0.5-0.1,1.1-1,1.9-2.6l-0.3-0.5
		c0-0.1,0.1-0.6,0.3-1.4c-1-4.6-1.4-7.4-1.4-8.4C325.9,213.5,326.3,213.1,326.5,213.1z M344.7,180.7c0.9,0,1.6,1.6,2.4,4.9h0.5v0.9
		c0,1-0.2,2.5-0.7,4.7c0,0.5,0.5,1.6,1.6,3.5c0,0.4,0.6,1.1,1.8,1.8c0.1,0.3,0.2,0.5,0.5,0.5c0.3,0,1-0.7,2.1-2.1h0.3v-0.7
		c0-0.4,0.1-0.7,0.2-0.9c-0.1-0.5-0.4-2-0.7-4.7c1.8-1.7,2.9-2.6,3.2-2.6c0,0.9,0.2,1.9,0.7,3.2h-0.3c0.3,0.8,0.5,1.3,0.5,1.6
		l-0.2,0.5l1.1,3.3c0,0.1,0.2,0.2,0.7,0.2v0.3l-0.2,0.5c0.6,0.3,1.1,0.5,1.6,0.5c3.6-3,5.4-4.6,5.4-4.7v-1.6c0-1,0.4-1.8,1.1-2.3
		c1.2,0,2,1.2,2.4,3.7l-0.3,0.5l0.3,0.5l-0.3,0.5c0.2,0.5,0.3,0.7,0.5,0.7l-0.5,1.8l0.3,1.4v1.4c0,0.7-0.2,1.3-0.5,1.9
		c0,0.1,0.1,0.2,0.2,0.2l-0.7,3v3c0,0.7,0.5,1.4,1.4,1.9c0.3-0.2,1-0.3,2.1-0.5c0,0.2,0.1,0.3,0.2,0.3c0-0.3,0.5-1.2,1.4-2.6v-0.5
		c0.8,0,1.3,1,1.6,3h0.3c0,1.3-1.2,2.6-3.7,3.9c0,0.4-0.6,0.6-1.8,0.7c-2.5,0-4-1.9-4.7-5.8c-0.1,0-0.3-0.7-0.7-2.1
		c0.1,0,0.4-0.3,0.7-0.9c-0.1-1.1-0.3-1.6-0.5-1.6l0.3-0.5V201c-0.8,0.5-1.2,1.2-1.2,2.1h-0.3l0.3,0.5c-0.6,0.5-0.9,2.1-0.9,4.9
		c0.9,1.2,1.4,2.2,1.4,3.2c-1.2,1.1-2.1,1.6-2.6,1.6v0.3l-0.5-0.3h-0.3c-1.1,0-2.1,1.1-3,3.3c-0.4,0-1,0.5-1.8,1.6
		c-0.5,0.5-1.2,0.9-2.1,1.2l-0.5-0.2l-0.5,0.2v-0.2c-0.3,0.1-0.5,0.2-0.7,0.2c-1.7-0.2-3.2-0.9-4.4-2.3v-0.5l-0.7,0.5l-0.7-0.5
		l-0.5,0.2v-0.2l-0.5,0.2h-0.3c-0.3,0-0.5-0.2-0.5-0.7l-0.5,0.3h-0.9l-0.5-1.6v-1.1c1.4-1.7,2.1-2.8,2.1-3.3l-0.3-1.2l0.5-0.2
		c-0.2-1.9-0.8-2.8-1.6-2.8c-1.2,0-2.2,0.5-3.2,1.4h-0.7c-0.8,0-1.4-0.4-1.8-1.1v-0.7l0.2-0.5c-0.1,0-0.2-0.1-0.2-0.2
		c1.2-1.5,2.3-2.3,3.2-2.4v0.3c1.5,0,2.4-1.1,2.8-3.3c0-0.6-0.4-2.2-1.2-4.7c0-0.8-0.1-1.1-0.2-1.1c0.4-0.6,0.9-2.4,1.4-5.4
		c-0.2-0.2-0.3-0.6-0.3-1.2c0.5,0,0.7-0.2,0.7-0.5c-0.3,0-0.5-0.2-0.5-0.5v-0.5h0.7C344.1,183.4,344.3,181.7,344.7,180.7z"/>
	<path class="st2" d="M517.1,137.4h0.2c0.2,0,0.3,0.1,0.3,0.2l0.5-0.2h0.5c0.2,0,0.3,0.1,0.3,0.2l0.5-0.2l5.6,2.3l3.2-0.2
		c0.3,0,0.8,0.2,1.4,0.5v-0.3c0.1,0,0.2,0.1,0.2,0.3l0.9-0.3c4,0.6,7.1,1.8,9.3,3.5c4.3,2.7,6.5,5.5,6.5,8.2v0.7
		c0,0.2-0.1,0.3-0.3,0.3l0.3,0.5c-0.2,6-0.8,9.1-1.6,9.1c0,0.5-0.1,0.9-0.2,1.1c0.5,3.1,0.9,4.8,1.4,5.1c0.9,2.6,2.2,7.1,3.7,13.5
		c0.2,0,0.6,1.1,1.1,3.2c-0.3,3.2-0.7,5.7-1.1,7.4c-0.3,0.1-0.9,1.4-1.9,3.7l-0.9,0.7c0.2,1.7,0.5,3.1,0.9,4.4
		c-0.3,1.2-0.5,1.9-0.5,2.3c0.5,1.4,0.7,3.1,0.7,5.1v0.5c-0.3,2.3-0.5,3.5-0.5,3.7v2.3c0,0.2,0.1,0.3,0.2,0.3c0,0.2-0.1,0.3-0.2,0.3
		c0,0.5,0.9,2.9,2.8,7.2c0.6,2.3,0.9,4.2,0.9,5.8v1.8c0,0.2,0.1,0.3,0.3,0.3c-0.2,1.1-0.7,2.4-1.6,3.9l0.3,1.6
		c-0.3,2.1-0.5,3.4-0.5,3.9v1.8c0,0.2,0.1,0.3,0.2,0.3l-0.2,0.5c1.1,2,1.7,3.8,1.8,5.3c-0.2,0.3-0.3,0.6-0.3,0.9v0.3
		c0.5,0,0.7,0.2,0.7,0.5v0.3l-0.9,5.8c-0.5,0.5-1,1.8-1.4,3.7c-1.6,1-2.8,3-3.5,6.3v0.3l0.3,2.1c0,2.2-1.5,3.9-4.4,5.1
		c-1,0-1.7,0.9-2.1,2.8v2.1l0.9,3.3c-0.3,0.6-0.5,1.1-0.5,1.6l0.2,0.9c-0.4,0.8-0.8,2.5-1.1,5.1c-1.4,2.3-3.1,3.8-5.1,4.7
		c-0.1,0.3-1,0.9-2.6,1.8l-0.5-0.2H531c-0.1,0-0.2,0.1-0.2,0.2c-2.6-0.6-4.2-1.3-4.7-1.8c-1.3-0.6-2.5-2.4-3.5-5.6
		c-1-5.1-1.8-7.7-2.6-7.7l-1.4-0.2c-0.1,0-0.6,0.1-1.4,0.2c-0.3-0.1-0.5-0.2-0.7-0.2v0.2c-2.1-0.7-3.4-1.2-3.9-1.6H511
		c-0.2,0-0.3,0.1-0.3,0.2l-0.5-0.2c-1.6,1.4-3,2.1-4.2,2.1c0-0.1-0.1-0.2-0.2-0.2v0.2c-2.3-0.8-4.4-2.2-6.3-4.2
		c-1.1-1.4-2.3-3.3-3.5-5.6c-1.1-2.1-1.9-4.4-2.3-6.8c0.3,0,0.5-2.3,0.7-7l-2.1-1.2c-0.3,0.2-0.5,0.3-0.7,0.3c0-0.3-0.2-0.5-0.5-0.5
		H491c-0.1,0-0.2,0.1-0.2,0.2c-0.7-0.4-1.2-0.7-1.4-0.7l-0.5,0.2h-0.7c-2.2,3.6-4.7,5.3-7.4,5.3V261l-0.5,0.2
		c-0.3,0-0.7-0.1-0.9-0.2c-0.3,0.1-0.6,0.2-0.9,0.2H478l-0.5-0.2v0.2l-6-2.1c-0.6,0.7-1.2,2.2-1.6,4.6c0.2,0,0.3,0.1,0.3,0.3
		c-0.3,0-0.5,0.2-0.5,0.5v1.2c0,0.1,0.1,0.2,0.2,0.2c0,0.2-0.1,0.3-0.2,0.3c0.3,1.3,0.5,2.5,0.5,3.5l-0.3,0.9
		c0.3,0.6,0.5,1.2,0.5,1.8v0.7c0,0.3-0.1,0.6-0.2,0.9l0.5,1.9c-0.3,0.5-0.5,0.9-0.5,1.1l0.2,1.6c-0.4,2.2-1.1,4.4-1.8,6.8
		c-1.4,4.6-3.1,7-5.1,7c-0.5,1.7-1.8,2.6-3.9,2.6l-1.4,0.2c-2.3-0.3-3.9-0.6-4.7-0.9c0,0.2-0.1,0.3-0.3,0.3c0-0.2-1.3-1.6-3.9-4.2
		c-2.8-4.8-4.2-8.5-4.2-10.9c-0.3,0-0.8-0.9-1.4-2.8c-0.2,0-0.6-0.5-1.4-1.4l-3-1.4h-0.7c0-0.4-0.6-1-1.8-1.6
		c-1.4-1.4-2.5-2.7-3.3-3.9c-0.6-0.3-0.9-0.5-0.9-0.7l-0.5,0.3c-0.1,0-0.6-0.1-1.4-0.3c-0.2,0-0.3,0.1-0.3,0.3c-2.7,0-5-1-6.7-3
		c-0.6,0-1.3-0.9-1.9-2.6c-0.3,0-0.5-0.1-0.5-0.3l0.3-0.9c-0.3-0.4-0.6-2-0.9-4.7c0.1-0.9,0.2-1.5,0.2-1.8c-0.3-0.6-0.5-1.2-0.5-1.6
		h0.3c0-0.2-0.1-0.3-0.3-0.3c0-1.2,0.4-3.7,1.2-7.4c0.8-6.4,1.4-9.5,1.8-9.5v-0.5c0-1-0.1-2.6-0.3-4.7c-0.3,0-0.5-0.1-0.5-0.2
		c0-0.2,0.1-0.3,0.3-0.3c-0.3-2.6-0.6-3.9-0.9-3.9l0.2-0.5c-0.3-1.2-0.5-2.2-0.5-2.8h0.3l-0.7-3.5h0.3c0-0.1-0.1-0.2-0.3-0.2
		c0.7-3.6,2-7.7,3.9-12.1c-1.5-3.3-2.3-6.3-2.3-8.9c0.9-4.9,1.6-9.4,2.1-13.7c0-1.2-0.9-3.8-2.8-7.9c-0.3-2.2-0.6-3.6-0.9-4.2
		l0.3-1.2h-0.3c0.2-0.3,0.3-1,0.5-2.3c-0.1-0.3-0.2-0.5-0.2-0.7c0.4-1.8,0.9-3.2,1.4-4.2c-0.2-0.3-0.3-0.5-0.3-0.7
		c2-6.2,3-9.6,3-10.5l1-3.5c0-3,2.4-5.1,7.2-6.3l10.5-2.1c0-0.2,2.1-0.8,6.3-1.6l0.5-0.5c0.3,0.2,0.5,0.3,0.7,0.3v-0.3l0.5,0.3
		l1.8-0.7c0.3,0.2,0.6,0.3,1,0.3c0-0.3,0.5-0.5,1.6-0.7c0.9,0,2.9,0.7,6,2.1c0.3,0.1,0.7,0.2,1.2,0.2h1.6l1.4-0.2
		c0.4,0.3,2.3,0.6,5.6,0.9c1.4,1.2,2.1,1.9,2.1,2.1c0,0.1,1.1,1.6,3.3,4.4c0-0.1,0.1-0.2,0.2-0.2c0.6,0,1.3,1.9,2.1,5.8
		c0,0.2,0.1,0.3,0.2,0.3l-0.2,0.5v1.8c-0.6,1.7-0.9,2.6-0.9,2.8v0.5c0,1.4,0.8,2.5,2.3,3.2c0,0.2,0.5,0.6,1.4,1.2
		c2.3-2.6,4.2-4.3,5.6-4.9c0-0.3,0.5-0.8,1.4-1.4c1,0,1.9-2.7,2.8-8.2c0-0.1-0.1-0.4-0.2-0.7l2.8-4.7c0.2,0,0.8-0.5,1.6-1.4
		c1.9-0.8,3.2-1.6,3.9-2.4l0.5,0.3c0.1-0.3,0.2-0.5,0.5-0.5l0.5,0.2c0.3-0.1,1.3-0.4,2.8-0.7l0.5,0.2c0.8-0.1,1.2-0.3,1.2-0.5
		l1.1,0.5l0.5-0.2c0.7,0.3,1.9,0.5,3.7,0.7c1.4-0.4,2.7-1.1,3.7-1.8C516.3,137.9,516.7,137.7,517.1,137.4z M454.7,146.7v-0.3
		c-0.8,0.2-1.2,0.3-1.2,0.5c-0.1,0-0.2-0.1-0.2-0.2c-0.5,0-3.2,1-8.2,3h-2.1c-0.2,0-0.3-0.1-0.3-0.3l-0.5,0.3l-0.5-0.3
		c-0.8,0.2-1.1,0.3-1.1,0.5l-0.5-0.2h-0.5l-0.7,0.5c0-0.3-0.9-0.6-2.6-0.7c-2.9,0-4.4,0.5-4.4,1.6v0.2l0.2,0.5
		c0,1.8-0.8,4.9-2.3,9.1l-3.3,10.7h0.3l-0.3,0.5l0.3,0.5c-0.2,0.3-0.3,0.5-0.3,0.7c0.2,0,0.5,0.9,0.9,2.6c0.8,1.6,1.3,2.5,1.6,2.8
		c0.7,0,1.6-0.9,2.6-2.6c1.1-0.7,1.6-1.2,1.6-1.4l0.5,0.3h0.5l0.5-0.3l0.5,1.6v0.9c-0.9,1.2-1.5,2.3-1.6,3.3c-0.1,0-0.6,0.5-1.4,1.6
		c0.3,2.7,0.8,5.1,1.4,7.2l-0.2,0.5c0,0.1,0.1,0.2,0.2,0.2l-0.7,3.5l0.2,0.5c-0.2,0.5-0.7,1.8-1.4,3.9c-0.4,0-0.7,0.7-0.9,2.1
		c-0.3,0-0.5,0.3-0.5,0.9c0.1,0,0.2,0.1,0.2,0.3h-0.2c0,0.2,0.1,0.3,0.2,0.3l-0.2,2.3c0,1.2,0.6,2.6,1.8,4.4
		c0.2,0.3,0.3,0.6,0.3,0.9v0.5c0,0.9-1.2,3.3-3.5,7c0,0.2-0.3,1.5-1,3.9v0.7c0,0.1,0.1,0.2,0.3,0.2l-0.3,0.5c0,0.2,0.1,0.4,0.3,0.7
		l-0.3,1.4v0.5c0.1,0.8,0.2,1.2,0.5,1.2l-0.2,0.5v0.5c0,0.2,0.2,0.4,0.7,0.7l-0.3,0.5v0.5c0,0.9,0.5,2.1,1.4,3.7l0.5,2.1v0.5
		c0,0.2-0.1,0.3-0.2,0.3l0.2,0.5l-0.2,1.6h0.2c-0.4,3.4-1.3,6.9-2.6,10.5c-0.9,3.2-1.4,5.2-1.4,6.1c0.4,4.5,1,6.8,1.8,6.8
		c0-0.3,0.8-0.8,2.4-1.6h0.2c0.2,0,0.3,0.1,0.3,0.3l0.5-0.3c2.8,0.2,4.2,0.9,4.2,2.1c0.3,0.6,0.8,1.2,1.6,1.6c0,1,0.7,2.4,2.1,4.4
		c0,0.6,0.5,1,1.6,1.2h0.7v0.5h0.5c0.4-0.5,1.3-0.7,2.6-0.7c0-0.1-0.8-1.3-2.4-3.5c0-0.2-0.2-0.5-0.5-0.9c0.3-0.8,0.8-1.2,1.4-1.2
		l1.1,0.3l0.3-0.5c1.3,0,2.3,1,3,3l2.8,3c1,1.9,1.4,3.1,1.4,3.5v1.8c0,0.8,0.2,1.7,0.5,2.8c-0.8,0-1.2,1.5-1.2,4.4
		c0.9,3.5,1.7,5.4,2.6,5.8c0,0.5,1.1,1.4,3.2,2.6v0.3h0.3c1.6,0,3.2-1.8,4.7-5.4c0.4-1.5,0.7-2.6,0.7-3.5l-0.5-0.2l0.3-1.2l-1.4-6.3
		c0.3-2.2,0.5-3.8,0.5-4.9h-0.3c0.3-0.5,0.5-0.9,0.5-1.2l-0.5-1.6h0.3c-0.3-0.6-0.5-1.2-0.5-1.9c0-0.1,0.1-0.2,0.2-0.2
		c-0.1-0.8-0.3-1.2-0.5-1.2c0-3.1,0.9-5.3,2.8-6.8c0.4-2.3,0.7-3.7,0.7-4.2c-0.3-3.9-0.8-7-1.4-9.3l0.3-0.5l-1-4.9
		c0.2-0.3,0.3-0.5,0.3-0.7c-0.5-1.4-0.7-2.3-0.7-2.6c0-0.1,0.1-1.1,0.3-3c-0.1-0.6-0.3-0.9-0.5-0.9l0.2-0.5c0-0.8-0.2-1.3-0.7-1.4
		h-0.3c-0.1,0-0.2,0.1-0.2,0.3l-0.5-0.3h-0.7c-0.8,1.6-1.2,3.2-1.2,4.7v0.5l-2.1,1.4c-0.5,0.3-1.2,0.5-1.8,0.5h-0.5
		c-1.7,0-3.5-1.4-5.6-4.2c-0.6-1.5-0.9-2.5-0.9-2.8v-0.9c0.3-1.7,0.9-2.6,1.8-2.6c1.7,1.8,2.6,3.3,2.8,4.5c0.4,0,0.7,0.4,0.7,1.1
		h0.5c1.9-2.1,2.8-3.5,2.8-4.4c0-1.1-0.2-1.6-0.5-1.6l0.7-4.7c-0.3,0-0.7-0.8-1.4-2.3c0.2-1.5,0.6-3.5,1.4-6v-0.3
		c0-0.9-0.4-1.8-1.1-2.8v-1.2c0.4-1.2,0.7-1.8,0.9-1.8c0.5,0,1.2,1.6,1.8,4.7c0,0.6,0.1,1.5,0.3,2.6c-0.2,2.3-0.3,3.8-0.5,4.7
		c2.5,3.5,4.9,5.7,7.2,6.7c1.5,0.6,2.6,1.9,3.3,3.9c0.2,0,0.4,0.2,0.7,0.7v1.2c-0.3,1.1-0.5,1.7-0.5,1.8l0.5,0.9
		c-0.3,1-0.5,1.5-0.5,1.6c0.9,2.9,2.2,4.4,3.7,4.4c2,1,3.5,2.6,4.4,4.9c-0.6,1.9-0.9,3.9-0.9,6.1c0,2.7,1.1,5.2,3.3,7.4h0.2
		c0.5,0,1.4-1.8,2.6-5.3c-0.3-1.7-0.5-3-0.5-3.7c0-0.7,0.5-1.3,1.4-1.8c0.2,0,0.3,0.1,0.3,0.2c0.9-0.1,1.4-0.3,1.4-0.5l0.5,0.3
		l1.2-0.3c0,0.2,0.4,0.5,1.2,0.7c0,0.2,0.4,0.6,1.1,1.1c0.5-1.3,1.1-3.7,1.9-7.4c1.9-1.2,3.3-3,4.2-5.3v-1.2c0-2.7-0.6-4.4-1.8-5.1
		v-1.4c0-0.2,0.5-0.6,1.6-1.2l0.5,0.3c0.2,0,0.3-0.1,0.3-0.3l0.5,0.3l0.5-0.3c1.2,1,1.9,2.4,2.3,4.2c0.4,2.2,0.8,3.2,1.4,3.2
		c0,0.7-0.2,1.7-0.5,3l1.2,5.1l-0.3,0.5c0.5,1.2,0.7,2,0.7,2.4c-0.2,0.6-0.3,1.2-0.3,1.6h0.3c-0.9,1.7-1.4,3.2-1.6,4.4
		c0,0.1,0.1,0.2,0.3,0.2l-0.3,1.6v0.3c1.5,2.2,2.6,3.7,3.3,4.4c2.2,1.4,3.2,2.5,3.2,3.3h0.5v0.2c-1.4,1.3-2.4,2.6-2.8,3.9
		c-0.2,0.3-0.4,0.5-0.7,0.5v1.2l-0.2,1.6l0.5,0.2l-0.3,0.5c1.4,4,2.6,6.2,3.5,6.6h0.5c0.3,0,0.8-0.6,1.4-1.9c0.6,0,1.3-0.6,2.1-1.8
		h0.2l0.5,0.2c0-0.4,0.4-0.7,1.2-0.9c0.3,0.2,0.6,0.3,0.9,0.3l0.9-0.5c2,0.5,3,1.3,3,2.3c0.4,1.4,0.8,2.2,1.2,2.4
		c0.8-1.1,1.4-1.6,1.8-1.6c0-0.3,0.4-0.9,1.2-1.9c-1.3-1.6-2.2-4.1-2.6-7.4c0-2.1,0.6-3.5,1.8-4.2h1.2l0.9,0.7l-0.2,1.6v1.2
		c0,0.1,0.1,0.2,0.2,0.2l-0.2,0.5l1.4,4.7c0,0.2,1.4,1.7,4.2,4.4c1.5,2.4,2.3,4.4,2.3,5.8c-0.3,0-0.8,1.6-1.4,4.7v0.2
		c0,0.5,0.1,0.9,0.2,1.2l-0.2,1.4v0.5c0,1.2,0.5,2.2,1.4,2.8c1,0,2-3.4,3-10.3c-0.2-3.5-0.4-5.7-0.7-6.5c0-2.1,1.5-3.8,4.4-5.1
		c0-0.1,0.2-0.4,0.7-0.7l0.5,0.3c0.5,0,0.9-1.3,1.1-3.9v-0.3c-0.4-1.1-0.8-1.6-1.1-1.6v-0.5c0.2,0,0.9-0.3,1.8-0.9l1.6,0.3
		c2.2-1.8,3.2-3.8,3.2-5.8c0.2,0,0.4-0.6,0.5-1.8c-0.9-5.4-1.9-9.1-3-11.2v-3.9c1.3-2.8,1.9-5.2,1.9-7c0-0.5-1.2-3-3.5-7.4
		c-0.6-2.3-1.2-6.8-1.8-13.5l0.5-5.4c-0.1-0.2-0.2-0.6-0.2-1.1c0.1,0,0.2-0.1,0.2-0.3c-0.1,0-0.2-0.1-0.2-0.3h0.2l-1.4-7l0.3-0.5
		v-0.2c0-0.2-0.8-1-2.4-2.4l0.5-1.6l0.5,0.3c0.2-0.3,0.3-0.5,0.3-0.7c1.6,0,3,0.5,4.2,1.4h0.2c0.3-1.3,0.5-3.1,0.7-5.6
		c-1.6-6.7-2.8-11.5-3.7-14.5c-0.3,0-0.7-1.5-1.2-4.4c-0.4-0.8-0.8-2.1-1.1-3.9c0-0.2,0.1-0.3,0.2-0.3L536,160V159
		c0-1.8,0.5-3.8,1.6-6c0-3.6-1.2-5.3-3.5-5.3c-0.4,0-0.9-0.2-1.4-0.5c-2.1,0.1-3.4,0.4-3.9,0.7c-1.6-0.2-2.9-0.5-3.7-0.9l-3.7,0.7
		c-0.8-0.5-1.6-0.7-2.4-0.7c-0.2,0-0.9,0.7-2.1,2.1c-0.4,0-0.7,0.2-0.7,0.5l-0.5-0.3c-0.2,0-0.4,0.1-0.7,0.3l-1.4-0.3
		c-0.3,0.2-0.5,0.3-0.7,0.3l-0.2-0.5c-0.2,0-0.3,0.1-0.3,0.2c-1,0-1.9-0.4-2.8-1.1h-0.3c0,0.4-0.2,0.7-0.5,0.7
		c-0.6-0.8-1.5-1.1-2.8-1.1v0.2l-0.7-0.5h-0.3c-1.7,0-2.9,0.8-3.5,2.4c-0.8,0.9-1.4,2.4-1.8,4.4h-0.3c0.2,0.4,0.3,0.7,0.5,0.7
		c-0.5,4.8-1.1,7.2-1.8,7.2c-0.6,0.9-1,1.4-1.2,1.4c-0.3-0.1-0.5-0.2-0.7-0.2c-1.2,0.6-2.4,1.3-3.5,2.1c-1.4,0-2.3,0.9-2.6,2.6
		c-1.1,1.2-1.6,1.9-1.6,2.1c-1.2,2.6-2.2,4.5-3,5.6c-2.7,2.3-4.5,3.5-5.4,3.5h-0.5c-1.5-0.8-2.3-1.7-2.3-2.6V176c0-0.2,1-0.6,3-1.2
		c1.5-1.3,2.3-2.4,2.3-3.3c-4.6-2.8-8.1-6.4-10.5-10.7c-0.6-1-0.9-2.7-0.9-5.1v-1l0.2-1.4c-0.3-2.4-0.6-4.1-0.9-5.3h-1.4
		c-0.5,0-1.1,0.2-1.6,0.7v-0.2c-0.3,0.1-0.5,0.2-0.7,0.2v0.3c1.1,1.4,1.6,2.4,1.6,3h-0.2c-0.9,0.5-1.5,0.7-1.6,0.7
		c0-0.2-0.5-0.5-1.4-0.7c-0.1-0.3-1.3-0.9-3.5-1.6c-1.3-0.8-2.2-1.6-2.8-2.3c-0.3,0-0.7-0.3-1.1-0.9c-0.6,0-1-0.4-1-1.2
		C456.7,146,455.9,146.2,454.7,146.7z M439.8,162.1h1.2c0.2,0,0.6,1.2,1.4,3.5l-0.2,0.5v0.7c0.3,0.3,0.5,0.8,0.5,1.4l0.5-0.2v1.1
		c0,1.3,0.2,2.3,0.7,3c-0.5,1.6-1,4.7-1.6,9.1v2.1l-0.7,1.2c0,0.8,0.2,1.2,0.7,1.2v0.2c0,0.4-0.1,0.7-0.3,1c0.2,0.3,0.3,0.5,0.3,0.7
		h0.9c0-0.4,0.8-1,2.3-1.8c0.8-1.9,1.3-3.1,1.6-3.5c0-0.2,0.1-0.3,0.3-0.3c1,0,1.7,0.9,2.1,2.8l0.5,0.2c-0.4,2.4-0.9,3.7-1.4,3.9
		v-0.5h-0.2c0,0.3-0.2,0.9-0.5,1.6h0.2l0.5-0.2v0.5c-1.5,1.8-2.6,2.8-3.5,2.8h-0.2c-3.4-0.7-5.1-1.8-5.1-3.2c-0.5,0-0.9-1.3-1.4-4
		c0.9-3,1.7-6.3,2.3-10v-0.2c-0.2-3.1-0.6-5.5-1.2-7c0.2-1.8,0.3-2.8,0.5-2.8c-0.3-0.6-0.5-1.5-0.5-2.6V163
		C439.6,162.6,439.8,162.3,439.8,162.1z M512.7,222.6c0.7,0,1.6,2.7,2.6,8.2v1.1c0,0.2,0.1,0.3,0.2,0.3c-0.1,1.4-0.3,2.1-0.5,2.1
		l0.3,0.5c0,0.9-0.5,2.8-1.4,5.6c0,0.4-0.4,1.7-1.1,3.7c0.2,1.9,0.7,2.8,1.6,2.8c1.2,0,2.7-1.3,4.5-3.9h0.7c1.1,0.7,1.6,1.8,1.6,3.5
		v0.9c0,0.4-0.5,1.3-1.4,2.6c-0.8,2.1-1.5,3.1-2.1,3.3l-0.3-0.5l-1.1,0.3c-0.5,0-1.5-0.6-2.8-1.8c-0.3,0.1-0.5,0.2-0.7,0.2
		c-1.9-2.5-2.8-5-2.8-7.4l2.1-8.2v-0.9c0.5,0,0.7-0.4,0.7-1.2v-0.2c0-0.2-0.1-0.3-0.3-0.3c0.3-0.8,0.5-1.3,0.5-1.6
		c-0.1-0.3-0.2-0.5-0.2-0.7c0.1,0,0.2-0.1,0.2-0.3h-0.2c0-0.1,0.1-0.2,0.2-0.2c-0.9-4.3-1.4-6.8-1.4-7.5L512.7,222.6z M526.9,161.4
		c0.5,0,1.1,2.5,1.6,7.4c0.3,0.1,0.5,0.2,0.7,0.2c0,0.3-0.2,0.5-0.5,0.5l0.2,0.5v0.5c-2.3,1.2-3.7,1.8-4.4,1.8h-0.5l-0.5-0.3v0.3
		c-0.6,0-1.5-0.8-2.8-2.3v-1.6l-0.3-1.2l0.7-0.5h0.2l1.4,1.2h0.5l0.7-0.5c0.3,0.1,0.5,0.2,0.7,0.2c0.4-0.8,0.9-1.2,1.4-1.2
		c-0.3-2.1-0.5-3.1-0.5-3.2C525.9,162.4,526.3,161.8,526.9,161.4z"/>
	<path class="st2" d="M615.2,138.3c0.6,0,1.5,0.1,2.6,0.3c0.2,0,0.3-0.1,0.3-0.3c1.9,0.2,3.3,0.5,4.4,0.9l0.5-0.2
		c1.9,1.1,4,1.6,6.3,1.6c2.5-0.2,3.8-0.6,3.9-1.2c0.1,0,0.2,0.1,0.2,0.2c3-0.9,5-1.4,6.1-1.4h0.5c0.1,0,0.2,0.1,0.2,0.3
		c0.2,0,0.3-0.1,0.3-0.3c3.1,0.5,5.4,0.9,6.7,1.4v-0.2c5.6,2.9,8.4,5.1,8.4,6.5c1.3,1.6,2.2,4.2,2.8,7.7c-0.4,2.7-1.3,5.9-2.6,9.5
		c0,0.3,0.4,2.1,1.2,5.3c0,1.2,0.1,2.3,0.3,3.3c-0.5,0.9-0.7,2.8-0.7,5.6c0,0.4,0.4,1.5,1.2,3.5l-0.3,0.5c0.3,0.6,0.5,1.2,0.5,1.8
		v0.5c0,0.3-0.1,0.7-0.2,0.9c0.1,0.3,0.2,0.5,0.2,0.7c-0.9,3.9-1.8,6-2.8,6.5c-1.4,1-2.1,1.6-2.1,1.9c-0.3,0-1.1,0.5-2.4,1.6
		c-0.5,0.4-1.3,0.7-2.5,0.9c-0.3-0.2-0.5-0.3-0.7-0.3v0.3c-2.3-0.3-4-1-5.1-2.1c-1.5-1.5-2.9-3.4-3.9-5.8l-1.2-0.2
		c-0.2,0.1-0.6,0.2-1.4,0.2c0-0.1-0.1-0.2-0.3-0.2c-0.6,0-1.8-0.2-3.5-0.5c0,0.1-0.1,0.2-0.2,0.2c0-0.3-0.2-0.5-0.5-0.5l-1,0.3
		c-0.7-0.3-1.7-0.6-3-0.9c-1.5,0.4-2.3,0.8-2.3,1.1c-0.5,0-1.6,0.2-3.3,0.5v0.3c0.2,0.4,1.2,1,3,1.6c0,0.3,0.5,0.5,1.6,0.5h0.3
		l1.4-0.3l0.5,0.3c2.5-0.8,4.8-1.3,7-1.4c0.6,0,1.6,0.9,3,2.8c1.4,1.8,2.7,5.5,4,10.9v0.7c-0.2,1.9-0.3,2.9-0.3,3l0.3,0.5l-1.2,3.9
		c0,0.2,0.1,0.4,0.2,0.7l-0.7,2.8h0.2l-0.2,0.5c0,0.4,0.5,2.2,1.4,5.1l0.7,3.7c-1.1,4.3-2.6,7.1-4.7,8.4c-0.2,0-0.3-0.1-0.3-0.2
		l-3.5,0.5c0-0.2-0.1-0.3-0.2-0.3v0.5h-0.3c-1-0.8-1.6-1.1-1.8-1.2c0,0.3-0.2,0.5-0.5,0.5c0-0.5-0.2-0.7-0.5-0.7l-0.5,0.3
		c0-0.2-0.2-0.5-0.7-0.7l-1.2,0.3v-0.3l-0.5,0.3l-0.5-0.3c-1.6,0.9-2.6,1.4-2.8,1.4v0.5l6,1.6c0.9,0.2,1.4,0.3,1.4,0.5
		c3.1-0.2,4.7-0.7,4.7-1.4l2.1-0.7c0,0.1,0.1,0.2,0.2,0.2c0.5-1,2.3-1.8,5.4-2.6c1.1-0.7,2.5-1.5,4.4-2.3c0.3,0.1,0.5,0.2,0.7,0.2
		c1.3-0.3,1.9-0.6,1.9-0.9h1.4c0.3,0,0.5-0.2,0.5-0.7c0.8,0,1.2,0.2,1.2,0.5c1.8-0.4,2.9-0.8,3.2-1.2c0,0.2,0.3,0.5,0.9,0.7
		c0.3-0.2,0.5-0.3,0.7-0.3c0,0.3,1.1,0.7,3.3,1.2c2.5,1.3,4.1,2.4,4.9,3.5c0.6,1.4,1.3,2.1,2.1,2.1c0,0.4,0.3,1.3,0.9,2.6
		c0.9,2.6,1.4,4.3,1.4,5.1c-0.5,1.2-1.1,3.7-1.6,7.5c-0.4,0.3-1,1.7-1.6,3.9c0.1,0.3,0.2,0.5,0.2,0.7l-1.1,2.6l0.2,0.5l-1.2,7.9
		c0.2,2.1,0.5,3.7,1,4.7c0,0.1-0.1,0.2-0.3,0.2c0.5,3.7,0.8,7.4,0.9,11c-0.3,1.7-0.5,3.6-0.5,5.8v1.2l-0.2,0.5h0.2
		c-1.2,5.2-2.2,8.1-3,8.6c-2.1,2.5-4,3.7-5.8,3.7c-0.3-0.2-0.5-0.3-0.7-0.3v0.3c-2.1-0.6-3.9-1.8-5.3-3.5c-1-1.5-1.5-2.7-1.6-3.5
		h0.2c-0.5-5.1-1-7.6-1.4-7.6c0-0.4-0.6-0.8-1.8-1.2c0-0.1-0.2-0.4-0.7-0.7c-0.3,0.2-0.5,0.3-0.7,0.3c-2-0.4-3.4-1.2-4.2-2.4
		c0-0.3-0.5-0.9-1.6-1.8c-0.6,0-1.7,0.9-3,2.8c-0.6,0-1.1,1.2-1.4,3.5c0.3,1.4,0.9,3,1.8,4.9c-0.6,1.8-0.9,3.2-0.9,3.9
		c0.2,0,0.5,0.4,0.9,1.2c0,0.2-0.1,0.3-0.3,0.3c0.6,2,1,3.3,1,3.9h-0.3l0.3,0.5c-2,5.6-3.7,8.4-4.9,8.4l-0.5,0.5l-0.5-0.2h-0.7
		c-2,1.2-3.4,1.8-4.2,1.8c-2.8,0-5.1-1.3-7-3.9c-0.8,0-1.5-1.6-2.4-4.7c0-0.1,0.1-0.2,0.3-0.2l-0.3-0.5v-0.7l0.3-1.6h-0.3l0.3-0.5
		c0-0.6-0.1-0.9-0.3-0.9c0.3-4.9,0.7-7.7,1.2-8.4c-0.2-0.3-0.3-0.5-0.3-0.7h0.3l-0.3-0.5c0-0.4,0.2-1.3,0.5-2.6
		c-0.1-2.3-0.5-4.6-1.1-7c-2,0.8-3.1,1.1-3.5,1.1l-0.5-0.2h-1.6v-0.5h-1.2c-0.2,0-0.3-0.1-0.3-0.3c-0.1,0-0.2,0.1-0.2,0.3
		c-2.7-0.5-4.4-0.7-5.1-0.7h-0.5c-1.4,0.6-2.1,1-2.1,1.2l-0.5-0.3c-0.8,0.6-1.7,0.9-2.6,0.9h-0.7c-1.3,5.7-2.6,8.6-3.7,8.6
		c0,0.3-0.6,1-1.9,2.1h0.3c-0.8,1.4-2,2.1-3.7,2.1v0.3c-0.1,0-0.2-0.1-0.2-0.3c-1.2,0.3-1.8,0.5-1.9,0.5c-1.1-1.2-2.2-1.8-3.2-1.8
		c0-0.9-1-1.8-3-2.8c-0.7-1.8-1.4-2.8-2.1-2.8c-0.3-0.2-0.5-0.7-0.5-1.4h-0.9l-3.5,0.7c-1.6-0.5-2.9-1.2-3.7-2.1
		c-1.1,0-2.9-2.3-5.3-7c-0.7-2.6-1-5.3-1-7.9c0-2,0.6-5,1.9-9.1c0-0.5-0.5-1.7-1.4-3.7c-0.6-1.7-1-3.3-1-4.9c0-2.1,0.8-5.5,2.4-10.3
		v-1.4c0-0.5-0.8-3.3-2.4-8.4l0.3-0.5l-0.7-3.5l0.3-1.4v-0.5l-0.3-1.6h0.3l-0.3-0.5v-0.7c1.1-3.6,1.6-6.1,1.6-7.4
		c0-1.6-0.9-4.3-2.8-7.9l-1.6-5.3c0.6-4.1,1.4-7.9,2.3-11.4v-0.5c0-1.7-0.2-3.3-0.7-4.6h0.2c-0.4-1.7-1.3-3.8-2.8-6.1
		c-0.5-1.2-0.7-2.1-0.7-2.6v-0.7c0-0.6,0.6-3.7,1.8-9.3l0.3-1.6c-0.9-3.5-1.4-5.9-1.4-7v-0.7c0-2.1,1.2-4.8,3.7-8.2
		c3.7-2.9,6-4.4,6.8-4.4c2.6-1.1,6.7-2.1,12.1-3l0.5,0.2c0.3-0.1,0.5-0.2,0.7-0.2c0,0.1,0.1,0.2,0.2,0.2l0.3-0.5
		c1.3,0.6,4.8,1.5,10.5,2.6h0.7c2.5,0,4.7-0.6,6.5-1.8c4.2-1.6,7.8-2.6,10.7-3C615,138.3,615.1,138.3,615.2,138.3z M604.5,149.2
		c0.2,0,0.7,0.2,1.6,0.7c0,0.8-0.6,1.2-1.8,1.4l-1.2-0.2c-0.9,0.1-1.4,0.3-1.4,0.5l-0.5-0.3h-1.4c-0.4,0-0.9,0.2-1.4,0.5l-0.5-0.2
		c-0.6,0.1-0.9,0.3-0.9,0.5l-2.6-0.5c-0.6,0.1-1.2,0.2-1.8,0.2c-3-0.9-4.6-1.4-4.9-1.4v-0.5h-0.5l-0.5,0.3c0-0.3-0.9-0.5-2.6-0.7
		c0-0.3-0.5-0.4-1.6-0.5h-1.9c-0.1,0-0.2-0.1-0.2-0.3l-0.5,0.3H578c-2.8,0.4-5.1,1.6-7,3.5c-0.9,0.7-1.8,1.9-2.6,3.7v2.1
		c0,0.9,0.6,2.8,1.8,5.8c0.2,2.2,0.3,3.3,0.5,3.3l-0.2,0.5l0.2,2.1c-0.6,1.5-1,2.8-1.2,3.7c1,3.7,2.3,5.6,4,5.6
		c0,0.2,0.1,0.3,0.2,0.3c0-0.2,0.1-0.3,0.3-0.3v0.3c1.2,0,1.9-0.9,2.1-2.6v-1.8c-0.4-3-0.8-4.5-1.2-4.5l0.2-0.5
		c0-0.1-0.1-0.2-0.2-0.2c0.2-0.8,0.5-2.4,0.9-4.7c0.5-1.5,0.9-2.4,1.2-2.6h0.2c0.3,0,0.5,0.2,0.5,0.7c0,0.7-0.2,1.4-0.5,2.1
		c0,2,0.3,3,0.9,3h0.3v1.2c1.2,2.8,1.8,5.3,1.8,7.4c0,2.4-0.5,3.9-1.6,4.5c-1.7,1.1-3.2,1.6-4.4,1.6c0.1,2.4,0.3,3.5,0.5,3.5
		c-1.1,2.9-1.6,4.5-1.6,4.9c-0.2,0-0.6,0.5-1.1,1.4l0.2,0.5c-0.1,0.9-0.3,1.4-0.5,1.4l0.3,0.5c-0.4,0.8-0.8,1.6-0.9,2.5l0.2,0.5
		l-0.2,0.9l0.2,1.4H571l1.4,3.9c2.1,2.5,3.4,5.1,3.7,7.9c0,0.1,0.2,0.2,0.5,0.2c0,0.1,0.1,1.1,0.2,3c-0.3,0-0.6,1.1-0.9,3.3v3.2
		c-0.3,0.3-0.5,1.2-0.7,2.8H575c0.1,0.3,0.2,0.5,0.2,0.7c-0.8,1.3-1.1,2.2-1.1,2.6c0,0.4,0.2,0.9,0.5,1.4h-0.3
		c0.2,0.8,0.4,1.1,0.7,1.1c0.2-0.9,0.9-1.4,2.1-1.4c1.4,0,2.1,0.9,2.1,2.6c-0.2,0-0.3,0.1-0.3,0.2h0.3l-0.3,0.5
		c0,0.3,0.1,0.6,0.3,0.9c-0.8,4.2-1.8,7.2-3,9.1l-1.9,6c0,0.6-0.2,1.4-0.7,2.1l0.2,1.6l-0.2,2.1c0.3,2,1,3,1.8,3
		c0,0.4,0.1,0.7,0.2,1l-0.2,0.5c0.1,0.3,0.2,0.5,0.2,0.7c-1.2,4.3-2,7.8-2.3,10.5c0.5,0,0.7,0.2,0.7,0.7l-0.3,0.5
		c0.9,2.5,2.4,4.4,4.4,5.6l1.4,0.3h0.2c0.3,0,0.8-1,1.4-3v-1.2c-0.3,0-1-1.2-1.8-3.5c0.1,0,0.8-1.2,1.8-3.5c0.9-0.9,2.1-1.6,3.5-2.1
		l0.2,0.5l0.5-0.2h0.3c0,0.4,0.3,0.7,0.9,0.7v0.3c-0.8,3.5-1.2,5.6-1.2,6.3c-0.1,0-0.2,0.1-0.2,0.3l0.5,1.4
		c-0.2,0.3-0.3,0.6-0.3,0.9v0.5c0.4,0,1.6,1.1,3.5,3.3c0,0.1-0.1,0.2-0.2,0.2c0,1.9,0.5,3.3,1.4,4.2h0.2c0.5,0,1.1-1.5,1.6-4.4v-1.6
		c2.2-3.1,3.8-5.2,4.7-6.1c1.4-0.3,3.1-0.5,5.1-0.7c0.3,0.8,2.1,1.3,5.3,1.4c0.4-0.3,1.6-0.7,3.7-1.2c0.6-0.8,1.3-1.4,1.8-1.6
		c0,0.2,0.1,0.3,0.3,0.3c0.4-0.8,1.9-2.1,4.4-3.9c0.6,0,1.4-0.2,2.4-0.7c0.9,0,1.4,0.6,1.4,1.8c0,0.2-1,1.2-3,3
		c0,0.5-0.3,0.7-0.9,0.7v0.2c0.6,0,0.9,0.2,0.9,0.5l3.7-1h1.2c0.5,0.5,1.6,1,3.3,1.4c0.2,0.8,0.6,1.1,1.1,1.1l-0.2,0.5v0.3
		c0.5,2,0.7,3.3,0.7,3.9v0.3c-0.6,1.8-1,3.7-1,5.8c0.5,2.8,0.7,4.8,0.7,5.8v2.8l0.5,0.7c-0.3,0.5-0.5,1-0.5,1.4v0.3
		c0,0.4,0.1,0.7,0.3,0.7l-0.5,4.2c0.6,3.2,1.4,4.9,2.4,4.9c1.4,0.2,2.1,0.3,2.3,0.3c1.1-1.2,1.6-2.2,1.6-2.8h-0.3
		c0.5-0.7,0.8-1.5,1-2.3c-0.1-1.5-1.1-3.5-2.8-6c0-0.3-0.1-0.5-0.2-0.5c0.4-0.9,0.7-2,0.7-3.5c0-0.7-0.5-1.8-1.4-3.5
		c-0.3-1.1-0.5-2-0.5-2.8v-0.2c0.5-2.4,0.9-5.1,1.2-8.2c0-0.2-0.1-0.3-0.3-0.3l0.3-1.2c-0.3-1.9-0.6-3.1-1-3.5v-1.1
		c0.1,0,0.6-0.1,1.4-0.3c1.8,0.3,2.8,0.8,2.8,1.6c0.4,0,0.6,0.5,0.7,1.6L635,274l0.3,1.2h0.7c1.1-1.1,2.1-2.8,3-5.1
		c3.7-2.1,5.8-3.6,6.3-4.7c1.1-0.6,2-0.9,2.8-0.9h0.2c0.5,0.1,0.7,0.7,0.7,1.8c-1.1,1.2-1.6,2.2-1.6,3c2.2,1.4,3.2,3.6,3.2,6.6h0.3
		c0.6-0.8,1.9-1.3,3.7-1.6c2.5,0,3.7,1.6,3.7,4.9v2.4c-0.4,1.7-0.7,2.6-0.7,2.8c0.9,3.7,1.8,5.6,2.8,5.6c1,0,1.8-1.7,2.6-5.1v-2.1
		c0-0.1,0.1-0.2,0.3-0.2c0-0.2-0.1-0.3-0.3-0.3l0.3-2.3v-0.3c0-1.5-0.4-3.4-1.2-5.6l0.5-1.1c0-0.2-0.1-0.3-0.2-0.3l0.2-1.2v-2.1
		c0-0.4-0.2-0.9-0.5-1.4c0.2-0.3,0.3-0.5,0.3-0.7c-0.8-1.2-1.3-2.9-1.4-5.1c0.8-5,1.4-7.5,1.6-7.7c0-0.2-0.1-0.3-0.2-0.3l0.2-1.4
		c0-1.9-1.2-3.6-3.5-5.1c-0.6-0.7-0.9-1.4-0.9-2.1v-0.2c0-0.5,0.2-1.6,0.5-3.3c-0.2,0-0.3-0.1-0.3-0.2c0.5-0.6,1.1-1,1.6-1
		c1.2,0,2,0.7,2.4,2.1l-0.3,0.5v0.7c0,0.4,0.3,1.1,0.9,2.1h0.9c0-0.4,0.3-0.7,0.9-0.9c0.8-1,1.2-2.4,1.2-4.2
		c-0.3-0.5-0.5-0.9-0.5-1.2c0-0.1,0.1-0.2,0.3-0.2c-0.2-1.9-0.6-2.8-1.2-2.8c0-0.3-0.9-1.3-2.6-2.8v-0.3h-0.9
		c-0.2,0-0.3,0.1-0.3,0.3l-3.5-1.2l-0.5,0.3l-0.9-0.5l-4.4,1.4c0-0.2-0.1-0.3-0.3-0.3c0,0.4-0.7,0.8-2.1,1.2
		c-0.3-0.2-0.5-0.3-0.7-0.3c0,0.3-0.7,0.6-2.1,1c-1.7,0.8-2.9,1.5-3.7,2.3c-3.1,1.4-4.8,2.1-5.1,2.1c-0.6,0.6-1.1,1-1.6,1.2
		c-0.1,0-0.2-0.1-0.2-0.3c-1.9,0.5-4.2,0.9-7,1.2l-0.5-0.3c-0.3,0.2-0.5,0.3-0.7,0.3l-1.4-0.7c0,0.2-0.1,0.3-0.3,0.3
		c0-0.2-0.9-0.6-2.8-1.2c-1.3-0.9-2.2-1.4-2.8-1.4c0,0.1-0.1,0.2-0.2,0.2c0-0.3-0.2-0.5-0.5-0.5H619c-0.2,0-0.3,0.1-0.3,0.3
		c-0.5-0.3-0.9-0.5-1.1-0.5c-0.8,0.4-1.4,0.7-1.9,0.7c0-0.3-0.4-0.5-1.1-0.7c-1.4,1.2-2.5,2.7-3.3,4.6c0.4,0.9,0.8,2,1.2,3.5
		c0.2,0,0.5,0.3,0.9,0.9v1.1c0,0.4-0.5,0.7-1.6,1c-2.3-1.3-3.8-3.4-4.7-6.3c-0.1,0-0.2-0.1-0.2-0.3V243c0-1.6,1.2-4.2,3.5-7.9
		c0-0.5,0.1-1,0.3-1.6c0-0.3-1-1.9-3.1-4.7c0-0.4-0.1-1-0.2-1.8c0.1,0,0.2-0.1,0.2-0.2h-0.2c1-3,1.8-4.5,2.3-4.5
		c0.5-0.1,0.7-0.3,0.7-0.5c0.5,0,1.4,0.3,2.6,0.9v1.2c0,0.3,0.2,0.5,0.5,0.5l0.5-0.2c0,0.1,0.1,0.2,0.3,0.2c0-0.1,0.1-0.2,0.2-0.2
		v0.2c0.9-0.2,1.5-0.4,1.8-0.7h0.5c0.1,0,0.2,0.1,0.2,0.3c0.3-0.2,1-0.3,2.1-0.5l0.5,0.2c1.6-0.4,2.9-0.9,3.7-1.6
		c0.4,0,1.7-0.4,3.7-1.2c0.4,0,0.6-0.4,0.7-1.2h0.9c0.4,0,0.9,0.2,1.4,0.5c0-0.1,0.1-0.2,0.3-0.2c0.5,1.8,0.9,2.8,1.2,3
		c0.9,0.6,1.8,0.9,2.6,0.9h0.7c1.1-0.7,1.6-1.7,1.6-3l-0.3-0.5l0.3-0.5c0-1.2-0.9-4.2-2.8-9.1c0-0.3-0.2-0.5-0.5-0.5l0.3-1.2V209
		c0-0.3-0.1-0.6-0.3-0.9c0-1.3,0.5-2.4,1.4-3.2c0-0.5,0.3-1.2,0.9-2.1c0-2.1-0.5-4-1.6-5.8c0-0.8-0.4-1.1-1.2-1.1
		c-0.7,0-1.5,0.3-2.6,0.9c-0.3,0-1.5,0.4-3.5,1.1l-0.5-0.2c0,0.3-0.2,0.5-0.5,0.5H625c0-0.3-1.1-0.7-3.3-1.2
		c-0.5-0.3-0.9-0.7-0.9-1.1c-0.3,0-0.5-0.1-0.5-0.3c-1.9,0.4-3,0.8-3.2,1.2l-1.2-0.3c-0.9,0-2.8,0.7-5.6,2.1c0-0.2-0.9-0.5-2.6-0.9
		c-0.2-1-1.1-2.3-2.6-3.9c0-0.6-0.1-0.9-0.2-0.9c0.3-2.2,0.8-3.9,1.6-5.1c0.6-1.3,0.9-2.5,0.9-3.5h0.3l-0.3-1.2v-2.1
		c0-1.2-0.5-1.8-1.4-1.8h-0.2c0,0.1-0.1,0.2-0.3,0.2c-2.2-1.5-3.2-2.8-3.2-3.7c-0.2,0-0.3-0.8-0.5-2.4c0.2-1.4,0.4-2.1,0.7-2.1h1.2
		c0-0.3,0.1-0.5,0.2-0.5c0.3,0,1.5,0.5,3.7,1.6c1.1-0.4,1.9-1.2,2.3-2.3c0-0.9,0.8-1.8,2.4-2.8v-0.2h0.5c0.2,0,0.4,0.4,0.7,1.1
		l-0.3,1.2v1.2c0,0.1,0.1,0.2,0.3,0.2c-0.3,0.9-0.5,1.7-0.5,2.6c0.2,0,0.3,0.1,0.3,0.3c-0.2,0-1.3,1.1-3.3,3.2l1.6,3h-0.2
		c0,0.2,0.3,0.6,0.9,1.2l1.6-0.3l1.6,0.3c0-0.2,0.1-0.3,0.3-0.3v0.3c1.5-0.4,2.7-1.1,3.7-2.1c0,0.2,0.1,0.3,0.2,0.3
		c0-0.3,1-0.6,3-0.9c0-0.3,1.3-0.5,3.9-0.7l1.6,0.7c0-0.2,0.1-0.3,0.3-0.3c0,0.2,0.4,0.6,1.1,1.2h0.3l0.5-0.3c0,1,0.9,1.7,2.6,2.1
		c0,0.2,0.1,0.3,0.2,0.3h0.7v0.2c1.9,0,3.4-2,4.4-6.1c1.4-0.9,2.2-1.5,2.4-1.8c1.3,0,2.3,0.5,3.2,1.6c0.3,0,0.9,1.5,1.9,4.6v0.3
		c-0.2,1.2-0.7,2.4-1.6,3.5c0,2.9,1,4.9,3,5.8c1.2,0,2.5-1.9,3.7-5.8v-2.1c0-1.3-0.9-5.1-2.6-11.2c0.3-2.2,0.6-3.5,0.9-3.7v-0.3
		c0-1.7-0.4-4.2-1.2-7.4h0.3l-0.3-0.5c0.9-3,1.5-4.5,1.8-4.5c0.3-0.1,0.6-0.8,1-2.1c0-2.9-1.3-4.8-4-5.6c-0.8,0.2-1.2,0.3-1.4,0.3
		l-0.9-0.3l-1.2,0.3c-0.3-0.2-0.5-0.3-0.7-0.3c0,0.3-0.2,0.5-0.5,0.5H642c-0.3,0-0.6-0.1-0.9-0.3c-7.2,1.4-12.4,2.5-15.3,3.3h-1.2
		c0-0.8-1.9-1.5-5.8-2.1l-3.7-1.4l-1.2,0.3c-0.3,0-0.5-0.1-0.5-0.3c-1.4,0-3.1,0.5-5.3,1.4C607,147.6,605.8,148.1,604.5,149.2z
		 M578.2,190.2c0.4,0,1,0.9,1.6,2.6c0.4,0,0.9,2,1.6,6c-0.8,4.1-1.2,6.7-1.2,7.6l-0.7,0.5c0-0.5-0.2-1.5-0.7-2.8v-3.2
		c0-0.4-0.4-0.7-1.2-0.7c0.3-1.2,0.5-1.9,0.5-2.4c-0.6-2-0.9-3.2-0.9-3.7v-0.7C577.6,191.3,577.9,190.2,578.2,190.2z M601.7,233.3
		h0.5c0,0.1,0.1,0.4,0.3,0.7c0,0.2-0.1,0.4-0.3,0.7c0.5,2.4,0.7,4.3,0.7,5.6l-0.3,0.5c0.2,0.4,0.5,1.2,0.7,2.6l-0.3,0.5
		c0.8,3.1,1.4,4.7,1.9,4.7l0.7,3v1.8l0.3,2.4c-0.4,0-0.7,0.7-0.9,2.1l0.2,0.5c-1.5,2.4-2.4,3.5-2.6,3.5h-2.8l-0.5-0.3
		c0,0.2-0.1,0.3-0.3,0.3c0-0.4-0.7-0.8-2.1-1.2c0-0.6-0.3-1-0.9-1.2c-0.6-0.3-0.9-1.1-0.9-2.3c0-2,0.2-3,0.7-3h0.3
		c1.4,1.8,2.3,2.8,2.6,2.8c0.3,0.2,0.5,0.3,0.7,0.3c1,0,1.7-1.2,2.1-3.7c-0.1-3.2-0.5-6.9-1.1-10.9v-0.3c0.6-2.7,0.9-4.8,0.9-6.3
		v-2.1C601.3,233.4,601.5,233.3,601.7,233.3z"/>
</g>
</svg>
